<?xml version="1.0" encoding="utf-8"?>
<!-- Generator: Adobe Illustrator 25.4.1, SVG Export Plug-In . SVG Version: 6.00 Build 0)  -->
<svg version="1.1" xmlns="http://www.w3.org/2000/svg" xmlns:xlink="http://www.w3.org/1999/xlink" x="0px" y="0px"
	 viewBox="0 0 134.7 54.3" style="enable-background:new 0 0 134.7 54.3;" xml:space="preserve">
<style type="text/css">
	.st0{fill:#325572;}
	.st1{fill:#B92A59;}
	.st2{fill:none;stroke:#000000;stroke-miterlimit:2.613;stroke-dasharray:5.651,5.651;}
	.st3{fill:none;stroke:#000000;stroke-miterlimit:2.613;stroke-dasharray:5.695,5.695;}
	.st4{fill:none;stroke:#000000;stroke-miterlimit:2.613;}
	.st5{display:none;}
	.st6{display:inline;fill:#FFFFFF;}
</style>
<g id="Layer_5">
</g>
<g id="Layer_1">
	<g>
		<g>
			<path class="st0" d="M44.8,24.8l-2.5,5.9h-2.5L49.3,9l9.3,21.7H56l-2.4-5.9H44.8z M49.3,14.4l-3.5,8.3h7L49.3,14.4z"/>
			<path class="st0" d="M63.8,30.7h-2.3V10h2.3V30.7z"/>
			<path class="st0" d="M71.2,12.8c2.1-2.1,4.7-3.1,7.6-3.1c2.9,0,5.5,1,7.6,3.1c2.1,2.1,3.2,4.6,3.2,7.5c0,2.9-1.1,5.4-3.2,7.5
				C84.3,30,81.7,31,78.8,31c-3,0-5.5-1-7.6-3.1c-2.1-2.1-3.2-4.6-3.2-7.5C68,17.4,69.1,14.9,71.2,12.8z M72.8,26.4
				c1.7,1.7,3.6,2.5,6,2.5c2.3,0,4.3-0.8,6-2.5c1.6-1.7,2.5-3.7,2.5-6c0-2.4-0.8-4.4-2.5-6.1c-1.6-1.7-3.6-2.5-6-2.5
				c-2.3,0-4.3,0.8-6,2.5c-1.6,1.7-2.5,3.7-2.5,6.1C70.3,22.7,71.2,24.7,72.8,26.4z"/>
			<path class="st0" d="M93.8,9.1L109.8,26V10h2.3v21.6L96.1,14.7v15.9h-2.3V9.1z"/>
		</g>
		<path class="st1" d="M33.2,20.3c0,2.8-2.2,5-5,5c-2.8,0-5-2.2-5-5c0-2.8,2.2-5,5-5C31,15.3,33.2,17.5,33.2,20.3z"/>
		<path class="st1" d="M15.9,20.3c0,1.7-1.4,3.1-3.1,3.1c-1.7,0-3.1-1.4-3.1-3.1c0-1.7,1.4-3.1,3.1-3.1
			C14.5,17.2,15.9,18.6,15.9,20.3z"/>
		<path class="st1" d="M124.2,20.3c0,1.4-1.1,2.5-2.5,2.5c-1.4,0-2.5-1.1-2.5-2.5c0-1.4,1.1-2.5,2.5-2.5
			C123.1,17.8,124.2,18.9,124.2,20.3z"/>
	</g>
	<g>
		<g>
			<path class="st0" d="M12.1,43.6l-1.5-5.7h0.8l0.9,3.8c0.1,0.4,0.2,0.8,0.2,1.2c0.1-0.6,0.2-1,0.3-1.1l1.1-3.9h0.9l0.8,2.9
				c0.2,0.7,0.4,1.4,0.4,2c0.1-0.4,0.2-0.8,0.3-1.2l0.9-3.7h0.8l-1.6,5.7h-0.7l-1.2-4.4c-0.1-0.4-0.2-0.6-0.2-0.7
				c-0.1,0.3-0.1,0.5-0.2,0.7l-1.2,4.4H12.1z"/>
			<path class="st0" d="M19.9,43.6v-5.7H24v0.7h-3.4v1.8h3.2V41h-3.2v1.9h3.5v0.7H19.9z"/>
			<path class="st0" d="M33.7,37.9h0.8v3.3c0,0.6-0.1,1-0.2,1.4s-0.4,0.6-0.7,0.8s-0.8,0.3-1.3,0.3c-0.5,0-1-0.1-1.3-0.3
				s-0.6-0.5-0.7-0.8s-0.2-0.8-0.2-1.4v-3.3h0.8v3.3c0,0.5,0,0.9,0.1,1.1s0.3,0.4,0.5,0.5s0.5,0.2,0.8,0.2c0.6,0,1-0.1,1.2-0.4
				s0.4-0.7,0.4-1.5V37.9z"/>
			<path class="st0" d="M37,43.6v-5.7h0.8l3,4.5v-4.5h0.7v5.7h-0.8l-3-4.5v4.5H37z"/>
			<path class="st0" d="M44,43.6v-5.7h2c0.4,0,0.8,0,1,0.1c0.3,0.1,0.6,0.2,0.8,0.4c0.3,0.3,0.5,0.6,0.7,1s0.2,0.9,0.2,1.4
				c0,0.4-0.1,0.8-0.2,1.2s-0.2,0.6-0.4,0.8s-0.3,0.4-0.5,0.5s-0.4,0.2-0.7,0.3s-0.6,0.1-0.9,0.1H44z M44.8,42.9H46
				c0.4,0,0.7,0,0.9-0.1s0.4-0.2,0.5-0.3c0.2-0.2,0.3-0.4,0.4-0.7s0.2-0.7,0.2-1.1c0-0.6-0.1-1.1-0.3-1.4s-0.4-0.5-0.7-0.6
				c-0.2-0.1-0.5-0.1-1-0.1h-1.2V42.9z"/>
			<path class="st0" d="M51,43.6v-5.7h4.1v0.7h-3.4v1.8H55V41h-3.2v1.9h3.5v0.7H51z"/>
			<path class="st0" d="M57.6,43.6v-5.7h2.5c0.5,0,0.9,0.1,1.2,0.2s0.5,0.3,0.6,0.5s0.2,0.5,0.2,0.9c0,0.4-0.1,0.7-0.4,1
				s-0.7,0.5-1.2,0.5c0.2,0.1,0.4,0.2,0.5,0.3c0.2,0.2,0.4,0.5,0.6,0.8l1,1.6h-1L61,42.4c-0.2-0.3-0.4-0.6-0.5-0.8s-0.3-0.3-0.4-0.4
				s-0.2-0.1-0.3-0.2c-0.1,0-0.2,0-0.4,0h-0.9v2.5H57.6z M58.4,40.4H60c0.3,0,0.6,0,0.8-0.1s0.3-0.2,0.4-0.3s0.2-0.3,0.2-0.5
				c0-0.3-0.1-0.5-0.3-0.7s-0.5-0.3-0.9-0.3h-1.8V40.4z"/>
			<path class="st0" d="M64.4,41.8l0.7-0.1c0,0.3,0.1,0.5,0.2,0.7s0.3,0.3,0.6,0.4s0.6,0.2,0.9,0.2c0.3,0,0.5,0,0.8-0.1
				s0.4-0.2,0.5-0.4s0.2-0.3,0.2-0.5c0-0.2-0.1-0.3-0.2-0.5s-0.3-0.2-0.5-0.3c-0.2-0.1-0.5-0.2-1-0.3s-0.9-0.2-1.1-0.4
				c-0.3-0.1-0.5-0.3-0.6-0.5s-0.2-0.5-0.2-0.7c0-0.3,0.1-0.6,0.2-0.8s0.4-0.4,0.7-0.6s0.7-0.2,1.1-0.2c0.4,0,0.8,0.1,1.1,0.2
				s0.6,0.3,0.7,0.6s0.3,0.6,0.3,0.9l-0.7,0.1c0-0.4-0.2-0.6-0.4-0.8s-0.6-0.3-1-0.3c-0.5,0-0.8,0.1-1,0.3s-0.3,0.4-0.3,0.6
				c0,0.2,0.1,0.4,0.2,0.5c0.1,0.1,0.5,0.3,1.1,0.4s1,0.3,1.3,0.4c0.3,0.2,0.6,0.3,0.7,0.6S69,41.7,69,42c0,0.3-0.1,0.6-0.3,0.9
				s-0.4,0.5-0.8,0.6s-0.7,0.2-1.1,0.2c-0.5,0-1-0.1-1.3-0.2s-0.6-0.4-0.8-0.7S64.4,42.2,64.4,41.8z"/>
			<path class="st0" d="M72.7,43.6v-5.1h-1.9v-0.7h4.5v0.7h-1.9v5.1H72.7z"/>
			<path class="st0" d="M76.2,43.6l2.2-5.7h0.8l2.3,5.7h-0.9L80,41.9h-2.4L77,43.6H76.2z M77.8,41.3h1.9l-0.6-1.6
				c-0.2-0.5-0.3-0.9-0.4-1.2c-0.1,0.4-0.2,0.7-0.3,1.1L77.8,41.3z"/>
			<path class="st0" d="M83.4,43.6v-5.7h0.8l3,4.5v-4.5h0.7v5.7h-0.8l-3-4.5v4.5H83.4z"/>
			<path class="st0" d="M90.4,43.6v-5.7h2c0.4,0,0.8,0,1,0.1c0.3,0.1,0.6,0.2,0.8,0.4c0.3,0.3,0.5,0.6,0.7,1s0.2,0.9,0.2,1.4
				c0,0.4-0.1,0.8-0.2,1.2s-0.2,0.6-0.4,0.8s-0.3,0.4-0.5,0.5s-0.4,0.2-0.7,0.3s-0.6,0.1-0.9,0.1H90.4z M91.2,42.9h1.2
				c0.4,0,0.7,0,0.9-0.1s0.4-0.2,0.5-0.3c0.2-0.2,0.3-0.4,0.4-0.7s0.2-0.7,0.2-1.1c0-0.6-0.1-1.1-0.3-1.4s-0.4-0.5-0.7-0.6
				c-0.2-0.1-0.5-0.1-1-0.1h-1.2V42.9z"/>
			<path class="st0" d="M102.4,43.6v-2.4l-2.2-3.3h0.9l1.1,1.7c0.2,0.3,0.4,0.6,0.6,1c0.2-0.3,0.4-0.6,0.6-1l1.1-1.7h0.9l-2.3,3.3
				v2.4H102.4z"/>
			<path class="st0" d="M107.2,40.8c0-1,0.3-1.7,0.8-2.2s1.2-0.8,2-0.8c0.5,0,1,0.1,1.4,0.4s0.7,0.6,1,1.1s0.3,1,0.3,1.5
				c0,0.6-0.1,1.1-0.4,1.6s-0.6,0.8-1,1s-0.9,0.4-1.4,0.4c-0.5,0-1-0.1-1.4-0.4s-0.7-0.6-1-1.1S107.2,41.3,107.2,40.8z M107.9,40.8
				c0,0.7,0.2,1.2,0.6,1.6s0.8,0.6,1.4,0.6c0.6,0,1-0.2,1.4-0.6s0.6-1,0.6-1.7c0-0.5-0.1-0.9-0.2-1.2s-0.4-0.6-0.7-0.8
				s-0.6-0.3-1-0.3c-0.5,0-1,0.2-1.4,0.6S107.9,40,107.9,40.8z"/>
			<path class="st0" d="M118.6,37.9h0.8v3.3c0,0.6-0.1,1-0.2,1.4s-0.4,0.6-0.7,0.8s-0.8,0.3-1.3,0.3c-0.5,0-1-0.1-1.3-0.3
				s-0.6-0.5-0.7-0.8s-0.2-0.8-0.2-1.4v-3.3h0.8v3.3c0,0.5,0,0.9,0.1,1.1s0.3,0.4,0.5,0.5s0.5,0.2,0.8,0.2c0.6,0,1-0.1,1.2-0.4
				s0.4-0.7,0.4-1.5V37.9z"/>
			<path class="st0" d="M122,43.6v-0.8h0.8v0.8H122z"/>
			<path class="st0" d="M38.1,53.6v-5.7h2.2c0.4,0,0.7,0,0.9,0.1c0.3,0,0.5,0.1,0.7,0.3s0.3,0.3,0.5,0.6s0.2,0.5,0.2,0.8
				c0,0.5-0.2,0.9-0.5,1.2s-0.9,0.5-1.7,0.5h-1.5v2.3H38.1z M38.8,50.6h1.5c0.5,0,0.8-0.1,1-0.3s0.3-0.4,0.3-0.8
				c0-0.2-0.1-0.4-0.2-0.6s-0.3-0.3-0.5-0.3c-0.1,0-0.4-0.1-0.7-0.1h-1.5V50.6z"/>
			<path class="st0" d="M44.7,53.6v-5.7h4.1v0.7h-3.4v1.8h3.2V51h-3.2v1.9H49v0.7H44.7z"/>
			<path class="st0" d="M51.3,53.6v-5.7h2.5c0.5,0,0.9,0.1,1.2,0.2s0.5,0.3,0.6,0.5s0.2,0.5,0.2,0.9c0,0.4-0.1,0.7-0.4,1
				s-0.7,0.5-1.2,0.5c0.2,0.1,0.4,0.2,0.5,0.3c0.2,0.2,0.4,0.5,0.6,0.8l1,1.6h-1l-0.8-1.2c-0.2-0.3-0.4-0.6-0.5-0.8
				s-0.3-0.3-0.4-0.4s-0.2-0.1-0.3-0.2c-0.1,0-0.2,0-0.4,0H52v2.5H51.3z M52,50.4h1.6c0.3,0,0.6,0,0.8-0.1s0.3-0.2,0.4-0.3
				s0.2-0.3,0.2-0.5c0-0.3-0.1-0.5-0.3-0.7s-0.5-0.3-0.9-0.3H52V50.4z"/>
			<path class="st0" d="M58.3,53.6v-5.7h3.9v0.7h-3.1v1.8h2.7V51h-2.7v2.6H58.3z"/>
			<path class="st0" d="M64.4,53.6v-5.7h4.1v0.7h-3.4v1.8h3.2V51h-3.2v1.9h3.5v0.7H64.4z"/>
			<path class="st0" d="M75.1,51.6l0.8,0.2c-0.2,0.6-0.4,1.1-0.9,1.4s-0.9,0.5-1.5,0.5c-0.6,0-1.1-0.1-1.5-0.4s-0.7-0.6-0.9-1.1
				s-0.3-1-0.3-1.5c0-0.6,0.1-1.1,0.3-1.6s0.6-0.8,1-1s0.9-0.3,1.4-0.3c0.6,0,1.1,0.1,1.4,0.4s0.7,0.7,0.8,1.2L75,49.6
				c-0.1-0.4-0.3-0.7-0.6-0.9s-0.6-0.3-1-0.3c-0.4,0-0.8,0.1-1.1,0.3s-0.5,0.5-0.6,0.8s-0.2,0.7-0.2,1.1c0,0.5,0.1,0.9,0.2,1.3
				s0.4,0.6,0.7,0.8s0.6,0.3,1,0.3c0.4,0,0.8-0.1,1.1-0.4S75,52.1,75.1,51.6z"/>
			<path class="st0" d="M79.5,53.6v-5.1h-1.9v-0.7h4.5v0.7h-1.9v5.1H79.5z"/>
			<path class="st0" d="M84.2,53.6v-5.7h0.8v5.1h2.8v0.7H84.2z"/>
			<path class="st0" d="M90.9,53.6v-2.4l-2.2-3.3h0.9l1.1,1.7c0.2,0.3,0.4,0.6,0.6,1c0.2-0.3,0.4-0.6,0.6-1l1.1-1.7H94l-2.3,3.3v2.4
				H90.9z"/>
			<path class="st0" d="M95,53.6v-0.8h0.8v0.8H95z"/>
		</g>
	</g>
</g>
<g id="Layer_4">
</g>
<g id="Layer_3">
</g>
<g id="Layer_2">
	<line class="st2" x1="-4094.3" y1="1863.7" x2="-3467" y2="1863.7"/>
	<line class="st3" x1="-4084.5" y1="1885.2" x2="-3486.5" y2="1885.2"/>
	<path class="st4" d="M-3890.2,2047.8l-114.6-153.2 M-3879.9,1963.4l27.9,40.2 M-3712.8,1923.1l27.9,40.2"/>
</g>
<g id="Layer_6" class="st5">
	<rect x="-4358.5" y="-6176.5" class="st6" width="906" height="1271.9"/>
</g>
</svg>
