<?xml version="1.0" encoding="UTF-8"?> <svg xmlns="http://www.w3.org/2000/svg" width="188" height="50" viewBox="0 0 188 50" fill="none"><path d="M46.8481 6.54133L44.5391 6.6061L42.3517 6.54133L38.5236 6.47656C38.0983 6.47656 37.3083 6.47656 37.3083 7.12423C37.3083 7.7719 38.0375 7.7719 38.2806 7.7719L39.6781 7.90143C40.8934 8.1605 41.2579 8.67864 41.3795 10.233C41.4402 11.6579 41.4402 12.9532 41.4402 19.8185V27.8496C41.4402 31.9947 41.4402 35.6216 41.1972 37.4999C41.0149 38.9248 40.7718 39.6372 40.1642 39.7667L38.6451 39.961C38.0375 39.961 37.6729 40.1553 37.6729 40.6087C37.6729 41.0621 38.0375 41.3211 38.8274 41.3211L42.2909 41.2564L44.3568 41.1916L48.8533 41.3211L57.0562 41.4507C59.3045 41.4507 59.7298 41.2564 60.0336 40.0258C60.3982 38.6657 60.702 35.233 60.702 34.7149C60.702 34.3263 60.702 33.6786 60.0944 33.6786C59.4868 33.6786 59.3652 34.3263 59.3652 34.5854C59.3045 35.3626 58.7576 36.5931 58.3323 37.176C57.3601 38.2771 55.841 38.3418 53.4105 38.3418C49.947 38.3418 48.9748 38.018 48.3064 37.4351C47.4557 36.7227 47.4557 33.3548 47.4557 27.8496V19.8833C47.4557 12.9532 47.4557 11.7227 47.5165 10.2978C47.5773 8.7434 47.9418 8.1605 48.914 7.9662L50.5546 7.83667C50.8584 7.83667 51.5876 7.83667 51.5876 7.189C51.5876 6.54133 50.7977 6.54133 50.4331 6.54133H46.8481Z" fill="#E2231A"></path><path d="M118.487 6.54133L115.996 6.6061L111.925 6.47656C111.621 6.47656 110.953 6.47656 110.953 7.189C110.953 7.70713 111.5 7.7719 111.925 7.90143C112.411 8.03097 112.654 8.29003 112.654 8.7434C112.654 9.3263 112.472 10.1035 112.046 11.0102C111.743 11.7227 110.224 14.5724 108.765 17.2926C107.429 19.7538 106.213 22.0854 105.727 23.0569C105.484 22.6035 105.059 21.8263 105.059 21.8263C103.114 18.3289 99.104 11.0102 98.5571 9.97397C98.3141 9.5206 98.071 8.87294 98.071 8.5491C98.071 8.3548 98.1926 8.09573 98.4964 8.03097L98.7394 7.9662C99.2863 7.83667 99.6509 7.70713 99.6509 7.25376C99.6509 6.9947 99.5293 6.54133 98.7394 6.54133L95.5798 6.6061L94.1215 6.67086L90.658 6.6061L88.6528 6.54133C87.7414 6.54133 87.5591 6.9947 87.5591 7.25376C87.5591 7.44807 87.6198 7.90143 88.4705 7.90143C88.8959 7.90143 89.5642 8.09573 90.1719 8.48433C91.0226 9.00247 92.1163 10.1683 93.0885 11.7227C94.6683 14.1191 100.441 24.0931 100.745 24.7408C101.291 26.1009 101.717 27.0077 101.717 29.404V33.0957L101.595 37.6294C101.535 38.5361 101.291 39.702 100.441 39.8963L98.9825 40.0906C98.1318 40.0906 98.0103 40.4792 98.0103 40.7382C98.0103 41.4507 98.861 41.4507 99.2255 41.4507L102.446 41.3859L104.633 41.3211L106.639 41.3859L111.257 41.4507C112.229 41.4507 112.411 41.0621 112.411 40.7382C112.411 40.4792 112.29 40.0906 111.439 40.0906L109.312 39.8963C108.279 39.7667 107.854 39.119 107.732 37.6294L107.611 33.0957V29.404C107.611 27.9144 107.611 26.5543 108.218 24.9999C108.948 23.1216 115.024 12.4999 116.482 10.6216C117.454 9.39107 117.88 8.87294 118.73 8.48433C119.399 8.09573 120.189 7.9662 120.553 7.9662C121.525 7.9662 121.647 7.44807 121.647 7.25376C121.647 6.6061 120.857 6.6061 120.614 6.6061L118.487 6.54133Z" fill="#E2231A"></path><path d="M124.381 10.6856C119.581 15.2841 119.217 21.5017 119.217 23.3152C119.217 29.0147 121.039 33.5483 124.685 36.9162C128.452 40.3489 133.253 41.9033 139.815 41.9033C142.428 41.9033 145.891 41.6442 147.775 40.867C148.565 40.5431 148.808 40.2193 149.051 39.3773C149.476 37.8229 150.023 33.8722 150.023 33.2893C150.023 32.4473 149.598 32.3178 149.355 32.3178C148.747 32.3178 148.626 32.8359 148.565 33.4188C148.383 34.196 147.836 35.4913 147.167 36.2685C145.466 38.3411 143.096 38.7297 139.39 38.7297C133.921 38.7297 125.9 33.6779 125.9 22.8618C125.9 17.5509 127.176 13.8592 129.85 11.3333C131.855 9.45507 134.346 8.6131 137.871 8.6131C141.577 8.6131 145.041 9.71414 146.56 11.3333C147.532 12.3696 148.14 13.8592 148.2 15.3489C148.2 15.7375 148.2 16.5794 148.869 16.5794C149.537 16.5794 149.598 15.8022 149.659 15.2841L149.719 12.9525L149.78 10.3618L150.023 7.8359C150.023 7.6416 149.963 7.12346 149.112 6.99393L146.985 6.60533L144.737 6.21673C142.793 6.02243 141.091 5.82812 138.357 5.82812C132.341 5.82812 127.906 7.38253 124.381 10.6856Z" fill="#E2231A"></path><path d="M158.409 22.4732C158.409 10.3618 164.971 8.54833 168.86 8.54833C176.212 8.54833 181.377 15.2193 181.377 24.74C181.377 37.7582 174.45 39.1183 171.533 39.1183C163.816 39.1183 158.409 32.253 158.409 22.4732ZM151.846 23.8981C151.846 32.5768 157.436 41.968 169.65 41.968C180.405 41.968 187.939 34.196 187.939 23.1209C188 12.4343 181.134 5.82812 170.136 5.82812C157.558 5.82812 151.846 15.1546 151.846 23.8981Z" fill="#E2231A"></path><path d="M76.9865 15.545C77.1688 16.0632 80.5715 25.7782 80.8753 26.6849H72.9154C72.9762 26.6202 76.9865 15.545 76.9865 15.545ZM100.441 49.6772C100.441 49.6772 100.502 49.6772 100.441 49.6772C100.502 49.6772 100.502 49.6772 100.441 49.6772ZM76.6219 7.44918L65.6846 35.9466C64.7732 38.343 63.9833 39.6383 62.1604 39.8326L60.8236 39.8974C60.2767 39.8974 60.0337 40.0917 60.0337 40.545C60.0337 41.2575 60.7628 41.2575 61.1274 41.2575L65.3201 41.1279L66.2923 41.0632L70.9102 41.1927C71.1533 41.1927 71.8824 41.1927 71.8824 40.4803C71.8824 39.8326 71.3356 39.8326 70.971 39.8326H70.3026C68.9658 39.8326 68.7835 39.2497 68.7835 38.6668C68.7835 38.1487 68.9658 37.1124 69.3912 36.0114L71.7609 29.5347C71.8217 29.3404 71.8217 29.3404 71.9432 29.3404H81.6652C81.7868 29.3404 81.7868 29.3404 81.8475 29.4699L85.7971 40.6746C85.7971 40.7393 88.7745 48.1875 90.4758 49.0943C91.8734 49.8067 93.0279 49.8715 95.6407 49.8715H99.408L100.016 49.8067C100.137 49.8067 100.259 49.6772 100.319 49.5476L100.502 49.159C100.502 49.0295 100.441 48.5114 99.7118 48.5114L98.4965 48.3818C97.9497 48.2523 97.1597 47.9932 95.6407 46.8274C95.0938 46.1798 92.3595 40.3507 91.7519 38.9259L84.2173 19.431L79.5385 7.38441L79.417 7.06058C78.9917 5.95954 78.6271 5.44141 78.0802 5.44141C77.4726 5.44141 77.108 6.15384 76.6219 7.44918Z" fill="#E2231A"></path><path d="M6.01551 5.63472C0.425339 10.9456 0 18.1995 0 20.272C0 26.8782 2.1267 32.1891 6.38009 36.0104C10.755 39.9611 16.3452 41.8394 23.9405 41.8394C26.8571 41.8394 30.989 41.5155 33.1765 40.6088C34.0271 40.2202 34.2702 39.9611 34.5133 39.0544C34.9994 37.2409 35.607 32.5777 35.607 31.9948C35.607 31.2824 35.3032 31.1528 35.1209 31.1528C34.6348 31.1528 34.574 31.4767 34.3917 32.2539C34.2094 33.2254 33.541 34.715 32.6904 35.7513C30.6244 38.2772 27.8293 38.7306 23.3329 38.7306C16.892 38.6658 7.29153 32.6425 7.29153 19.7539C7.29153 13.4067 8.8106 9.06736 11.9703 6.02332C14.34 3.75648 17.3782 2.72021 21.5708 2.72021C26.0065 2.72021 30.1383 4.01554 31.9005 6.02332C33.1157 7.31865 33.8449 9.13212 33.9056 10.8808C33.9056 11.5933 34.0271 12.1114 34.4525 12.1114C34.9386 12.1114 35.0601 11.658 35.1209 10.8161L35.1816 8.16062L35.2424 5.05181L35.4855 2.13731C35.4855 1.81347 35.3639 1.48964 34.6955 1.42487L32.2043 0.971503L29.5915 0.518135C27.404 0.259067 25.4596 0 22.1784 0C15.1907 0 10.0259 1.81347 6.01551 5.63472Z" fill="#E2231A"></path></svg> 