<svg width="64" height="65" viewBox="0 0 64 65" fill="none" xmlns="http://www.w3.org/2000/svg">
<path d="M46.8146 14.5C41.4396 14.5 37.7524 19.5221 34.7879 23.9982L33.964 20.4287C33.9345 20.3007 33.88 20.1798 33.8037 20.0729C33.7274 19.9659 33.6308 19.8751 33.5194 19.8055C33.408 19.7359 33.284 19.6889 33.1544 19.6672C33.0249 19.6456 32.8923 19.6496 32.7643 19.6792C32.6364 19.7088 32.5154 19.7632 32.4085 19.8395C32.3016 19.9158 32.2107 20.0124 32.1411 20.1238C32.0715 20.2352 32.0245 20.3593 32.0029 20.4888C31.9812 20.6184 31.9853 20.7509 32.0148 20.8789L33.3644 26.7251C33.4154 26.9452 33.5393 27.1416 33.7161 27.2823C33.8929 27.423 34.1121 27.4998 34.3381 27.5C34.4141 27.4999 34.49 27.4914 34.5641 27.4746L40.4103 26.125C40.6685 26.065 40.8924 25.905 41.0327 25.6801C41.173 25.4552 41.2183 25.1838 41.1587 24.9256C41.099 24.6673 40.9393 24.4432 40.7146 24.3027C40.4898 24.1621 40.2185 24.1164 39.9601 24.1758L36.5469 24.964C39.2281 20.9287 42.519 16.5 46.8146 16.5C51.8796 16.5 56.0002 23.6777 56.0002 32.5C56.0002 41.3223 51.8796 48.5 46.8146 48.5C42.5251 48.5 39.2145 42.834 35.0231 35.6602C34.3303 34.4741 33.612 33.2442 32.8581 31.9858C32.1081 30.7344 31.3933 29.5107 30.7038 28.331C26.1892 20.6035 22.6227 14.5 17.1852 14.5C10.9133 14.5 6.00018 22.4067 6.00018 32.5C6.00018 42.5933 10.9133 50.5 17.1852 50.5C22.7014 50.5 25.2468 46.0503 28.4699 40.417C28.9133 39.6421 29.3742 38.8364 29.862 38.0068C29.9964 37.7783 30.0345 37.5057 29.968 37.249C29.9014 36.9923 29.7356 36.7726 29.507 36.6382C29.2785 36.5038 29.0058 36.4657 28.7492 36.5322C28.4925 36.5988 28.2728 36.7646 28.1384 36.9932C27.6462 37.8296 27.1813 38.6421 26.7341 39.4238C23.6071 44.8892 21.5412 48.5 17.1852 48.5C12.1208 48.5 8.00018 41.3223 8.00018 32.5C8.00018 23.6777 12.1208 16.5 17.1852 16.5C21.4753 16.5 24.7858 22.166 28.9772 29.3398C29.6701 30.5259 30.3884 31.7558 31.1423 33.0142C31.8923 34.2656 32.6071 35.4893 33.2966 36.6689C37.8112 44.3965 41.3771 50.5 46.8146 50.5C53.0871 50.5 58.0002 42.5933 58.0002 32.5C58.0002 22.4067 53.0871 14.5 46.8146 14.5Z" fill="url(#paint0_linear_868_3045)"/>
<defs>
<linearGradient id="paint0_linear_868_3045" x1="32.0002" y1="14.5" x2="32.0002" y2="50.5" gradientUnits="userSpaceOnUse">
<stop stop-color="#00BCF5"/>
<stop offset="1" stop-color="#A875FC"/>
</linearGradient>
</defs>
</svg>
