<svg width="64" height="65" viewBox="0 0 64 65" fill="none" xmlns="http://www.w3.org/2000/svg">
<path d="M12.4463 29.028L13.1557 29.7174C13.346 29.9023 13.6018 30.004 13.8671 30.0002C14.1323 29.9964 14.3852 29.8874 14.57 29.6972C14.7549 29.5069 14.8566 29.251 14.8528 28.9858C14.849 28.7206 14.74 28.4677 14.5498 28.2829L13.8254 27.5792C12.9183 26.74 12.198 25.7192 11.7113 24.5832C11.2246 23.4473 10.9824 22.2217 11.0005 20.986C11.0367 18.4852 12.0609 16.1003 13.8496 14.3522C15.6013 12.5591 17.9847 11.5222 20.4907 11.463C21.7358 11.4401 22.9711 11.6863 24.1122 12.1848C25.2534 12.6833 26.2735 13.4222 27.1028 14.3512L42.2929 29.5412C42.4804 29.7287 42.7348 29.834 43 29.834C43.2652 29.834 43.5195 29.7287 43.707 29.5412C43.8945 29.3536 43.9999 29.0993 43.9999 28.8341C43.9999 28.5689 43.8945 28.3146 43.707 28.1271L28.5507 12.9723C27.5249 11.8518 26.2743 10.9601 24.8805 10.3554C23.4868 9.75072 21.9813 9.44665 20.4621 9.46303C17.4362 9.52835 14.556 10.7749 12.4372 12.9362C10.2756 15.0545 9.04001 17.9421 9.00046 20.9684C8.97803 22.4783 9.2732 23.976 9.86682 25.3644C10.4604 26.7528 11.3392 28.001 12.4463 29.028Z" fill="url(#paint0_linear_868_3015)"/>
<path d="M36.2075 15.0416L36.9719 14.2765C37.8405 13.3994 38.8739 12.7026 40.0127 12.2261C41.1514 11.7495 42.3731 11.5027 43.6075 11.4997C44.8419 11.4967 46.0648 11.7376 47.2058 12.2086C48.3469 12.6797 49.3836 13.3715 50.2565 14.2444C51.1294 15.1172 51.8212 16.154 52.2922 17.295C52.7632 18.436 53.0041 19.6589 53.0012 20.8933C52.9982 22.1278 52.7513 23.3494 52.2748 24.4882C51.7982 25.6269 51.1014 26.6603 50.2243 27.5289L34.9611 42.7931C34.868 42.8859 34.7941 42.9961 34.7436 43.1175C34.6931 43.2389 34.6671 43.3691 34.6669 43.5005C34.6668 43.632 34.6926 43.7622 34.7429 43.8837C34.7931 44.0052 34.8668 44.1156 34.9598 44.2085C35.0528 44.3015 35.1631 44.3752 35.2846 44.4255C35.4061 44.4757 35.5363 44.5015 35.6678 44.5014C35.7993 44.5013 35.9294 44.4752 36.0508 44.4247C36.1722 44.3742 36.2824 44.3003 36.3752 44.2072L51.6384 28.943C52.701 27.8886 53.545 26.6348 54.1218 25.2534C54.6987 23.8721 54.9971 22.3904 55 20.8934C55.0029 19.3965 54.7101 17.9137 54.1386 16.5301C53.567 15.1466 52.7279 13.8895 51.6694 12.831C50.6108 11.7725 49.3537 10.9335 47.9701 10.362C46.5865 9.79052 45.1037 9.49787 43.6067 9.50084C42.1098 9.50381 40.6281 9.80233 39.2468 10.3793C37.8655 10.9562 36.6117 11.8003 35.5573 12.8629L34.7924 13.6286C34.6994 13.7214 34.6256 13.8317 34.5752 13.9531C34.5248 14.0746 34.4988 14.2047 34.4988 14.3362C34.4988 14.4676 34.5247 14.5978 34.575 14.7192C34.6254 14.8407 34.6991 14.951 34.7922 15.0439C34.8852 15.1368 34.9956 15.2104 35.1171 15.2606C35.2386 15.3108 35.3688 15.3365 35.5003 15.3363C35.6317 15.3361 35.7619 15.3099 35.8832 15.2594C36.0046 15.2088 36.1148 15.1348 36.2075 15.0416Z" fill="url(#paint1_linear_868_3015)"/>
<path d="M27.7934 49.9611L27.0869 50.6666C26.2476 51.5583 25.2354 52.2695 24.112 52.7567C22.9886 53.244 21.7777 53.4971 20.5532 53.5006H20.5278C19.2818 53.494 18.0497 53.2388 16.9036 52.7499C15.7575 52.261 14.7206 51.5483 13.8535 50.6535C12.0718 48.8976 11.0478 46.5144 11.0005 44.0133C10.9855 42.7726 11.2315 41.5426 11.7224 40.4031C12.2134 39.2636 12.9383 38.2399 13.8503 37.3986L29.04 22.2072C29.2269 22.0195 29.3318 21.7654 29.3315 21.5005C29.3313 21.2357 29.2259 20.9817 29.0387 20.7945C28.8514 20.6072 28.5974 20.5018 28.3326 20.5016C28.0677 20.5013 27.8136 20.6062 27.6259 20.7931L12.458 35.9635C11.3491 36.9924 10.4684 38.2424 9.87287 39.6329C9.27731 41.0233 8.98011 42.5233 9.00048 44.0358C9.05258 47.0567 10.2846 49.9373 12.4331 52.0617C13.4856 53.1446 14.7437 54.0066 16.1337 54.5971C17.5236 55.1876 19.0174 55.4948 20.5276 55.5006H20.5586C22.0488 55.4981 23.5228 55.1922 24.8909 54.6016C26.259 54.0109 27.4926 53.1479 28.5163 52.0651L29.2065 51.3761C29.2998 51.2834 29.3739 51.1732 29.4246 51.0518C29.4752 50.9304 29.5014 50.8003 29.5017 50.6687C29.502 50.5372 29.4763 50.4069 29.4261 50.2854C29.3759 50.1638 29.3023 50.0533 29.2093 49.9602C29.1164 49.8671 29.006 49.7933 28.8845 49.743C28.763 49.6927 28.6327 49.6668 28.5012 49.6669C28.3697 49.6669 28.2395 49.693 28.118 49.7435C27.9965 49.7939 27.8863 49.8679 27.7934 49.9611Z" fill="url(#paint2_linear_868_3015)"/>
<path d="M50.8752 35.2941C50.7826 35.2006 50.6725 35.1262 50.5511 35.0754C50.4297 35.0245 50.2995 34.9982 50.1679 34.9977C50.0363 34.9973 49.9059 35.0229 49.7842 35.073C49.6625 35.1231 49.5519 35.1967 49.4587 35.2896C49.3655 35.3826 49.2916 35.493 49.2411 35.6145C49.1907 35.7361 49.1648 35.8664 49.1648 35.998C49.1649 36.1296 49.1909 36.2599 49.2414 36.3814C49.2919 36.503 49.366 36.6133 49.4592 36.7062L50.1499 37.3986C51.0422 38.2782 51.7493 39.3276 52.2296 40.4849C52.7099 41.6421 52.9536 42.8839 52.9463 44.1368C52.9395 45.3521 52.6895 46.5537 52.2109 47.6707C51.7323 48.7877 51.0348 49.7976 50.1596 50.6408C48.3894 52.4094 46.009 53.4328 43.5075 53.5006C42.2657 53.5269 41.0327 53.286 39.8921 52.794C38.7515 52.3021 37.7299 51.5708 36.8967 50.6496L21.7063 35.4953C21.5183 35.3087 21.2641 35.2043 20.9993 35.205C20.7345 35.2056 20.4808 35.3113 20.2937 35.4987C20.1067 35.6862 20.0017 35.9402 20.0017 36.205C20.0017 36.4698 20.1067 36.7238 20.2937 36.9113L35.4565 52.0368C36.4589 53.1338 37.6798 54.0089 39.0407 54.6057C40.4016 55.2025 41.8724 55.5079 43.3584 55.5021C43.4187 55.5021 43.4791 55.5016 43.5398 55.5006C46.5511 55.4253 49.4191 54.1992 51.5542 52.0744C52.6199 51.047 53.4691 49.8167 54.0517 48.4558C54.6343 47.095 54.9385 45.6313 54.9463 44.151C54.9563 42.6331 54.6623 41.1286 54.0816 39.7262C53.5008 38.3238 52.6451 37.0519 51.5649 35.9855L50.8752 35.2941Z" fill="url(#paint3_linear_868_3015)"/>
<defs>
<linearGradient id="paint0_linear_868_3015" x1="31.9996" y1="9.4624" x2="31.9996" y2="55.5022" gradientUnits="userSpaceOnUse">
<stop stop-color="#00BCF5"/>
<stop offset="1" stop-color="#A875FC"/>
</linearGradient>
<linearGradient id="paint1_linear_868_3015" x1="31.9996" y1="9.4624" x2="31.9996" y2="55.5022" gradientUnits="userSpaceOnUse">
<stop stop-color="#00BCF5"/>
<stop offset="1" stop-color="#A875FC"/>
</linearGradient>
<linearGradient id="paint2_linear_868_3015" x1="31.9996" y1="9.4624" x2="31.9996" y2="55.5022" gradientUnits="userSpaceOnUse">
<stop stop-color="#00BCF5"/>
<stop offset="1" stop-color="#A875FC"/>
</linearGradient>
<linearGradient id="paint3_linear_868_3015" x1="31.9996" y1="9.4624" x2="31.9996" y2="55.5022" gradientUnits="userSpaceOnUse">
<stop stop-color="#00BCF5"/>
<stop offset="1" stop-color="#A875FC"/>
</linearGradient>
</defs>
</svg>
