<svg width="64" height="65" viewBox="0 0 64 65" fill="none" xmlns="http://www.w3.org/2000/svg">
<path fill-rule="evenodd" clip-rule="evenodd" d="M17.476 25.0861C16.546 25.9926 15.2987 26.4999 14 26.4998C12.9263 26.4999 11.8811 26.1543 11.019 25.5142C10.157 24.8741 9.52393 23.9734 9.21351 22.9456C8.90309 21.9177 8.93181 20.8172 9.29542 19.807C9.65903 18.7967 10.3382 17.9303 11.2325 17.336C12.1267 16.7418 13.1885 16.4511 14.2608 16.5072C15.333 16.5633 16.3588 16.963 17.1862 17.6473C18.0136 18.3316 18.5987 19.2641 18.855 20.3068C19.1112 21.3495 19.025 22.447 18.6091 23.4369L21.8775 25.5636C22.6498 24.7429 23.6781 24.209 24.7938 24.0497C25.9094 23.8904 27.046 24.1151 28.0171 24.6869L33.9862 17.4685C33.4268 16.715 33.0905 15.8194 33.0158 14.8839C32.9412 13.9485 33.1311 13.0108 33.5638 12.1782C33.9966 11.3455 34.6548 10.6513 35.4633 10.1748C36.2718 9.69836 37.198 9.45887 38.1361 9.48368C39.0742 9.5085 39.9864 9.79663 40.7686 10.3152C41.5508 10.8337 42.1714 11.5617 42.5595 12.4161C42.9476 13.2705 43.0877 14.2169 42.9636 15.1471C42.8396 16.0773 42.4565 16.9539 41.858 17.6767L47.6306 24.5985C48.7171 24.0117 49.9826 23.8492 51.182 24.1424C52.3815 24.4355 53.4294 25.1635 54.1227 26.1852C54.816 27.2069 55.1054 28.4496 54.9347 29.6725C54.764 30.8954 54.1454 32.0113 53.1989 32.8042C52.2523 33.597 51.0451 34.0102 49.8112 33.9637C48.5774 33.9173 47.4047 33.4144 46.5204 32.5526C45.6362 31.6908 45.1033 30.5315 45.0251 29.2992C44.9469 28.067 45.3289 26.8496 46.0971 25.8829L40.3018 18.9338C39.553 19.326 38.7164 19.5203 37.8714 19.4981C37.0264 19.476 36.2011 19.2382 35.4739 18.8073L29.5074 26.0227C30.0262 26.7178 30.3551 27.536 30.4619 28.3967C30.5688 29.2575 30.4498 30.1312 30.1168 30.9321C29.7837 31.733 29.2481 32.4334 28.5624 32.9646C27.8767 33.4958 27.0646 33.8395 26.2059 33.9618C25.3473 34.0842 24.4715 33.981 23.6648 33.6625C22.858 33.344 22.148 32.821 21.6045 32.1451C21.061 31.4691 20.7028 30.6633 20.5649 29.807C20.4271 28.9507 20.5144 28.0732 20.8183 27.2608L17.476 25.0861ZM52.4944 30.6666C52.824 30.1732 53 29.5932 53 28.9998C52.9991 28.2045 52.6828 27.4419 52.1204 26.8795C51.5579 26.3171 50.7954 26.0007 50 25.9998C49.4067 25.9998 48.8266 26.1758 48.3333 26.5054C47.8399 26.8351 47.4554 27.3036 47.2284 27.8518C47.0013 28.4 46.9419 29.0032 47.0576 29.5851C47.1734 30.1671 47.4591 30.7016 47.8787 31.1212C48.2982 31.5407 48.8328 31.8264 49.4147 31.9422C49.9967 32.058 50.5999 31.9985 51.148 31.7715C51.6962 31.5444 52.1648 31.1599 52.4944 30.6666ZM39.6667 12.0054C39.1734 11.6758 38.5933 11.4998 38 11.4998C37.2046 11.5007 36.4421 11.8171 35.8796 12.3795C35.3172 12.9419 35.0009 13.7045 35 14.4998C35 15.0932 35.1759 15.6732 35.5056 16.1666C35.8352 16.6599 36.3038 17.0444 36.8519 17.2715C37.4001 17.4985 38.0033 17.558 38.5853 17.4422C39.1672 17.3264 39.7018 17.0407 40.1213 16.6212C40.5409 16.2016 40.8266 15.6671 40.9424 15.0851C41.0581 14.5032 40.9987 13.9 40.7716 13.3518C40.5446 12.8036 40.1601 12.3351 39.6667 12.0054ZM27.1667 26.5054C26.6734 26.1758 26.0933 25.9998 25.5 25.9998C24.7046 26.0007 23.9421 26.3171 23.3796 26.8795C22.8172 27.4419 22.5009 28.2045 22.5 28.9998C22.5 29.5932 22.6759 30.1732 23.0056 30.6666C23.3352 31.1599 23.8038 31.5444 24.3519 31.7715C24.9001 31.9985 25.5033 32.058 26.0853 31.9422C26.6672 31.8264 27.2018 31.5407 27.6213 31.1212C28.0409 30.7016 28.3266 30.1671 28.4424 29.5851C28.5581 29.0032 28.4987 28.4 28.2716 27.8518C28.0446 27.3036 27.6601 26.8351 27.1667 26.5054ZM15.6667 19.0054C15.1734 18.6758 14.5933 18.4998 14 18.4998C13.2046 18.5007 12.4421 18.8171 11.8796 19.3795C11.3172 19.9419 11.0009 20.7045 11 21.4998C11 22.0932 11.1759 22.6732 11.5056 23.1666C11.8352 23.6599 12.3038 24.0444 12.8519 24.2715C13.4001 24.4985 14.0033 24.558 14.5853 24.4422C15.1672 24.3264 15.7018 24.0407 16.1213 23.6212C16.5409 23.2016 16.8266 22.6671 16.9424 22.0851C17.0581 21.5032 16.9987 20.9 16.7716 20.3518C16.5446 19.8036 16.1601 19.3351 15.6667 19.0054ZM46.3162 37.8158C47.1576 36.9744 48.2984 36.5011 49.4883 36.4997C50.6782 36.5011 51.819 36.9744 52.6604 37.8158C53.5018 38.6572 53.9751 39.798 53.9766 40.9879V53.4997C53.9766 53.7649 53.8712 54.0192 53.6837 54.2068C53.4961 54.3943 53.2418 54.4997 52.9766 54.4997C52.7113 54.4997 52.457 54.3943 52.2695 54.2068C52.0819 54.0192 51.9766 53.7649 51.9766 53.4997V40.9879C51.9766 40.6612 51.9122 40.3376 51.7872 40.0357C51.6621 39.7338 51.4788 39.4595 51.2478 39.2285C51.0167 38.9974 50.7424 38.8141 50.4405 38.6891C50.1386 38.564 49.815 38.4997 49.4883 38.4997C49.1615 38.4997 48.8379 38.564 48.5361 38.6891C48.2342 38.8141 47.9599 38.9974 47.7288 39.2285C47.4977 39.4595 47.3145 39.7338 47.1894 40.0357C47.0644 40.3376 47 40.6612 47 40.9879V51.1549C47 52.0421 46.6476 52.8929 46.0203 53.5202C45.393 54.1475 44.5422 54.4999 43.655 54.4999C42.7679 54.4999 41.9171 54.1475 41.2898 53.5202C40.6625 52.8929 40.3101 52.0421 40.3101 51.1549V34.9879C40.3091 34.3286 40.0466 33.6966 39.58 33.2307C39.1135 32.7649 38.4811 32.5032 37.8218 32.5032C37.1625 32.5032 36.5301 32.7649 36.0635 33.2307C35.597 33.6966 35.3344 34.3286 35.3335 34.9879V51.1549C35.3335 52.0421 34.9811 52.893 34.3537 53.5204C33.7264 54.1477 32.8755 54.5002 31.9883 54.5002C31.1011 54.5002 30.2502 54.1477 29.6229 53.5204C28.9955 52.893 28.6431 52.0421 28.6431 51.1549V46.9879C28.6431 46.328 28.3809 45.6951 27.9143 45.2285C27.4476 44.7618 26.8147 44.4997 26.1548 44.4997C25.4949 44.4997 24.8619 44.7618 24.3953 45.2285C23.9287 45.6951 23.6665 46.328 23.6665 46.9879V51.1549C23.6654 52.0414 23.3125 52.8911 22.6853 53.5176C22.0582 54.144 21.208 54.4958 20.3215 54.4958C19.4351 54.4958 18.5849 54.144 17.9577 53.5176C17.3305 52.8911 16.9776 52.0414 16.9766 51.1549V40.9879C16.9766 40.328 16.7144 39.6951 16.2478 39.2285C15.7811 38.7618 15.1482 38.4997 14.4883 38.4997C13.8283 38.4997 13.1954 38.7618 12.7288 39.2285C12.2622 39.6951 12 40.328 12 40.9879V53.4997C12 53.7649 11.8946 54.0192 11.7071 54.2068C11.5196 54.3943 11.2652 54.4997 11 54.4997C10.7348 54.4997 10.4804 54.3943 10.2929 54.2068C10.1054 54.0192 10 53.7649 10 53.4997V40.9879C10 39.7976 10.4729 38.656 11.3146 37.8142C12.1563 36.9725 13.2979 36.4997 14.4883 36.4997C15.6786 36.4997 16.8203 36.9725 17.662 37.8142C18.5037 38.656 18.9766 39.7976 18.9766 40.9879V51.1549C18.9772 51.5112 19.1193 51.8526 19.3714 52.1043C19.6236 52.356 19.9653 52.4973 20.3215 52.4973C20.6778 52.4973 21.0195 52.356 21.2717 52.1043C21.5238 51.8526 21.6658 51.5112 21.6665 51.1549V46.9879C21.6665 45.7976 22.1394 44.656 22.9811 43.8142C23.8228 42.9725 24.9644 42.4997 26.1548 42.4997C27.3452 42.4997 28.4868 42.9725 29.3285 43.8142C30.1702 44.656 30.6431 45.7976 30.6431 46.9879V51.1549C30.6431 51.5117 30.7848 51.8539 31.0371 52.1062C31.2893 52.3584 31.6315 52.5002 31.9883 52.5002C32.3451 52.5002 32.6872 52.3584 32.9395 52.1062C33.1918 51.8539 33.3335 51.5117 33.3335 51.1549V34.9879C33.3348 33.7984 33.8082 32.658 34.6498 31.8173C35.4913 30.9766 36.6322 30.5044 37.8218 30.5044C39.0113 30.5044 40.1522 30.9766 40.9938 31.8173C41.8354 32.658 42.3088 33.7984 42.3101 34.9879V51.1549C42.3101 51.5117 42.4518 51.8537 42.704 52.106C42.9562 52.3582 43.2983 52.4999 43.655 52.4999C44.0117 52.4999 44.3538 52.3582 44.6061 52.106C44.8583 51.8537 45 51.5117 45 51.1549V40.9879C45.0014 39.798 45.4748 38.6572 46.3162 37.8158Z" fill="url(#paint0_linear_868_3075)"/>
<defs>
<linearGradient id="paint0_linear_868_3075" x1="31.9913" y1="9.48193" x2="31.9913" y2="54.5002" gradientUnits="userSpaceOnUse">
<stop stop-color="#00BCF5"/>
<stop offset="1" stop-color="#A875FC"/>
</linearGradient>
</defs>
</svg>
