<svg width="64" height="65" viewBox="0 0 64 65" fill="none" xmlns="http://www.w3.org/2000/svg">
<path fill-rule="evenodd" clip-rule="evenodd" d="M37.0001 34.5C36.505 34.5 34.0333 34.355 34.0001 31.4956V16.5C33.9993 15.7046 33.6829 14.9421 33.1205 14.3796C32.5581 13.8172 31.7955 13.5009 31.0001 13.5H9.00012C8.20474 13.5009 7.44218 13.8172 6.87976 14.3796C6.31734 14.9421 6.00099 15.7046 6.00012 16.5V48.5C6.00099 49.2954 6.31734 50.0579 6.87976 50.6204C7.44218 51.1828 8.20474 51.4991 9.00012 51.5H31.0001C31.7955 51.4991 32.5581 51.1828 33.1205 50.6204C33.6829 50.0579 33.9993 49.2954 34.0001 48.5V39.5C34.0001 39.2348 33.8948 38.9804 33.7072 38.7929C33.5197 38.6054 33.2653 38.5 33.0001 38.5C32.7349 38.5 32.4806 38.6054 32.293 38.7929C32.1055 38.9804 32.0001 39.2348 32.0001 39.5V48.5C31.9998 48.7651 31.8943 49.0193 31.7068 49.2067C31.5194 49.3942 31.2652 49.4997 31.0001 49.5H9.00012C8.73501 49.4997 8.48086 49.3942 8.2934 49.2067C8.10593 49.0193 8.00047 48.7651 8.00012 48.5V16.5C8.00047 16.2349 8.10593 15.9807 8.2934 15.7933C8.48086 15.6058 8.73501 15.5003 9.00012 15.5H31.0001C31.2652 15.5003 31.5194 15.6058 31.7068 15.7933C31.8943 15.9807 31.9998 16.2349 32.0001 16.5V31.5C32.0001 33.2295 33.045 36.5 37.0001 36.5H55.0001C55.2652 36.5003 55.5194 36.6058 55.7068 36.7933C55.8943 36.9807 55.9998 37.2349 56.0001 37.5V48.5C55.9998 48.7651 55.8943 49.0193 55.7068 49.2067C55.5194 49.3942 55.2652 49.4997 55.0001 49.5H53.0001C53.0159 48.6782 52.8253 47.8655 52.4458 47.1364C52.0663 46.4073 51.51 45.7849 50.8279 45.3263C51.3875 44.767 51.7686 44.0542 51.9231 43.2783C52.0776 42.5023 51.9985 41.6979 51.6958 40.9669C51.3931 40.2359 50.8804 39.6111 50.2226 39.1714C49.5648 38.7318 48.7913 38.4972 48.0001 38.4972C47.2089 38.4972 46.4355 38.7318 45.7777 39.1714C45.1198 39.6111 44.6071 40.2359 44.3044 40.9669C44.0017 41.6979 43.9226 42.5023 44.0771 43.2783C44.2316 44.0542 44.6128 44.767 45.1724 45.3263C44.4902 45.7849 43.934 46.4073 43.5545 47.1364C43.175 47.8655 42.9844 48.6782 43.0001 49.5H41.0001C40.735 49.4997 40.4809 49.3942 40.2934 49.2067C40.106 49.0193 40.0005 48.7651 40.0001 48.5V40.4858C40.0001 40.2206 39.8948 39.9663 39.7072 39.7787C39.5197 39.5912 39.2654 39.4858 39.0001 39.4858C38.7349 39.4858 38.4806 39.5912 38.293 39.7787C38.1055 39.9663 38.0001 40.2206 38.0001 40.4858V48.5C38.001 49.2954 38.3174 50.0579 38.8798 50.6204C39.4422 51.1828 40.2048 51.4991 41.0001 51.5H55.0001C55.7955 51.4991 56.5581 51.1828 57.1205 50.6204C57.6829 50.0579 57.9993 49.2954 58.0001 48.5V37.5C57.9993 36.7046 57.6829 35.9421 57.1205 35.3796C56.5581 34.8172 55.7955 34.5009 55.0001 34.5H37.0001ZM46.0001 42.5C46.0001 42.1044 46.1174 41.7178 46.3372 41.3889C46.5569 41.06 46.8693 40.8036 47.2348 40.6522C47.6002 40.5009 48.0023 40.4613 48.3903 40.5384C48.7783 40.6156 49.1346 40.8061 49.4143 41.0858C49.694 41.3655 49.8845 41.7219 49.9617 42.1098C50.0389 42.4978 49.9993 42.8999 49.8479 43.2654C49.6965 43.6308 49.4402 43.9432 49.1113 44.1629C48.7824 44.3827 48.3957 44.5 48.0001 44.5C47.4699 44.4995 46.9615 44.2886 46.5865 43.9136C46.2115 43.5387 46.0007 43.0303 46.0001 42.5ZM45.0001 49.5C45.0001 48.7044 45.3162 47.9413 45.8788 47.3787C46.4414 46.8161 47.2045 46.5 48.0001 46.5C48.7958 46.5 49.5588 46.8161 50.1214 47.3787C50.6841 47.9413 51.0001 48.7044 51.0001 49.5H45.0001ZM55.0001 13.5H41.0001C40.2047 13.5009 39.4422 13.8172 38.8798 14.3796C38.3173 14.9421 38.001 15.7046 38.0001 16.5V27.5C38.001 28.2954 38.3173 29.0579 38.8798 29.6204C39.4422 30.1828 40.2047 30.4991 41.0001 30.5H55.0001C55.7955 30.4991 56.5581 30.1828 57.1205 29.6204C57.6829 29.0579 57.9993 28.2954 58.0001 27.5V16.5C57.9993 15.7046 57.6829 14.9421 57.1205 14.3796C56.5581 13.8172 55.7955 13.5009 55.0001 13.5ZM45.0001 28.5C45.0001 27.7043 45.3162 26.9413 45.8788 26.3787C46.4414 25.8161 47.2045 25.5 48.0001 25.5C48.7958 25.5 49.5588 25.8161 50.1214 26.3787C50.6841 26.9413 51.0001 27.7043 51.0001 28.5H45.0001ZM46.0001 21.5C46.0001 21.1044 46.1174 20.7178 46.3372 20.3889C46.5569 20.06 46.8693 19.8036 47.2348 19.6522C47.6002 19.5009 48.0023 19.4613 48.3903 19.5384C48.7783 19.6156 49.1346 19.8061 49.4143 20.0858C49.694 20.3655 49.8845 20.7219 49.9617 21.1098C50.0389 21.4978 49.9993 21.8999 49.8479 22.2654C49.6965 22.6308 49.4402 22.9432 49.1113 23.1629C48.7824 23.3827 48.3957 23.5 48.0001 23.5C47.4699 23.4995 46.9615 23.2886 46.5865 22.9136C46.2115 22.5387 46.0007 22.0303 46.0001 21.5ZM56.0001 27.5C55.9998 27.7651 55.8943 28.0193 55.7068 28.2067C55.5194 28.3942 55.2652 28.4997 55.0001 28.5H53.0001C53.0159 27.6782 52.8253 26.8655 52.4458 26.1364C52.0663 25.4073 51.51 24.7849 50.8279 24.3263C51.3875 23.767 51.7686 23.0542 51.9231 22.2783C52.0776 21.5023 51.9985 20.6979 51.6958 19.9669C51.3931 19.2359 50.8804 18.6111 50.2226 18.1714C49.5648 17.7318 48.7913 17.4972 48.0001 17.4972C47.2089 17.4972 46.4355 17.7318 45.7777 18.1714C45.1198 18.6111 44.6071 19.2359 44.3044 19.9669C44.0017 20.6979 43.9226 21.5023 44.0771 22.2783C44.2316 23.0542 44.6128 23.767 45.1724 24.3263C44.4902 24.7849 43.934 25.4073 43.5545 26.1364C43.175 26.8655 42.9844 27.6782 43.0001 28.5H41.0001C40.735 28.4997 40.4809 28.3942 40.2934 28.2067C40.106 28.0193 40.0005 27.7651 40.0001 27.5V16.5C40.0005 16.2349 40.106 15.9807 40.2934 15.7933C40.4809 15.6058 40.735 15.5003 41.0001 15.5H55.0001C55.2653 15.5003 55.5194 15.6058 55.7069 15.7933C55.8943 15.9807 55.9998 16.2349 56.0001 16.5L56.0001 27.5ZM14.8317 40.6846C12.3678 39.7462 12.0001 38.2867 12.0001 37.5001C12.0001 34.999 13.7633 32.3709 16.6171 31.171C15.8756 30.4897 15.3572 29.6004 15.1296 28.6196C14.9019 27.6387 14.9757 26.612 15.3413 25.6738C15.7069 24.7357 16.3473 23.9297 17.1785 23.3615C18.0098 22.7933 18.9932 22.4893 20.0001 22.4893C21.007 22.4893 21.9905 22.7933 22.8217 23.3615C23.653 23.9297 24.2933 24.7357 24.6589 25.6738C25.0245 26.612 25.0983 27.6387 24.8707 28.6196C24.6431 29.6004 24.1246 30.4897 23.3832 31.171C26.2369 32.3709 28.0001 34.999 28.0001 37.5001C28.0001 39.3453 25.9049 41.5001 20.0001 41.5001C18.2429 41.5324 16.4936 41.2564 14.8317 40.6846ZM17.5057 25.8334C17.1761 26.3267 17.0001 26.9067 17.0001 27.5001C17.001 28.2954 17.3173 29.058 17.8798 29.6204C18.4422 30.1828 19.2047 30.4992 20.0001 30.5001C20.5935 30.5001 21.1735 30.3241 21.6668 29.9945C22.1602 29.6648 22.5447 29.1963 22.7718 28.6481C22.9988 28.0999 23.0582 27.4967 22.9425 26.9148C22.8267 26.3328 22.541 25.7983 22.1214 25.3787C21.7019 24.9592 21.1673 24.6735 20.5854 24.5577C20.0035 24.442 19.4002 24.5014 18.8521 24.7284C18.3039 24.9555 17.8354 25.34 17.5057 25.8334ZM26.0001 37.5001C26.0001 35.1353 23.5363 32.5001 20.0001 32.5001C16.464 32.5001 14.0001 35.1353 14.0001 37.5001C14.0001 38.4659 16.4113 39.5001 20.0001 39.5001C23.589 39.5001 26.0001 38.4659 26.0001 37.5001Z" fill="url(#paint0_linear_868_3090)"/>
<defs>
<linearGradient id="paint0_linear_868_3090" x1="32.0001" y1="13.5" x2="32.0001" y2="51.5" gradientUnits="userSpaceOnUse">
<stop stop-color="#00BCF5"/>
<stop offset="1" stop-color="#A875FC"/>
</linearGradient>
</defs>
</svg>
