<svg width="64" height="65" viewBox="0 0 64 65" fill="none" xmlns="http://www.w3.org/2000/svg">
<path fill-rule="evenodd" clip-rule="evenodd" d="M21.0495 9.85801C24.8174 8.02677 28.9846 7.17011 33.1694 7.36648C37.3542 7.56285 41.4229 8.80597 45.0028 10.982C45.5798 11.3341 46.1398 11.7188 46.6891 12.1186C46.0199 12.6214 45.4747 13.2708 45.0953 14.017C44.7159 14.7631 44.5124 15.5863 44.5005 16.4233C44.4885 17.2603 44.6684 18.0889 45.0262 18.8456C45.3841 19.6023 45.9106 20.267 46.5652 20.7888C43.4304 22.0291 41.2277 24.9094 41.2277 28.2574C41.2277 29.2203 41.7675 30.5504 44.3388 31.4171C46.1751 31.973 48.0869 32.2394 50.0053 32.2066C54.0543 32.2066 58.7828 31.1724 58.7828 28.2574C58.7828 24.9069 56.5771 22.0246 53.4386 20.7857C54.4168 20.0075 55.1001 18.9188 55.3755 17.6996C55.651 16.4803 55.5021 15.2036 54.9536 14.0805C54.405 12.9573 53.4896 12.055 52.3586 11.5227C51.2276 10.9904 49.9489 10.86 48.7338 11.153C43.9749 7.37639 38.0752 5.32658 31.9999 5.33897C27.9007 5.32786 23.8539 6.25923 20.172 8.06114C20.0538 8.11862 19.9481 8.19884 19.8609 8.29722C19.7738 8.39559 19.7069 8.51019 19.664 8.63445C19.6212 8.75871 19.6033 8.8902 19.6113 9.02139C19.6193 9.15258 19.6532 9.2809 19.7108 9.39901C19.7685 9.51712 19.8489 9.6227 19.9474 9.7097C20.0459 9.79671 20.1606 9.86344 20.285 9.90607C20.4093 9.9487 20.5408 9.9664 20.672 9.95815C20.8032 9.94991 20.9314 9.91588 21.0495 9.85801ZM56.7829 28.2574C56.7829 29.0714 54.2045 30.2066 50.0053 30.2066C45.806 30.2066 43.2277 29.0714 43.2277 28.2574C43.2277 24.8829 46.2682 22.1378 50.0053 22.1378C53.7423 22.1378 56.7829 24.8829 56.7829 28.2574ZM53.4999 16.5001C53.4999 17.1923 53.2946 17.869 52.91 18.4446C52.5255 19.0202 51.9788 19.4688 51.3393 19.7337C50.6997 19.9986 49.996 20.0679 49.3171 19.9328C48.6381 19.7978 48.0145 19.4645 47.525 18.975C47.0355 18.4855 46.7022 17.8618 46.5672 17.1829C46.4321 16.504 46.5014 15.8002 46.7663 15.1607C47.0312 14.5212 47.4798 13.9745 48.0554 13.59C48.631 13.2054 49.3077 13.0001 49.9999 13.0001C50.9278 13.0012 51.8174 13.3703 52.4736 14.0264C53.1297 14.6826 53.4988 15.5722 53.4999 16.5001ZM57.9321 34.4832C57.6687 34.4516 57.4036 34.5258 57.195 34.6897C56.9864 34.8535 56.8514 35.0934 56.8198 35.3567C56.2754 39.901 54.4911 44.2078 51.6622 47.8055C48.8333 51.4032 45.0689 54.153 40.7813 55.7538C40.7813 55.7511 40.7815 55.7484 40.7818 55.7457C40.7829 55.7344 40.7856 55.7236 40.7856 55.7117C40.7856 52.3765 38.5988 49.5068 35.4832 48.2587C36.3632 47.5413 36.9996 46.5692 37.3051 45.4757C37.6106 44.3822 37.5703 43.221 37.1895 42.1513C36.8088 41.0817 36.1064 40.1561 35.1786 39.5016C34.2509 38.8471 33.1434 38.4957 32.008 38.4957C30.8726 38.4957 29.7651 38.8471 28.8374 39.5016C27.9096 40.1561 27.2072 41.0817 26.8265 42.1513C26.4457 43.221 26.4053 44.3822 26.7109 45.4757C27.0164 46.5692 27.6528 47.5413 28.5328 48.2587C25.4171 49.5068 23.2304 52.3765 23.2304 55.7117C23.2304 56.6746 23.7702 58.0047 26.3415 58.8714C28.1778 59.4273 30.0896 59.6937 32.008 59.6609C33.2089 59.6636 34.408 59.5669 35.593 59.3719C35.6373 59.3714 35.6816 59.3679 35.7255 59.3616C37.061 59.085 38.3741 58.7096 39.654 58.2386C44.7114 56.7517 49.2215 53.8138 52.6256 49.789C56.0298 45.7641 58.1785 40.829 58.8056 35.595C58.8213 35.4647 58.8111 35.3325 58.7757 35.2061C58.7402 35.0796 58.6803 34.9614 58.5991 34.8582C58.518 34.7549 58.4174 34.6687 58.3029 34.6043C58.1884 34.54 58.0624 34.4988 57.9321 34.4832ZM32.008 40.5003C32.7002 40.5003 33.3769 40.7056 33.9525 41.0902C34.5281 41.4747 34.9767 42.0214 35.2416 42.6609C35.5065 43.3004 35.5758 44.0042 35.4407 44.6831C35.3057 45.3621 34.9723 45.9857 34.4829 46.4752C33.9934 46.9647 33.3697 47.298 32.6908 47.433C32.0119 47.5681 31.3081 47.4988 30.6686 47.2339C30.0291 46.969 29.4824 46.5204 29.0978 45.9448C28.7133 45.3692 28.508 44.6925 28.508 44.0003C28.5091 43.0724 28.8782 42.1828 29.5343 41.5266C30.1905 40.8705 31.0801 40.5014 32.008 40.5003ZM25.2304 55.7117C25.2304 52.3372 28.2709 49.5921 32.008 49.5921C35.745 49.5921 38.7856 52.3372 38.7856 55.7117C38.7856 56.5257 36.2072 57.6609 32.008 57.6609C27.8088 57.6609 25.2304 56.5257 25.2304 55.7117ZM19.539 18.0088C19.2249 19.1043 18.5784 20.0751 17.6886 20.7872C20.8253 22.0267 23.0295 24.9081 23.0295 28.2573C23.0295 31.1723 18.301 32.2065 14.2519 32.2065C12.3335 32.2393 10.4218 31.9729 8.58541 31.417C8.04938 31.2433 7.53532 31.0081 7.05352 30.7159C7.01897 31.2556 6.99997 31.7978 6.99997 32.3388C7.01064 36.7015 8.15752 40.9861 10.3277 44.7708C12.4978 48.5554 15.6164 51.7095 19.3762 53.9223C19.4897 53.9886 19.5891 54.0766 19.6685 54.1814C19.748 54.2861 19.8061 54.4054 19.8394 54.5326C19.8727 54.6598 19.8806 54.7923 19.8626 54.9225C19.8447 55.0527 19.8012 55.1781 19.7347 55.2916C19.6683 55.405 19.5801 55.5042 19.4753 55.5835C19.3704 55.6628 19.251 55.7207 19.1237 55.7538C18.9965 55.7869 18.864 55.7945 18.7338 55.7764C18.6036 55.7582 18.4783 55.7146 18.365 55.6479C13.7533 52.9441 10.0464 48.9342 7.71276 44.1246C5.37907 39.315 4.52323 33.9217 5.25338 28.626C5.25802 28.5937 5.33712 28.062 5.47921 27.375C5.59397 26.8208 5.71677 26.3252 5.84421 25.9023C5.862 25.8454 5.88486 25.7901 5.91251 25.7373C6.32997 24.6106 6.98333 23.5861 7.82885 22.7324C8.67438 21.8787 9.69254 21.2155 10.8152 20.7872C9.92545 20.0751 9.27889 19.1043 8.96486 18.0088C8.65082 16.9133 8.68482 15.7474 9.06214 14.6721C9.43947 13.5968 10.1415 12.6652 11.0712 12.0062C12.0009 11.3471 13.1123 10.9932 14.2519 10.9932C15.3915 10.9932 16.5029 11.3471 17.4326 12.0062C18.3623 12.6652 19.0643 13.5968 19.4417 14.6721C19.819 15.7474 19.853 16.9133 19.539 18.0088ZM16.1964 13.5898C15.6208 13.2052 14.9441 13 14.2519 13C13.324 13.0011 12.4344 13.3702 11.7782 14.0263C11.1221 14.6824 10.753 15.5721 10.7519 16.5C10.7519 17.1922 10.9572 17.8689 11.3418 18.4445C11.7263 19.02 12.273 19.4686 12.9125 19.7336C13.5521 19.9985 14.2558 20.0678 14.9347 19.9327C15.6137 19.7977 16.2373 19.4643 16.7268 18.9748C17.2163 18.4854 17.5496 17.8617 17.6847 17.1828C17.8197 16.5039 17.7504 15.8001 17.4855 15.1606C17.2206 14.521 16.772 13.9744 16.1964 13.5898ZM7.47432 28.2573C7.47432 29.0713 10.0527 30.2065 14.2519 30.2065C18.4511 30.2065 21.0295 29.0713 21.0295 28.2573C21.0295 24.8828 17.989 22.1377 14.2519 22.1377C10.5148 22.1377 7.47432 24.8828 7.47432 28.2573Z" fill="url(#paint0_linear_868_3059)"/>
<defs>
<linearGradient id="paint0_linear_868_3059" x1="31.9063" y1="5.33887" x2="31.9063" y2="59.6636" gradientUnits="userSpaceOnUse">
<stop stop-color="#00BCF5"/>
<stop offset="1" stop-color="#A875FC"/>
</linearGradient>
</defs>
</svg>
