<svg width="64" height="65" viewBox="0 0 64 65" fill="none" xmlns="http://www.w3.org/2000/svg">
<path fill-rule="evenodd" clip-rule="evenodd" d="M24 10.5H54C55.3256 10.5015 56.5965 11.0288 57.5339 11.9661C58.4712 12.9035 58.9985 14.1744 59 15.5V37.5C58.9985 38.8256 58.4712 40.0965 57.5338 41.0338C56.5965 41.9712 55.3256 42.4985 54 42.5H38C37.7348 42.5 37.4804 42.3946 37.2929 42.2071C37.1054 42.0196 37 41.7652 37 41.5C37 41.2348 37.1054 40.9804 37.2929 40.7929C37.4804 40.6054 37.7348 40.5 38 40.5H54C54.7954 40.4991 55.5579 40.1828 56.1204 39.6204C56.6828 39.0579 56.9991 38.2954 57 37.5V15.5C56.9991 14.7046 56.6828 13.9421 56.1204 13.3796C55.5579 12.8172 54.7954 12.5009 54 12.5H24C23.7348 12.5 23.4804 12.3946 23.2929 12.2071C23.1054 12.0196 23 11.7652 23 11.5C23 11.2348 23.1054 10.9804 23.2929 10.7929C23.4804 10.6054 23.7348 10.5 24 10.5ZM30.5 31C28.57 31 27 32.7943 27 35V44.9608C24.2035 47.457 20.7405 49 18 49C15.0836 48.9967 12.2877 47.8367 10.2255 45.7745C8.16328 43.7123 7.0033 40.9164 7 38V28C7.00331 25.0836 8.1633 22.2877 10.2255 20.2255C12.2877 18.1633 15.0836 17.0033 18 17H20C22.6512 17.003 25.193 18.0575 27.0678 19.9322C28.9425 21.807 29.997 24.3488 30 27C30 27.2652 30.1054 27.5196 30.2929 27.7071C30.4804 27.8946 30.7348 28 31 28C31.2652 28 31.5196 27.8946 31.7071 27.7071C31.8946 27.5196 32 27.2652 32 27C31.9964 23.8185 30.731 20.7684 28.4813 18.5187C26.2316 16.269 23.1815 15.0036 20 15H18C14.5534 15.0039 11.249 16.3747 8.81188 18.8119C6.37474 21.249 5.00386 24.5534 5 28V38C5.00277 40.5657 5.76359 43.0734 7.18692 45.2081C8.61024 47.3429 10.6326 49.0094 13 49.9986V50V58C13 58.2652 13.1054 58.5196 13.2929 58.7071C13.4804 58.8946 13.7348 59 14 59C14.2652 59 14.5196 58.8946 14.7071 58.7071C14.8946 58.5196 15 58.2652 15 58V50.6465C15.9828 50.8807 16.9897 50.9993 18 51C21.2963 50.9318 24.4709 49.7419 27 47.6268V54C27 54.2652 27.1054 54.5196 27.2929 54.7071C27.4804 54.8946 27.7348 55 28 55C28.2652 55 28.5196 54.8946 28.7071 54.7071C28.8946 54.5196 29 54.2652 29 54V45.7887C29.0333 45.7536 29.0668 45.7187 29.1002 45.6839L29.1003 45.6838C29.1833 45.5972 29.2663 45.5107 29.3477 45.4207C32.2127 42.254 33.9934 38.2686 33.9986 35.0143C33.9986 35.0118 33.9989 35.0094 33.9993 35.0071C33.9996 35.0047 34 35.0023 34 34.9998C34 32.7943 32.4295 31 30.5 31ZM29 42.8585V35C29 33.916 29.687 33.0005 30.5 33.0005C31.3116 33.0005 31.9972 33.913 31.9996 34.9945L31.9988 35C31.9237 37.8846 30.8657 40.6571 29 42.8585ZM18 31.5C18.8284 31.5 19.5 30.8284 19.5 30C19.5 29.1716 18.8284 28.5 18 28.5C17.1716 28.5 16.5 29.1716 16.5 30C16.5 30.8284 17.1716 31.5 18 31.5ZM12.9783 29.7709C13.0069 29.9002 13.0096 30.0338 12.9862 30.1641L12.2779 34.4177C12.2659 34.4893 12.2696 34.5627 12.2889 34.6327C12.3082 34.7028 12.3425 34.7678 12.3894 34.8232C12.4364 34.8786 12.4948 34.9231 12.5607 34.9536C12.6267 34.9841 12.6984 34.9998 12.771 34.9997H14C14.2653 34.9997 14.5196 35.1051 14.7072 35.2926C14.8947 35.4801 15 35.7345 15 35.9997C15 36.2649 14.8947 36.5193 14.7072 36.7068C14.5196 36.8944 14.2653 36.9997 14 36.9997H12.7708C12.4077 36.9998 12.0488 36.9208 11.7193 36.7681C11.3897 36.6154 11.0974 36.3928 10.8627 36.1156C10.628 35.8384 10.4565 35.5135 10.3602 35.1633C10.2639 34.8131 10.2451 34.4461 10.305 34.0879L11.0135 29.8355C11.0336 29.7046 11.0795 29.5791 11.1485 29.4661C11.2175 29.3531 11.3083 29.2549 11.4155 29.1773C11.5228 29.0997 11.6443 29.0441 11.7732 29.0138C11.9021 28.9835 12.0357 28.9791 12.1663 29.0009C12.2969 29.0227 12.4218 29.0701 12.5339 29.1406C12.646 29.211 12.743 29.303 12.8193 29.4112C12.8956 29.5194 12.9496 29.6417 12.9783 29.7709ZM54 20.5C54 19.5111 53.7068 18.5444 53.1573 17.7222C52.6079 16.8999 51.827 16.259 50.9134 15.8806C49.9998 15.5022 48.9945 15.4031 48.0245 15.5961C47.0546 15.789 46.1637 16.2652 45.4645 16.9645C44.7652 17.6637 44.289 18.5546 44.0961 19.5246C43.9031 20.4945 44.0022 21.4998 44.3806 22.4134C44.759 23.3271 45.3999 24.1079 46.2221 24.6574C47.0444 25.2068 48.0111 25.5 49 25.5C50.3256 25.4985 51.5965 24.9712 52.5339 24.0339C53.4712 23.0965 53.9985 21.8256 54 20.5ZM46 20.5C46 19.9067 46.1759 19.3266 46.5056 18.8333C46.8352 18.3399 47.3038 17.9554 47.852 17.7284C48.4001 17.5013 49.0033 17.4419 49.5853 17.5576C50.1672 17.6734 50.7018 17.9591 51.1213 18.3787C51.5409 18.7982 51.8266 19.3328 51.9424 19.9147C52.0581 20.4967 51.9987 21.0999 51.7716 21.6481C51.5446 22.1962 51.1601 22.6648 50.6667 22.9944C50.1734 23.3241 49.5933 23.5 49 23.5C48.2046 23.4991 47.4421 23.1828 46.8796 22.6204C46.3172 22.0579 46.0009 21.2954 46 20.5Z" fill="url(#paint0_linear_868_3028)"/>
<defs>
<linearGradient id="paint0_linear_868_3028" x1="32" y1="10.5" x2="32" y2="59" gradientUnits="userSpaceOnUse">
<stop stop-color="#00BCF5"/>
<stop offset="1" stop-color="#A875FC"/>
</linearGradient>
</defs>
</svg>
