<svg width="40" height="40" viewBox="0 0 40 40" fill="none" xmlns="http://www.w3.org/2000/svg">
<path fill-rule="evenodd" clip-rule="evenodd" d="M35.2067 30.9537C35.0206 31.2607 34.1893 32.8595 36.1434 34.1678C36.7114 34.5484 36.8168 34.9683 36.8053 35.2536C36.7902 35.4606 36.7185 35.6595 36.5981 35.8283C36.4777 35.9972 36.3132 36.1296 36.1226 36.211C35.5488 36.469 34.9229 36.5899 34.2944 36.5641C32.8665 36.5458 31.4651 36.1752 30.2142 35.4851C28.7706 36.1651 27.1997 36.5311 25.6048 36.559C24.0099 36.5869 22.4272 36.2761 20.9609 35.647C19.4945 35.0179 18.1777 34.0848 17.0973 32.9092C16.0168 31.7335 15.1971 30.342 14.6921 28.826C14.6401 28.6689 14.6525 28.4975 14.7265 28.3495C14.8006 28.2015 14.9302 28.089 15.0869 28.0366C15.2437 27.9842 15.4148 27.9963 15.5627 28.0701C15.7105 28.144 15.8231 28.2736 15.8758 28.4305C16.3329 29.7995 17.0783 31.054 18.0614 32.1093C19.0445 33.1646 20.2424 33.996 21.5741 34.5471C22.9058 35.0983 24.3401 35.3565 25.78 35.3041C27.2198 35.2517 28.6317 34.89 29.9199 34.2435C29.9291 34.2389 29.9385 34.2357 29.9479 34.2325C29.9538 34.2305 29.9597 34.2285 29.9655 34.2261C30.0606 34.1782 30.1664 34.1555 30.2728 34.1602C30.3792 34.165 30.4825 34.197 30.573 34.2533C32.4756 35.4407 34.6761 35.4407 35.4032 35.1755C33.051 33.5675 33.4997 31.3605 34.1409 30.304C35.0102 28.7539 35.4963 27.0178 35.5585 25.2408C35.5434 22.6088 34.5062 20.0861 32.6665 18.2072C30.8268 16.3282 28.3293 15.2407 25.703 15.1749C25.6053 16.9718 25.0838 18.7199 24.1811 20.2757C23.2785 21.8316 22.0205 23.1508 20.5103 24.1251C19.0002 25.0995 17.281 25.7012 15.4937 25.8808C13.7065 26.0605 11.9022 25.813 10.229 25.1587C8.05255 26.5302 5.50207 26.4084 4.3403 25.8628C3.64368 25.5353 3.46365 25.0998 3.43532 24.7922C3.4076 24.4938 3.49929 24.054 4.09388 23.656C5.92488 22.4299 5.23981 21.2937 5.0147 20.9205C3.73871 18.801 3.11914 16.763 3.11914 14.6875C3.13179 11.6957 4.32848 8.83095 6.44667 6.7219C8.56486 4.61285 11.4316 3.43169 14.4179 3.43755C16.7194 3.40636 18.9741 4.08973 20.8723 5.39382C22.7706 6.69792 24.2194 8.55877 25.0197 10.7209C25.0481 10.7979 25.0611 10.8797 25.058 10.9617C25.0548 11.0437 25.0355 11.1243 25.0013 11.1989C24.967 11.2734 24.9185 11.3405 24.8583 11.3963C24.7982 11.452 24.7277 11.4953 24.6509 11.5238C24.574 11.5522 24.4923 11.5653 24.4105 11.5621C24.3286 11.5589 24.2482 11.5396 24.1737 11.5053C24.0993 11.471 24.0324 11.4223 23.9767 11.3621C23.9211 11.3018 23.8778 11.2312 23.8494 11.1542C23.1362 9.23263 21.8466 7.57938 20.1579 6.4215C18.4691 5.26363 16.464 4.65792 14.4179 4.68755C11.7624 4.68132 9.21278 5.73066 7.32849 7.60537C5.44421 9.48008 4.37909 12.0271 4.36681 14.6875C4.36681 16.529 4.92759 18.3558 6.08144 20.2717C7.05253 21.883 6.58038 23.4943 4.78717 24.6955C5.41344 25.0419 7.74794 25.3559 9.74281 23.9832C9.83663 23.9067 9.94949 23.8572 10.0693 23.84C10.189 23.8229 10.3112 23.8387 10.4227 23.8858C11.953 24.5353 13.6196 24.7966 15.2748 24.6465C16.93 24.4965 18.5227 23.9397 19.9118 23.0256C21.3009 22.1115 22.4435 20.8683 23.2384 19.406C24.0334 17.9438 24.456 16.3077 24.469 14.6427L24.466 14.5655C24.4631 14.4814 24.4772 14.3976 24.5075 14.3191C24.5377 14.2406 24.5835 14.169 24.642 14.1086C24.7004 14.0479 24.7705 13.9998 24.848 13.9672C24.9256 13.9346 25.009 13.9182 25.0931 13.9191L25.4157 13.9209C28.4234 13.9125 31.3116 15.0995 33.4469 17.2216C35.5822 19.3437 36.7903 22.2276 36.8062 25.2408C36.7439 27.247 36.1949 29.2078 35.2067 30.9537ZM11.2289 14.6874C11.2289 15.2052 10.81 15.6249 10.2932 15.6249C9.77636 15.6249 9.3574 15.2052 9.3574 14.6874C9.3574 14.1697 9.77636 13.7499 10.2932 13.7499C10.81 13.7499 11.2289 14.1697 11.2289 14.6874ZM15.2838 14.6874C15.2838 15.2052 14.8649 15.6249 14.3481 15.6249C13.8313 15.6249 13.4123 15.2052 13.4123 14.6874C13.4123 14.1697 13.8313 13.7499 14.3481 13.7499C14.8649 13.7499 15.2838 14.1697 15.2838 14.6874ZM18.403 15.6249C18.9198 15.6249 19.3387 15.2052 19.3387 14.6874C19.3387 14.1697 18.9198 13.7499 18.403 13.7499C17.8862 13.7499 17.4672 14.1697 17.4672 14.6874C17.4672 15.2052 17.8862 15.6249 18.403 15.6249Z" fill="#8DFCAF"/>
</svg>
