<svg width="40" height="40" viewBox="0 0 40 40" fill="none" xmlns="http://www.w3.org/2000/svg">
<path fill-rule="evenodd" clip-rule="evenodd" d="M13.1314 5.84888C15.482 4.70435 18.0816 4.16894 20.6922 4.29167C23.3028 4.4144 25.841 5.19135 28.0743 6.55138C28.4342 6.77141 28.7836 7.01189 29.1263 7.26175C28.7088 7.57601 28.3687 7.98187 28.132 8.44823C27.8953 8.91459 27.7684 9.42905 27.7609 9.95218C27.7534 10.4753 27.8656 10.9932 28.0889 11.4661C28.3122 11.9391 28.6406 12.3545 29.0489 12.6806C27.0934 13.4558 25.7192 15.256 25.7192 17.3485C25.7192 17.9503 26.056 18.7816 27.66 19.3233C28.8056 19.6707 29.9982 19.8372 31.195 19.8168C33.7209 19.8168 36.6707 19.1704 36.6707 17.3485C36.6707 15.2545 35.2947 13.453 33.3368 12.6787C33.947 12.1923 34.3733 11.5119 34.5452 10.7498C34.717 9.98783 34.6241 9.18987 34.2819 8.4879C33.9397 7.78594 33.3686 7.22199 32.6631 6.88931C31.9576 6.55662 31.1598 6.47511 30.4018 6.65827C27.4331 4.29786 23.7526 3.01674 19.9626 3.02448C17.4054 3.01753 14.8809 3.59964 12.584 4.72583C12.5103 4.76176 12.4443 4.8119 12.3899 4.87338C12.3356 4.93487 12.2938 5.00649 12.2671 5.08415C12.2404 5.16182 12.2292 5.244 12.2342 5.32599C12.2392 5.40799 12.2603 5.48819 12.2963 5.562C12.3323 5.63582 12.3824 5.70181 12.4439 5.75619C12.5053 5.81056 12.5769 5.85227 12.6545 5.87891C12.732 5.90556 12.8141 5.91662 12.8959 5.91147C12.9777 5.90631 13.0578 5.88505 13.1314 5.84888ZM35.4231 17.3485C35.4231 17.8572 33.8146 18.5668 31.195 18.5668C28.5754 18.5668 26.9669 17.8572 26.9669 17.3485C26.9669 15.2394 28.8637 13.5237 31.195 13.5237C33.5263 13.5237 35.4231 15.2394 35.4231 17.3485ZM33.3751 10.0002C33.3751 10.4328 33.247 10.8558 33.0071 11.2155C32.7672 11.5752 32.4262 11.8556 32.0272 12.0212C31.6282 12.1867 31.1892 12.2301 30.7657 12.1456C30.3421 12.0612 29.9531 11.8529 29.6477 11.547C29.3424 11.241 29.1344 10.8513 29.0502 10.4269C28.9659 10.0026 29.0092 9.56277 29.1744 9.16306C29.3397 8.76335 29.6195 8.42171 29.9786 8.18134C30.3377 7.94098 30.7598 7.81268 31.1916 7.81268C31.7705 7.81336 32.3255 8.04404 32.7348 8.45413C33.1441 8.86422 33.3744 9.42023 33.3751 10.0002ZM36.14 21.2396C35.9757 21.2199 35.8103 21.2663 35.6802 21.3687C35.5501 21.471 35.4659 21.621 35.4461 21.7856C35.1065 24.6257 33.9934 27.3175 32.2286 29.566C30.4639 31.8146 28.1155 33.5333 25.4407 34.5338C25.4408 34.5294 25.4415 34.5252 25.4421 34.5211C25.4428 34.5166 25.4434 34.5122 25.4434 34.5075C25.4434 32.4229 24.0793 30.6294 22.1356 29.8493C22.6846 29.401 23.0816 28.7934 23.2722 28.1099C23.4628 27.4265 23.4376 26.7007 23.2001 26.0322C22.9626 25.3637 22.5244 24.7852 21.9456 24.3761C21.3669 23.9671 20.676 23.7474 19.9677 23.7474C19.2594 23.7474 18.5685 23.9671 17.9897 24.3761C17.411 24.7852 16.9728 25.3637 16.7353 26.0322C16.4978 26.7007 16.4726 27.4265 16.6632 28.1099C16.8537 28.7934 17.2508 29.401 17.7998 29.8493C15.8561 30.6294 14.4919 32.423 14.4919 34.5075C14.4919 35.1093 14.8287 35.9406 16.4327 36.4822C17.5783 36.8297 18.7709 36.9962 19.9677 36.9757C20.7169 36.9774 21.4649 36.917 22.2041 36.7951C22.2318 36.7947 22.2594 36.7926 22.2868 36.7886C23.1199 36.6158 23.9391 36.3811 24.7375 36.0867C27.8925 35.1574 30.706 33.3213 32.8297 30.8057C34.9533 28.2902 36.2937 25.2058 36.6849 21.9345C36.6947 21.853 36.6884 21.7704 36.6663 21.6914C36.6442 21.6124 36.6067 21.5385 36.5561 21.474C36.5055 21.4094 36.4427 21.3555 36.3713 21.3153C36.2999 21.2751 36.2213 21.2494 36.14 21.2396ZM19.9677 25.0003C20.3995 25.0003 20.8217 25.1286 21.1807 25.369C21.5398 25.6093 21.8196 25.951 21.9849 26.3507C22.1502 26.7504 22.1934 27.1902 22.1091 27.6146C22.0249 28.0389 21.8169 28.4287 21.5116 28.7346C21.2062 29.0405 20.8172 29.2489 20.3936 29.3333C19.9701 29.4177 19.5311 29.3744 19.1321 29.2088C18.7332 29.0432 18.3922 28.7629 18.1522 28.4031C17.9123 28.0434 17.7843 27.6205 17.7843 27.1878C17.7849 26.6079 18.0152 26.0518 18.4245 25.6418C18.8338 25.2317 19.3888 25.001 19.9677 25.0003ZM15.7396 34.5075C15.7396 32.3984 17.6364 30.6827 19.9677 30.6827C22.299 30.6827 24.1958 32.3984 24.1958 34.5075C24.1958 35.0162 22.5873 35.7257 19.9677 35.7257C17.3481 35.7257 15.7396 35.0162 15.7396 34.5075ZM12.1891 10.9431C11.9932 11.6278 11.5898 12.2346 11.0348 12.6796C12.9915 13.4543 14.3666 15.2552 14.3666 17.3484C14.3666 19.1703 11.4168 19.8167 8.89083 19.8167C7.69409 19.8372 6.50146 19.6707 5.35588 19.3232C5.02149 19.2147 4.7008 19.0677 4.40024 18.8851C4.37868 19.2224 4.36683 19.5613 4.36683 19.8994C4.37348 22.6261 5.08895 25.304 6.44276 27.6694C7.79657 30.0348 9.74203 32.006 12.0875 33.3891C12.1584 33.4305 12.2203 33.4855 12.2699 33.551C12.3195 33.6164 12.3557 33.691 12.3765 33.7705C12.3973 33.85 12.4022 33.9328 12.391 34.0142C12.3798 34.0956 12.3527 34.174 12.3112 34.2448C12.2698 34.3157 12.2147 34.3777 12.1493 34.4273C12.0839 34.4769 12.0094 34.513 11.93 34.5337C11.8507 34.5544 11.768 34.5592 11.6868 34.5479C11.6056 34.5365 11.5274 34.5092 11.4567 34.4676C8.57977 32.7777 6.26732 30.2715 4.81149 27.2655C3.35565 24.2595 2.82175 20.8887 3.27725 17.5788C3.28014 17.5587 3.32949 17.2263 3.41813 16.797C3.48972 16.4506 3.56633 16.1408 3.64583 15.8766C3.65693 15.841 3.67119 15.8064 3.68843 15.7734C3.94886 15.0692 4.35645 14.4289 4.88391 13.8954C5.41138 13.3618 6.04655 12.9473 6.74688 12.6796C6.19184 12.2346 5.7885 11.6278 5.59259 10.9431C5.39669 10.2585 5.41789 9.52973 5.65328 8.85767C5.88867 8.1856 6.32661 7.60338 6.90659 7.19149C7.48656 6.77959 8.17992 6.55835 8.89083 6.55835C9.60174 6.55835 10.2951 6.77959 10.8751 7.19149C11.455 7.60338 11.893 8.1856 12.1284 8.85767C12.3638 9.52973 12.385 10.2585 12.1891 10.9431ZM10.1039 8.18127C9.74481 7.9409 9.32267 7.81261 8.89083 7.81261C8.31196 7.81328 7.75699 8.04397 7.34766 8.45406C6.93834 8.86415 6.70809 9.42015 6.70741 10.0001C6.70741 10.4328 6.83547 10.8557 7.07538 11.2154C7.3153 11.5751 7.6563 11.8555 8.05527 12.0211C8.45424 12.1867 8.89325 12.23 9.31679 12.1456C9.74033 12.0612 10.1294 11.8528 10.4347 11.5469C10.7401 11.241 10.948 10.8512 11.0323 10.4269C11.1165 10.0025 11.0733 9.5627 10.908 9.16299C10.7428 8.76327 10.4629 8.42163 10.1039 8.18127ZM4.66274 17.3484C4.66274 17.8572 6.27122 18.5667 8.89083 18.5667C11.5104 18.5667 13.1189 17.8572 13.1189 17.3484C13.1189 15.2394 11.2221 13.5237 8.89083 13.5237C6.55951 13.5237 4.66274 15.2394 4.66274 17.3484Z" fill="#8DFCAF"/>
</svg>
