<svg width="40" height="40" viewBox="0 0 40 40" fill="none" xmlns="http://www.w3.org/2000/svg">
<path fill-rule="evenodd" clip-rule="evenodd" d="M10.6056 11.2501C11.3243 11.2491 12.0207 11 12.5774 10.5446C13.1341 10.0892 13.5171 9.45543 13.6619 8.75013H18.0916C18.257 8.75013 18.4157 8.68428 18.5327 8.56707C18.6497 8.44986 18.7154 8.29089 18.7154 8.12513C18.7154 7.95936 18.6497 7.80039 18.5327 7.68318C18.4157 7.56597 18.257 7.50013 18.0916 7.50013H13.6619C13.5438 6.92076 13.2642 6.38683 12.8553 5.96036C12.4465 5.53389 11.9253 5.23237 11.3522 5.09084C10.7792 4.94931 10.1778 4.97356 9.61798 5.16079C9.05815 5.34801 8.56281 5.69053 8.18953 6.14855C7.81624 6.60656 7.58031 7.16129 7.50915 7.74828C7.43799 8.33528 7.53452 8.93045 7.78752 9.46468C8.04052 9.9989 8.43962 10.4503 8.93844 10.7663C9.43727 11.0823 10.0154 11.2501 10.6056 11.2501ZM10.6056 6.25012C10.9757 6.25012 11.3376 6.36009 11.6453 6.56612C11.9531 6.77215 12.193 7.06498 12.3346 7.40759C12.4763 7.75021 12.5133 8.12721 12.4411 8.49092C12.3689 8.85463 12.1907 9.18873 11.9289 9.45095C11.6672 9.71317 11.3337 9.89175 10.9707 9.9641C10.6076 10.0364 10.2313 9.99931 9.88938 9.8574C9.5474 9.71549 9.25511 9.47516 9.04947 9.16682C8.84383 8.85848 8.73407 8.49597 8.73407 8.12513C8.73461 7.62801 8.93196 7.15141 9.28281 6.7999C9.63367 6.44839 10.1094 6.25067 10.6056 6.25012ZM15.5963 18.75H11.1665C11.0119 19.5088 10.5816 20.183 9.95904 20.642C9.33646 21.101 8.56594 21.312 7.79688 21.2342C7.02781 21.1563 6.31499 20.7952 5.79661 20.2207C5.27822 19.6463 4.99121 18.8994 4.99121 18.125C4.99121 17.3506 5.27822 16.6037 5.79661 16.0293C6.31499 15.4548 7.02781 15.0937 7.79688 15.0158C8.56594 14.938 9.33646 15.149 9.95904 15.608C10.5816 16.067 11.0119 16.7412 11.1665 17.5H15.5963C15.7617 17.5 15.9204 17.5659 16.0374 17.6831C16.1544 17.8003 16.2201 17.9592 16.2201 18.125C16.2201 18.2908 16.1544 18.4497 16.0374 18.5669C15.9204 18.6842 15.7617 18.75 15.5963 18.75ZM6.55415 17.0833C6.3485 17.3917 6.23874 17.7542 6.23874 18.125C6.23928 18.6221 6.43663 19.0987 6.78749 19.4502C7.13835 19.8017 7.61406 19.9995 8.11024 20C8.48039 20 8.84223 19.89 9.14999 19.684C9.45776 19.478 9.69764 19.1852 9.83929 18.8425C9.98094 18.4999 10.018 18.1229 9.94579 17.7592C9.87357 17.3955 9.69533 17.0614 9.4336 16.7992C9.17186 16.537 8.83839 16.3584 8.47536 16.286C8.11232 16.2137 7.73602 16.2508 7.39405 16.3927C7.05208 16.5346 6.75979 16.775 6.55415 17.0833ZM27.6887 17.1878C28.2055 17.1878 28.6245 16.7681 28.6245 16.2503C28.6245 15.7325 28.2055 15.3128 27.6887 15.3128C27.1719 15.3128 26.753 15.7325 26.753 16.2503C26.753 16.7681 27.1719 17.1878 27.6887 17.1878ZM18.0916 27.5H13.6619C13.5073 26.7412 13.077 26.067 12.4544 25.608C11.8318 25.149 11.0613 24.938 10.2922 25.0158C9.52315 25.0937 8.81033 25.4548 8.29194 26.0293C7.77356 26.6037 7.48655 27.3506 7.48655 28.125C7.48655 28.8994 7.77356 29.6463 8.29194 30.2207C8.81033 30.7952 9.52315 31.1563 10.2922 31.2342C11.0613 31.312 11.8318 31.101 12.4544 30.642C13.077 30.183 13.5073 29.5088 13.6619 28.75H18.0916C18.257 28.75 18.4157 28.6842 18.5327 28.5669C18.6497 28.4497 18.7154 28.2908 18.7154 28.125C18.7154 27.9592 18.6497 27.8003 18.5327 27.6831C18.4157 27.5659 18.257 27.5 18.0916 27.5ZM10.6056 30C10.2354 30 9.8736 29.89 9.56583 29.684C9.25806 29.478 9.01819 29.1852 8.87654 28.8425C8.73489 28.4999 8.69783 28.1229 8.77004 27.7592C8.84225 27.3955 9.02049 27.0614 9.28223 26.7992C9.54396 26.537 9.87743 26.3584 10.2405 26.286C10.6035 26.2137 10.9798 26.2508 11.3218 26.3927C11.6637 26.5346 11.956 26.775 12.1617 27.0833C12.3673 27.3917 12.4771 27.7542 12.4771 28.125C12.4765 28.6221 12.2792 29.0987 11.9283 29.4502C11.5775 29.8017 11.1018 29.9995 10.6056 30ZM31.2204 11.5045C32.738 13.995 33.9556 16.6569 34.848 19.4345C34.937 19.7155 34.9587 20.0135 34.9111 20.3045C34.8636 20.5954 34.7482 20.871 34.5743 21.1088C34.4005 21.3466 34.173 21.54 33.9105 21.6732C33.648 21.8064 33.3578 21.8756 33.0636 21.8753H32.4398C32.2744 21.8755 32.1158 21.9414 31.9989 22.0586C31.8819 22.1758 31.8161 22.3346 31.8159 22.5003V25C31.8142 26.4913 31.2221 27.921 30.1696 28.9756C29.117 30.0301 27.6899 30.6233 26.2014 30.625H24.3299C24.1645 30.6252 24.006 30.6911 23.889 30.8083C23.7721 30.9255 23.7063 31.0843 23.7061 31.25V33.75C23.7061 33.9158 23.6404 34.0747 23.5234 34.1919C23.4064 34.3091 23.2477 34.375 23.0822 34.375C22.9168 34.375 22.7581 34.3091 22.6411 34.1919C22.5241 34.0747 22.4584 33.9158 22.4584 33.75V31.25C22.459 30.7529 22.6563 30.2763 23.0072 29.9248C23.358 29.5733 23.8337 29.3755 24.3299 29.375H26.2014C27.3592 29.3737 28.4691 28.9123 29.2878 28.0921C30.1065 27.272 30.567 26.1599 30.5683 25V22.5003C30.5688 22.0032 30.7661 21.5266 31.117 21.1751C31.4679 20.8236 31.9436 20.6258 32.4398 20.6253H33.0636C33.1616 20.6256 33.2582 20.6026 33.3457 20.5584C33.4332 20.5142 33.509 20.45 33.567 20.3709C33.625 20.2918 33.6636 20.2001 33.6796 20.1032C33.6956 20.0064 33.6886 19.9071 33.6591 19.8135C32.3054 15.5545 28.6136 7.5 24.3299 7.5H23.7061C23.2099 7.50054 22.7342 7.69826 22.3833 8.04977C22.0325 8.40129 21.8351 8.87789 21.8346 9.375V14.4506C23.2565 14.799 24.3299 16.3139 24.3299 18.125C24.3299 19.9239 23.2705 21.4295 21.8629 21.7912C21.9864 23.0252 22.5446 24.1748 23.4374 25.0339C23.8721 24.6771 25.1213 23.75 26.3574 23.75C27.6885 23.75 28.3848 24.6933 28.3848 25.625C28.3862 25.8665 28.3397 26.1058 28.2481 26.3292C28.1565 26.5526 28.0216 26.7555 27.8512 26.9263C27.6537 27.1179 27.4195 27.2675 27.1628 27.3661C26.9061 27.4647 26.6321 27.5102 26.3574 27.5C23.4018 27.5 20.8828 24.9438 20.6138 21.8044C19.1787 21.4684 18.0916 19.9473 18.0916 18.125C18.0916 16.3139 19.165 14.799 20.5869 14.4506V9.375C20.5879 8.5465 20.9168 7.75221 21.5016 7.16637C22.0863 6.58053 22.8791 6.25097 23.7061 6.25H24.3299C26.7013 6.25 29.0196 8.01789 31.2204 11.5045ZM27.1372 25.625C27.1372 25.3229 26.9322 25 26.3574 25C25.7408 25 24.9851 25.4425 24.5005 25.7925C25.0742 26.0911 25.7109 26.248 26.3574 26.25C26.9322 26.25 27.1372 25.9271 27.1372 25.625ZM21.2107 20.625C22.2427 20.625 23.0822 19.5035 23.0822 18.125C23.0822 16.7465 22.2427 15.625 21.2107 15.625C20.1787 15.625 19.3392 16.7465 19.3392 18.125C19.3392 19.5035 20.1787 20.625 21.2107 20.625Z" fill="#8DFCAF"/>
</svg>
