<svg width="40" height="40" viewBox="0 0 40 40" fill="none" xmlns="http://www.w3.org/2000/svg">
<path fill-rule="evenodd" clip-rule="evenodd" d="M8.29245 27.5576C8.40944 27.4404 8.56811 27.3746 8.73356 27.3746C8.899 27.3746 9.05767 27.4404 9.17466 27.5576C9.29165 27.6748 9.35738 27.8338 9.35739 27.9996V31.7496C9.35738 31.9153 9.29166 32.0743 9.17467 32.1915C9.05768 32.3087 8.89901 32.3746 8.73356 32.3746H4.99055C4.8251 32.3746 4.66643 32.3087 4.54944 32.1915C4.43245 32.0743 4.36672 31.9153 4.36672 31.7496C4.36672 31.5838 4.43245 31.4248 4.54944 31.3076C4.66643 31.1904 4.8251 31.1246 4.99055 31.1246H7.30209C4.49809 27.9496 3.00535 23.8245 3.12701 19.5869C3.24867 15.3493 4.9756 11.3169 7.95712 8.30871C9.56499 6.67502 11.4794 5.376 13.5903 4.48637C15.7012 3.59675 17.9668 3.13408 20.2568 3.125H20.5864C20.7518 3.125 20.9105 3.19085 21.0275 3.30806C21.1445 3.42527 21.2102 3.58424 21.2102 3.75C21.2102 3.91576 21.1445 4.07473 21.0275 4.19194C20.9105 4.30915 20.7518 4.375 20.5864 4.375H20.2568C18.1322 4.38366 16.0303 4.81313 14.0721 5.6387C12.1138 6.46428 10.3378 7.66966 8.84626 9.18549C6.10998 11.9452 4.51406 15.6378 4.37751 19.5253C4.24096 23.4128 5.57384 27.2087 8.10972 30.1543V27.9996C8.10973 27.8338 8.17546 27.6749 8.29245 27.5576ZM35.9751 10H33.5266C35.6599 12.9025 36.8092 16.4132 36.8064 20.0177C36.7967 29.3127 29.1193 36.875 19.6927 36.875H19.3387C19.1733 36.875 19.0146 36.8091 18.8976 36.6919C18.7806 36.5747 18.7149 36.4158 18.7149 36.25C18.7149 36.0842 18.7806 35.9253 18.8976 35.8081C19.0146 35.6908 19.1733 35.625 19.3387 35.625H19.6927C28.4321 35.625 35.5496 28.623 35.5587 20.0165C35.5608 16.8771 34.619 13.8098 32.8559 11.2144V13.125C32.8559 13.2908 32.7902 13.4497 32.6732 13.5669C32.5562 13.6842 32.3976 13.75 32.2321 13.75C32.0667 13.75 31.908 13.6842 31.791 13.5669C31.674 13.4497 31.6083 13.2908 31.6083 13.125V9.375C31.6083 9.20924 31.674 9.05028 31.791 8.93307C31.908 8.81586 32.0667 8.75001 32.2321 8.75H35.9751C36.1406 8.75 36.2992 8.81585 36.4162 8.93306C36.5332 9.05027 36.599 9.20924 36.599 9.375C36.599 9.54076 36.5332 9.69973 36.4162 9.81694C36.2992 9.93415 36.1406 10 35.9751 10ZM19.9626 16.875C19.3457 16.875 18.7426 17.0583 18.2297 17.4017C17.7167 17.745 17.3169 18.2331 17.0808 18.8041C16.8447 19.3751 16.783 20.0035 16.9033 20.6097C17.0237 21.2158 17.3208 21.7727 17.757 22.2097C18.1932 22.6467 18.749 22.9444 19.354 23.065C19.9591 23.1855 20.5863 23.1236 21.1562 22.8871C21.7262 22.6506 22.2133 22.2501 22.5561 21.7362C22.8988 21.2223 23.0817 20.6181 23.0817 20C23.0808 19.1715 22.7518 18.3772 22.1671 17.7914C21.5823 17.2055 20.7895 16.876 19.9626 16.875ZM19.9626 21.875C19.5924 21.875 19.2306 21.765 18.9228 21.559C18.6151 21.353 18.3752 21.0601 18.2335 20.7175C18.0919 20.3749 18.0548 19.9979 18.127 19.6342C18.1992 19.2705 18.3775 18.9364 18.6392 18.6742C18.901 18.412 19.2344 18.2334 19.5975 18.161C19.9605 18.0887 20.3368 18.1258 20.6788 18.2677C21.0207 18.4096 21.313 18.65 21.5187 18.9583C21.7243 19.2666 21.8341 19.6292 21.8341 20C21.8335 20.4971 21.6362 20.9737 21.2853 21.3252C20.9345 21.6767 20.4588 21.8745 19.9626 21.875ZM20.7658 28.6121C20.5532 28.702 20.3249 28.7489 20.0941 28.75L19.8313 28.75C19.3699 28.7495 18.9276 28.5657 18.6014 28.2389C18.2751 27.9122 18.0916 27.469 18.0911 27.0068C18.0973 26.9015 18.0697 26.797 18.0122 26.7086C17.9546 26.6203 17.8703 26.5528 17.7715 26.5161C17.4798 26.4171 17.1951 26.2985 16.9192 26.1612C16.8281 26.1169 16.7254 26.1024 16.6256 26.1197C16.5258 26.137 16.434 26.1852 16.363 26.2576L16.3438 26.2772C16.0174 26.6047 15.5746 26.789 15.1126 26.7896C14.6507 26.7901 14.2074 26.6069 13.8802 26.2802L13.6944 26.0944C13.5327 25.9325 13.4045 25.7403 13.317 25.5288C13.2295 25.3172 13.1845 25.0905 13.1845 24.8615C13.1844 24.6326 13.2294 24.4058 13.3169 24.1943C13.4043 23.9827 13.5325 23.7905 13.6941 23.6286L13.7169 23.606C13.7891 23.5349 13.8372 23.4429 13.8545 23.343C13.8718 23.2431 13.8573 23.1403 13.8132 23.049C13.6758 22.7727 13.5574 22.4873 13.4589 22.1948C13.4253 22.1001 13.363 22.0183 13.2806 21.9609C13.1982 21.9035 13.0999 21.8735 12.9996 21.875C12.7688 21.8779 12.5398 21.835 12.3257 21.7488C12.1115 21.6626 11.9166 21.5348 11.752 21.3728C11.5874 21.2108 11.4564 21.0177 11.3666 20.8047C11.2769 20.5917 11.23 20.363 11.2289 20.1318V19.8682C11.2294 19.406 11.413 18.9629 11.7392 18.6361C12.0655 18.3093 12.5078 18.1255 12.9691 18.125C13.0743 18.1311 13.1787 18.1033 13.2669 18.0455C13.3551 17.9878 13.4225 17.9032 13.4592 17.8043C13.5577 17.5119 13.6759 17.2266 13.8131 16.9504C13.8573 16.8592 13.8717 16.7565 13.8545 16.6567C13.8372 16.5568 13.7891 16.465 13.7169 16.394L13.694 16.3711C13.3682 16.044 13.1853 15.6007 13.1853 15.1385C13.1853 14.6764 13.3682 14.2331 13.694 13.9059L13.8805 13.7195C14.207 13.3931 14.6494 13.2099 15.1107 13.2099C15.5719 13.21 16.0143 13.3933 16.3408 13.7198C16.4114 13.7962 16.5046 13.848 16.6067 13.8675C16.7088 13.887 16.8145 13.8732 16.9083 13.8281C17.1713 13.6873 17.4451 13.5675 17.727 13.4698C17.8302 13.4391 17.9209 13.3764 17.9863 13.2908C18.0517 13.2051 18.0884 13.1009 18.091 12.9932C18.0916 12.531 18.2751 12.0879 18.6014 11.7611C18.9276 11.4343 19.3699 11.2505 19.8313 11.25H20.0941C20.5554 11.2505 20.9977 11.4343 21.3239 11.7611C21.6501 12.0879 21.8336 12.531 21.834 12.9932C21.8279 13.0986 21.8557 13.2031 21.9134 13.2915C21.971 13.3799 22.0554 13.4474 22.1542 13.4842C22.4458 13.583 22.7305 13.7015 23.0062 13.8388C23.0971 13.8831 23.1997 13.8976 23.2993 13.8803C23.399 13.863 23.4907 13.8147 23.5615 13.7424L23.5877 13.7167C23.9144 13.3915 24.3565 13.2091 24.8171 13.2097C25.2777 13.2103 25.7193 13.3937 26.0452 13.7198L26.231 13.9056C26.557 14.2328 26.74 14.6761 26.7401 15.1383C26.7401 15.6006 26.5572 16.0439 26.2314 16.3712L26.2085 16.3941C26.1363 16.465 26.0882 16.5569 26.0709 16.6567C26.0537 16.7565 26.0681 16.8592 26.1123 16.9504C26.2492 17.2267 26.3675 17.512 26.4662 17.8043C26.4997 17.8992 26.5621 17.9812 26.6445 18.0387C26.727 18.0963 26.8254 18.1264 26.9259 18.125C27.1566 18.1221 27.3856 18.165 27.5997 18.2512C27.8138 18.3374 28.0088 18.4652 28.1734 18.6272C28.3379 18.7893 28.4689 18.9824 28.5586 19.1953C28.6483 19.4083 28.6951 19.637 28.6962 19.8682V20.1318C28.6957 20.594 28.5123 21.0371 28.1861 21.3639C27.8599 21.6907 27.4176 21.8745 26.9563 21.875C26.8512 21.8688 26.7468 21.8966 26.6586 21.9543C26.5703 22.012 26.5029 22.0965 26.4662 22.1954C26.3707 22.4781 26.257 22.7543 26.1257 23.0222C26.0525 23.1707 25.9235 23.2841 25.7669 23.3374C25.6104 23.3907 25.4391 23.3796 25.2908 23.3065C25.1424 23.2334 25.0291 23.1043 24.9757 22.9475C24.9223 22.7907 24.9331 22.6191 25.0059 22.4704C25.1133 22.2517 25.2063 22.0262 25.2843 21.7954C25.4013 21.4527 25.6226 21.1554 25.9171 20.9455C26.2116 20.7355 26.5644 20.6234 26.9259 20.625C26.9927 20.628 27.0596 20.6176 27.1223 20.5942C27.1851 20.5709 27.2426 20.5352 27.2913 20.4892C27.3401 20.4432 27.3791 20.3879 27.4061 20.3265C27.4331 20.2651 27.4476 20.1989 27.4486 20.1318V19.8682C27.4484 19.7374 27.3965 19.6121 27.3042 19.5196C27.2119 19.4272 27.0868 19.3752 26.9563 19.375C26.5901 19.3815 26.2311 19.2718 25.9308 19.0616C25.6305 18.8514 25.4043 18.5514 25.2843 18.2047C25.2036 17.9659 25.107 17.7328 24.995 17.507C24.8343 17.1814 24.7798 16.8134 24.8393 16.4551C24.8988 16.0968 25.0692 15.7663 25.3264 15.5103L25.3492 15.4874C25.4414 15.3948 25.4931 15.2694 25.4931 15.1386C25.4931 15.0078 25.4414 14.8824 25.3492 14.7898L25.1634 14.6039C25.071 14.5115 24.9457 14.4596 24.8152 14.4596C24.6846 14.4595 24.5593 14.5113 24.4668 14.6036L24.4409 14.6292C24.1854 14.8861 23.8558 15.0561 23.4986 15.115C23.1415 15.174 22.7748 15.119 22.4506 14.9579C22.2252 14.846 21.9927 14.7493 21.7545 14.6683C21.4125 14.5511 21.1158 14.3294 20.9062 14.0344C20.6967 13.7393 20.5848 13.3858 20.5864 13.0237C20.5894 12.9567 20.5789 12.8897 20.5556 12.8269C20.5324 12.764 20.4967 12.7064 20.4508 12.6576C20.4049 12.6087 20.3497 12.5696 20.2884 12.5425C20.2271 12.5155 20.1611 12.501 20.0941 12.5H19.8313C19.7007 12.5001 19.5755 12.5521 19.4832 12.6445C19.3908 12.737 19.3389 12.8624 19.3387 12.9932C19.3351 13.3614 19.2168 13.7194 19.0002 14.0169C18.7836 14.3145 18.4795 14.5368 18.1306 14.6527C17.9104 14.7291 17.6966 14.823 17.4913 14.9335C17.1638 15.1014 16.7917 15.161 16.4283 15.1036C16.0649 15.0463 15.729 14.8749 15.469 14.6143C15.4235 14.5667 15.369 14.5287 15.3088 14.5024C15.2485 14.4761 15.1836 14.462 15.1179 14.461C15.0521 14.46 14.9869 14.4721 14.9258 14.4966C14.8648 14.5211 14.8092 14.5574 14.7623 14.6036L14.5759 14.7901C14.4838 14.8827 14.4322 15.0081 14.4322 15.1388C14.4323 15.2695 14.4841 15.3948 14.5762 15.4874L14.599 15.5103C14.8563 15.7663 15.0266 16.0968 15.0861 16.4551C15.1456 16.8134 15.0911 17.1814 14.9305 17.507C14.8183 17.7325 14.7217 17.9654 14.6414 18.2041C14.5245 18.5469 14.3032 18.8442 14.0086 19.0543C13.7141 19.2644 13.3611 19.3766 12.9996 19.375C12.9326 19.372 12.8658 19.3824 12.803 19.4057C12.7402 19.429 12.6827 19.4648 12.6339 19.5108C12.5851 19.5567 12.5461 19.6121 12.519 19.6735C12.492 19.7349 12.4776 19.8011 12.4765 19.8682V20.1319C12.4767 20.2626 12.5287 20.388 12.621 20.4805C12.7134 20.5729 12.8385 20.6249 12.9691 20.625C13.3353 20.6186 13.6942 20.7282 13.9945 20.9384C14.2948 21.1485 14.5211 21.4483 14.6411 21.7951C14.7216 22.0339 14.8182 22.267 14.9305 22.4927C15.0911 22.8184 15.1456 23.1864 15.0861 23.5448C15.0267 23.9031 14.8563 24.2337 14.599 24.4898L14.5762 24.5127C14.4839 24.6052 14.4321 24.7307 14.4321 24.8615C14.4321 24.9923 14.4839 25.1177 14.5762 25.2103L14.762 25.3961C14.8545 25.4885 14.9797 25.5404 15.1103 25.5405C15.2408 25.5405 15.3661 25.4887 15.4586 25.3964L15.4781 25.3766C15.7337 25.1179 16.0641 24.9464 16.4224 24.8863C16.7807 24.8262 17.1488 24.8806 17.4745 25.0418C17.6999 25.1539 17.9326 25.2507 18.1709 25.3317C18.5128 25.4488 18.8095 25.6705 19.0191 25.9655C19.2286 26.2605 19.3404 26.614 19.3387 26.976C19.3357 27.0431 19.3461 27.1101 19.3694 27.173C19.3927 27.236 19.4284 27.2936 19.4743 27.3424C19.5203 27.3913 19.5755 27.4304 19.6368 27.4575C19.6982 27.4846 19.7643 27.499 19.8313 27.5H20.0941C20.2246 27.4999 20.3498 27.4479 20.442 27.3554C20.5343 27.2629 20.5862 27.1376 20.5864 27.0069C20.5799 26.6398 20.6894 26.2801 20.8993 25.9792C21.1092 25.6783 21.4086 25.4516 21.7549 25.3314C21.9932 25.2506 22.2258 25.1538 22.4512 25.0418C22.7761 24.8807 23.1434 24.826 23.501 24.8855C23.8586 24.9451 24.1885 25.1158 24.4439 25.3736L24.4668 25.3964C24.5509 25.4807 24.6627 25.5316 24.7814 25.5397C24.9001 25.5478 25.0177 25.5127 25.1125 25.4407C25.1777 25.3909 25.2519 25.3544 25.3311 25.3333C25.4103 25.3123 25.4929 25.3071 25.5741 25.318C25.6553 25.3289 25.7336 25.3557 25.8044 25.3969C25.8753 25.4381 25.9373 25.4929 25.9871 25.5582C26.0368 25.6234 26.0732 25.6978 26.0942 25.7772C26.1152 25.8565 26.1204 25.9392 26.1095 26.0206C26.0987 26.102 26.0719 26.1804 26.0307 26.2514C25.9896 26.3223 25.9349 26.3845 25.8698 26.4343C25.5343 26.689 25.1184 26.8136 24.6985 26.7853C24.2785 26.757 23.883 26.5776 23.5846 26.2802L23.5618 26.2573C23.4911 26.185 23.3994 26.1367 23.2998 26.1194C23.2002 26.1021 23.0977 26.1166 23.0068 26.1609C22.7309 26.2983 22.4461 26.4169 22.1542 26.5158C22.0595 26.5493 21.9776 26.6117 21.9201 26.6943C21.8627 26.7768 21.8326 26.8754 21.8341 26.976C21.837 27.2072 21.7942 27.4367 21.7082 27.6512C21.6221 27.8658 21.4946 28.0611 21.3328 28.226C21.1711 28.3909 20.9784 28.5221 20.7658 28.6121Z" fill="#8DFCAF"/>
</svg>
