<svg width="40" height="40" viewBox="0 0 40 40" fill="none" xmlns="http://www.w3.org/2000/svg">
<path d="M33.0632 16.8755C32.3445 16.8765 31.6481 17.1257 31.0914 17.5811C30.5347 18.0365 30.1517 18.6702 30.007 19.3755H26.2011V15.6255C26.2006 15.4125 26.1637 15.2011 26.0919 15.0005H28.0726C28.5688 15 29.0445 14.8023 29.3953 14.4507C29.7462 14.0992 29.9435 13.6226 29.9441 13.1255V9.92164C30.6983 9.75124 31.3624 9.30635 31.8078 8.67323C32.2532 8.04011 32.448 7.26386 32.3546 6.49498C32.2612 5.72609 31.8862 5.01934 31.3022 4.51175C30.7182 4.00416 29.9669 3.73189 29.194 3.74772C28.421 3.76356 27.6815 4.06637 27.1187 4.59745C26.5559 5.12853 26.21 5.85005 26.1481 6.62212C26.0861 7.39419 26.3125 8.16181 26.7833 8.77616C27.2541 9.39051 27.9359 9.80783 28.6964 9.94719V13.1255C28.6962 13.2912 28.6304 13.4501 28.5135 13.5672C28.3965 13.6844 28.238 13.7503 28.0726 13.7505H21.2104C21.0449 13.7505 20.8863 13.8164 20.7693 13.9336C20.6523 14.0508 20.5866 14.2098 20.5866 14.3755C20.5866 14.5413 20.6523 14.7002 20.7693 14.8175C20.8863 14.9347 21.0449 15.0005 21.2104 15.0005H24.3296C24.495 15.0007 24.6535 15.0667 24.7704 15.1838C24.8874 15.301 24.9532 15.4598 24.9534 15.6255V24.3755C24.9532 24.5412 24.8874 24.7001 24.7704 24.8172C24.6535 24.9344 24.495 25.0003 24.3296 25.0005H15.284C15.2013 25.0005 15.122 24.9675 15.0635 24.9089C15.005 24.8503 14.9721 24.7709 14.9721 24.688V15.6255C14.9723 15.4598 15.0381 15.301 15.155 15.1838C15.272 15.0667 15.4305 15.0007 15.5959 15.0005H18.0912C18.2567 15.0005 18.4153 14.9347 18.5323 14.8175C18.6493 14.7002 18.7151 14.5413 18.7151 14.3755V9.9375C19.4724 9.78262 20.1454 9.35151 20.6035 8.72776C21.0617 8.10401 21.2723 7.33205 21.1946 6.56155C21.1169 5.79105 20.7564 5.07689 20.183 4.55754C19.6096 4.03819 18.8642 3.75064 18.0912 3.75064C17.3182 3.75064 16.5728 4.03819 15.9994 4.55754C15.426 5.07689 15.0655 5.79105 14.9879 6.56155C14.9102 7.33205 15.1208 8.10401 15.5789 8.72776C16.0371 9.35151 16.71 9.78262 17.4674 9.9375V13.7505H15.5959C15.0997 13.7511 14.624 13.9488 14.2731 14.3003C13.9223 14.6518 13.7249 15.1284 13.7244 15.6255V19.3755H9.91848C9.76389 18.6167 9.33358 17.9425 8.711 17.4835C8.08841 17.0245 7.31789 16.8135 6.54883 16.8913C5.77977 16.9692 5.06694 17.3303 4.54856 17.9048C4.03018 18.4793 3.74316 19.2261 3.74316 20.0005C3.74316 20.7749 4.03018 21.5218 4.54856 22.0962C5.06694 22.6707 5.77977 23.0319 6.54883 23.1097C7.31789 23.1875 8.08841 22.9765 8.711 22.5175C9.33358 22.0585 9.76389 21.3843 9.91848 20.6255H13.7244V24.688C13.7244 24.793 13.735 24.8977 13.7559 25.0005H11.8529C11.3567 25.0011 10.881 25.1988 10.5301 25.5503C10.1793 25.9018 9.98193 26.3784 9.98139 26.8755V30.0794C9.22721 30.2498 8.56305 30.6947 8.11767 31.3278C7.67228 31.9609 7.47741 32.7372 7.57083 33.5061C7.66424 34.275 8.03929 34.9817 8.62327 35.4893C9.20724 35.9969 9.95853 36.2692 10.7315 36.2533C11.5044 36.2375 12.244 35.9347 12.8068 35.4036C13.3695 34.8725 13.7154 34.151 13.7774 33.3789C13.8394 32.6069 13.613 31.8392 13.1422 31.2249C12.6713 30.6105 11.9896 30.1932 11.2291 30.0538V26.8755C11.2293 26.7098 11.2951 26.551 11.412 26.4338C11.529 26.3167 11.6875 26.2507 11.8529 26.2505H21.2104V30.0635C20.453 30.2184 19.7801 30.6495 19.3219 31.2733C18.8638 31.897 18.6532 32.669 18.7309 33.4395C18.8085 34.21 19.169 34.9241 19.7424 35.4435C20.3158 35.9628 21.0613 36.2504 21.8342 36.2504C22.6072 36.2504 23.3527 35.9628 23.926 35.4435C24.4994 34.9241 24.8599 34.21 24.9376 33.4395C25.0153 32.669 24.8047 31.897 24.3465 31.2733C23.8884 30.6495 23.2154 30.2184 22.4581 30.0635V26.2505H24.3296C24.8258 26.25 25.3015 26.0523 25.6523 25.7007C26.0032 25.3492 26.2005 24.8726 26.2011 24.3755V20.6255H30.007C30.125 21.2049 30.4047 21.7388 30.8135 22.1653C31.2223 22.5917 31.7435 22.8933 32.3166 23.0348C32.8896 23.1763 33.491 23.1521 34.0508 22.9648C34.6107 22.7776 35.106 22.4351 35.4793 21.9771C35.8526 21.5191 36.0885 20.9643 36.1597 20.3773C36.2308 19.7903 36.1343 19.1952 35.8813 18.661C35.6283 18.1267 35.2292 17.6754 34.7304 17.3593C34.2315 17.0433 33.6534 16.8755 33.0632 16.8755V16.8755ZM27.3857 6.87552C27.3857 6.50468 27.4954 6.14217 27.7011 5.83383C27.9067 5.52548 28.199 5.28516 28.541 5.14325C28.883 5.00133 29.2593 4.9642 29.6223 5.03655C29.9853 5.1089 30.3188 5.28747 30.5805 5.5497C30.8423 5.81192 31.0205 6.14601 31.0927 6.50973C31.1649 6.87344 31.1279 7.25044 30.9862 7.59305C30.8446 7.93566 30.6047 8.2285 30.2969 8.43453C29.9892 8.64055 29.6273 8.75052 29.2572 8.75052C28.761 8.74997 28.2853 8.55225 27.9344 8.20074C27.5836 7.84923 27.3862 7.37263 27.3857 6.87552H27.3857ZM16.2197 6.87552C16.2197 6.50468 16.3295 6.14217 16.5351 5.83383C16.7408 5.52548 17.0331 5.28516 17.375 5.14325C17.717 5.00133 18.0933 4.9642 18.4563 5.03655C18.8194 5.1089 19.1528 5.28747 19.4146 5.5497C19.6763 5.81192 19.8546 6.14601 19.9268 6.50973C19.999 6.87344 19.9619 7.25044 19.8203 7.59305C19.6786 7.93566 19.4387 8.2285 19.131 8.43453C18.8232 8.64055 18.4614 8.75052 18.0912 8.75052C17.595 8.74998 17.1193 8.55226 16.7685 8.20075C16.4176 7.84923 16.2203 7.37263 16.2197 6.87552V6.87552ZM6.86222 21.8755C6.49207 21.8755 6.13023 21.7656 5.82246 21.5595C5.5147 21.3535 5.27482 21.0607 5.13317 20.7181C4.99152 20.3754 4.95446 19.9984 5.02667 19.6347C5.09889 19.271 5.27713 18.9369 5.53886 18.6747C5.8006 18.4125 6.13407 18.2339 6.4971 18.1615C6.86014 18.0892 7.23644 18.1263 7.57841 18.2682C7.92038 18.4102 8.21267 18.6505 8.41831 18.9588C8.62396 19.2672 8.73372 19.6297 8.73372 20.0005C8.73318 20.4976 8.53583 20.9742 8.18497 21.3257C7.83411 21.6773 7.3584 21.875 6.86222 21.8755V21.8755ZM12.5398 33.1255C12.5398 33.4964 12.43 33.8589 12.2244 34.1672C12.0187 34.4756 11.7264 34.7159 11.3845 34.8578C11.0425 34.9997 10.6662 35.0368 10.3032 34.9645C9.94013 34.8921 9.60666 34.7136 9.34492 34.4513C9.08319 34.1891 8.90494 33.855 8.83273 33.4913C8.76052 33.1276 8.79758 32.7506 8.93923 32.408C9.08088 32.0654 9.32076 31.7725 9.62852 31.5665C9.93629 31.3605 10.2981 31.2505 10.6683 31.2505C11.1645 31.2511 11.6402 31.4488 11.991 31.8003C12.3419 32.1518 12.5392 32.6284 12.5398 33.1255V33.1255ZM23.7057 33.1255C23.7057 33.4964 23.596 33.8589 23.3903 34.1672C23.1847 34.4756 22.8924 34.7159 22.5504 34.8578C22.2085 34.9997 21.8322 35.0368 21.4691 34.9645C21.1061 34.8921 20.7726 34.7136 20.5109 34.4513C20.2491 34.1891 20.0709 33.855 19.9987 33.4913C19.9265 33.1276 19.9635 32.7506 20.1052 32.408C20.2468 32.0654 20.4867 31.7725 20.7945 31.5665C21.1022 31.3605 21.4641 31.2505 21.8342 31.2505C22.3304 31.2511 22.8061 31.4488 23.157 31.8003C23.5078 32.1518 23.7052 32.6284 23.7057 33.1255V33.1255ZM33.0632 21.8755C32.6931 21.8755 32.3313 21.7656 32.0235 21.5595C31.7157 21.3535 31.4759 21.0607 31.3342 20.7181C31.1926 20.3754 31.1555 19.9984 31.2277 19.6347C31.2999 19.271 31.4782 18.9369 31.7399 18.6747C32.0016 18.4125 32.3351 18.2339 32.6981 18.1615C33.0612 18.0892 33.4375 18.1263 33.7794 18.2682C34.1214 18.4102 34.4137 18.6505 34.6193 18.9588C34.825 19.2672 34.9347 19.6297 34.9347 20.0005C34.9342 20.4976 34.7369 20.9742 34.386 21.3257C34.0351 21.6773 33.5594 21.875 33.0632 21.8755Z" fill="#8DFCAF"/>
</svg>
