<svg width="40" height="40" viewBox="0 0 40 40" fill="none" xmlns="http://www.w3.org/2000/svg">
<path fill-rule="evenodd" clip-rule="evenodd" d="M10.9019 15.3659C10.3217 15.9324 9.54359 16.2495 8.73343 16.2495C8.06361 16.2495 7.41157 16.0335 6.8738 15.6334C6.33603 15.2334 5.9411 14.6705 5.74745 14.0281C5.5538 13.3857 5.57172 12.6978 5.79855 12.0664C6.02539 11.435 6.44908 10.8935 7.00695 10.5221C7.56482 10.1507 8.22721 9.96904 8.89612 10.0041C9.56502 10.0391 10.2049 10.289 10.7211 10.7167C11.2372 11.1443 11.6022 11.7272 11.7621 12.3788C11.922 13.0305 11.8682 13.7164 11.6087 14.3351L13.6477 15.6643C14.1295 15.1514 14.771 14.8177 15.4669 14.7182C16.1629 14.6186 16.872 14.759 17.4778 15.1164L21.2015 10.6049C20.8525 10.1339 20.6427 9.57419 20.5962 8.98952C20.5496 8.40486 20.668 7.81885 20.938 7.29842C21.208 6.77799 21.6186 6.34411 22.123 6.04633C22.6273 5.74855 23.2051 5.59886 23.7903 5.61438C24.3756 5.62989 24.9446 5.80997 25.4326 6.13405C25.9205 6.45813 26.3077 6.91316 26.5498 7.44716C26.7919 7.98117 26.8793 8.57263 26.8019 9.15401C26.7246 9.73538 26.4855 10.2832 26.1122 10.735L29.7134 15.0611C30.3911 14.6944 31.1806 14.5928 31.9288 14.776C32.6771 14.9593 33.3308 15.4142 33.7633 16.0528C34.1958 16.6914 34.3763 17.4681 34.2699 18.2324C34.1634 18.9967 33.7775 19.6942 33.187 20.1897C32.5965 20.6852 31.8434 20.9435 31.0737 20.9144C30.304 20.8854 29.5724 20.5711 29.0208 20.0325C28.4692 19.4939 28.1367 18.7693 28.088 17.9991C28.0392 17.2289 28.2775 16.468 28.7567 15.8639L25.1414 11.5207C24.6742 11.7658 24.1523 11.8872 23.6252 11.8734C23.0981 11.8596 22.5832 11.711 22.1296 11.4417L18.4075 15.9512C18.7311 16.3857 18.9363 16.8971 19.0029 17.435C19.0696 17.973 18.9954 18.5191 18.7876 19.0196C18.5799 19.5202 18.2457 19.958 17.8179 20.29C17.3902 20.622 16.8836 20.8367 16.3479 20.9132C15.8122 20.9897 15.2659 20.9252 14.7626 20.7261C14.2593 20.5271 13.8164 20.2002 13.4774 19.7777C13.1383 19.3553 12.9148 18.8517 12.8288 18.3165C12.7428 17.7812 12.7973 17.2328 12.9869 16.7251L10.9019 15.3659ZM32.7475 18.8537C32.9532 18.5453 33.0629 18.1828 33.0629 17.812C33.0624 17.3149 32.8651 16.8383 32.5142 16.4868C32.1633 16.1352 31.6876 15.9375 31.1914 15.937C30.8213 15.937 30.4595 16.0469 30.1517 16.253C29.8439 16.459 29.6041 16.7518 29.4624 17.0944C29.3208 17.4371 29.2837 17.8141 29.3559 18.1778C29.4281 18.5415 29.6064 18.8756 29.8681 19.1378C30.1298 19.4 30.4633 19.5786 30.8263 19.6509C31.1894 19.7233 31.5657 19.6862 31.9076 19.5442C32.2496 19.4023 32.5419 19.162 32.7475 18.8537ZM24.7452 7.19047C24.4374 6.98444 24.0756 6.87448 23.7054 6.87448C23.2093 6.87502 22.7335 7.07274 22.3827 7.42425C22.0318 7.77576 21.8345 8.25236 21.8339 8.74948C21.8339 9.12032 21.9437 9.48283 22.1493 9.79117C22.355 10.0995 22.6473 10.3398 22.9892 10.4817C23.3312 10.6237 23.7075 10.6608 24.0706 10.5884C24.4336 10.5161 24.7671 10.3375 25.0288 10.0753C25.2905 9.81308 25.4688 9.47898 25.541 9.11527C25.6132 8.75156 25.5761 8.37456 25.4345 8.03194C25.2928 7.68933 25.053 7.3965 24.7452 7.19047ZM16.9473 16.253C16.6395 16.0469 16.2777 15.937 15.9075 15.937C15.4113 15.9375 14.9356 16.1352 14.5848 16.4868C14.2339 16.8383 14.0366 17.3149 14.036 17.812C14.036 18.1828 14.1458 18.5453 14.3514 18.8537C14.5571 19.162 14.8494 19.4023 15.1913 19.5442C15.5333 19.6862 15.9096 19.7233 16.2726 19.6509C16.6357 19.5786 16.9691 19.4 17.2309 19.1378C17.4926 18.8756 17.6708 18.5415 17.7431 18.1778C17.8153 17.8141 17.7782 17.4371 17.6366 17.0944C17.4949 16.7518 17.255 16.459 16.9473 16.253ZM9.77318 11.5655C9.46541 11.3594 9.10357 11.2495 8.73343 11.2495C8.23724 11.25 7.76153 11.4477 7.41067 11.7993C7.05982 12.1508 6.86247 12.6274 6.86192 13.1245C6.86192 13.4953 6.97169 13.8578 7.17733 14.1662C7.38297 14.4745 7.67526 14.7148 8.01723 14.8568C8.35921 14.9987 8.7355 15.0358 9.09854 14.9634C9.46157 14.8911 9.79504 14.7125 10.0568 14.4503C10.3185 14.1881 10.4968 13.854 10.569 13.4903C10.6412 13.1266 10.6041 12.7496 10.4625 12.4069C10.3208 12.0643 10.0809 11.7715 9.77318 11.5655ZM28.8933 23.322C29.4182 22.7961 30.1299 22.5003 30.8722 22.4994C31.6145 22.5003 32.3262 22.7961 32.8511 23.322C33.376 23.8478 33.6713 24.5608 33.6722 25.3045V33.1244C33.6722 33.2901 33.6064 33.4491 33.4894 33.5663C33.3725 33.6835 33.2138 33.7494 33.0483 33.7494C32.8829 33.7494 32.7242 33.6835 32.6072 33.5663C32.4902 33.4491 32.4245 33.2901 32.4245 33.1244V25.3045C32.4245 25.1003 32.3843 24.8981 32.3063 24.7094C32.2283 24.5207 32.114 24.3493 31.9698 24.2049C31.8257 24.0605 31.6546 23.9459 31.4663 23.8677C31.2779 23.7896 31.0761 23.7494 30.8722 23.7494C30.6684 23.7494 30.4665 23.7896 30.2782 23.8677C30.0899 23.9459 29.9187 24.0605 29.7746 24.2049C29.6305 24.3493 29.5161 24.5207 29.4381 24.7094C29.3601 24.8981 29.3199 25.1003 29.3199 25.3045V31.6589C29.3199 32.2134 29.1001 32.7451 28.7088 33.1372C28.3174 33.5293 27.7867 33.7495 27.2332 33.7495C26.6798 33.7495 26.1491 33.5293 25.7577 33.1372C25.3664 32.7451 25.1465 32.2134 25.1465 31.6589V21.5545C25.146 21.1425 24.9822 20.7475 24.6911 20.4563C24.4001 20.1651 24.0056 20.0016 23.5943 20.0016C23.183 20.0016 22.7885 20.1651 22.4974 20.4563C22.2064 20.7475 22.0426 21.1425 22.042 21.5545V31.6589C22.042 32.2134 21.8221 32.7452 21.4308 33.1373C21.0394 33.5294 20.5086 33.7497 19.9551 33.7497C19.4017 33.7497 18.8709 33.5294 18.4795 33.1373C18.0881 32.7452 17.8683 32.2134 17.8683 31.6589V29.0545C17.8683 28.6421 17.7047 28.2465 17.4136 27.9549C17.1225 27.6632 16.7277 27.4994 16.316 27.4994C15.9043 27.4994 15.5095 27.6632 15.2184 27.9549C14.9273 28.2465 14.7637 28.6421 14.7637 29.0545V31.6589C14.763 32.2129 14.5429 32.744 14.1516 33.1355C13.7604 33.5271 13.23 33.747 12.677 33.747C12.124 33.747 11.5937 33.5271 11.2024 33.1355C10.8111 32.744 10.591 32.2129 10.5903 31.6589V25.3045C10.5903 24.8921 10.4268 24.4965 10.1357 24.2049C9.84455 23.9132 9.44972 23.7494 9.03803 23.7494C8.62635 23.7494 8.23152 23.9132 7.94041 24.2049C7.6493 24.4965 7.48576 24.8921 7.48576 25.3045V33.1244C7.48576 33.2901 7.42004 33.4491 7.30304 33.5663C7.18605 33.6835 7.02738 33.7494 6.86193 33.7494C6.69647 33.7494 6.5378 33.6835 6.42081 33.5663C6.30382 33.4491 6.23809 33.2901 6.23809 33.1244V25.3045C6.23809 24.5606 6.53308 23.8471 7.05818 23.321C7.58327 22.7949 8.29544 22.4994 9.03803 22.4994C9.78062 22.4994 10.4928 22.7949 11.0179 23.321C11.543 23.8471 11.838 24.5606 11.838 25.3045V31.6589C11.8384 31.8816 11.927 32.095 12.0843 32.2523C12.2416 32.4096 12.4548 32.4979 12.677 32.4979C12.8993 32.4979 13.1124 32.4096 13.2697 32.2523C13.427 32.095 13.5156 31.8816 13.5161 31.6589V29.0545C13.5161 28.3106 13.811 27.5971 14.3361 27.071C14.8612 26.5449 15.5734 26.2494 16.316 26.2494C17.0586 26.2494 17.7708 26.5449 18.2959 27.071C18.8209 27.5971 19.1159 28.3106 19.1159 29.0545V31.6589C19.1159 31.8819 19.2044 32.0957 19.3617 32.2534C19.5191 32.4111 19.7326 32.4997 19.9551 32.4997C20.1777 32.4997 20.3911 32.4111 20.5485 32.2534C20.7059 32.0957 20.7943 31.8819 20.7943 31.6589V21.5545C20.7951 20.8111 21.0904 20.0983 21.6154 19.5729C22.1405 19.0475 22.8522 18.7523 23.5943 18.7523C24.3363 18.7523 25.0481 19.0475 25.5731 19.5729C26.0981 20.0983 26.3934 20.8111 26.3942 21.5545V31.6589C26.3942 31.8819 26.4826 32.0957 26.64 32.2533C26.7973 32.411 27.0107 32.4995 27.2332 32.4995C27.4558 32.4995 27.6692 32.411 27.8265 32.2533C27.9839 32.0957 28.0723 31.8819 28.0723 31.6589V25.3045C28.0732 24.5608 28.3684 23.8478 28.8933 23.322Z" fill="#8DFCAF"/>
</svg>
