<svg width="40" height="40" viewBox="0 0 40 40" fill="none" xmlns="http://www.w3.org/2000/svg">
<path fill-rule="evenodd" clip-rule="evenodd" d="M21.8094 6.3608C21.2741 6.75495 20.6273 6.96792 19.963 6.96879C19.3596 6.96879 18.7691 6.79343 18.2632 6.46397C17.7572 6.1345 17.3575 5.66509 17.1125 5.11261C16.8675 4.56013 16.7877 3.94832 16.8828 3.35132C16.9779 2.75432 17.2438 2.19777 17.6483 1.74913C18.0527 1.30049 18.5784 0.979015 19.1616 0.823675C19.7447 0.668334 20.3603 0.685797 20.9338 0.873946C21.5073 1.0621 22.0139 1.41285 22.3924 1.88371C22.7709 2.35456 23.0049 2.92529 23.0661 3.52672C26.7902 4.21174 30.1783 6.12572 32.6907 8.96373C32.7447 9.02554 32.7861 9.09742 32.8124 9.17527C32.8387 9.25311 32.8494 9.33538 32.8439 9.41737C32.8384 9.49937 32.8169 9.57948 32.7805 9.65311C32.744 9.72675 32.6935 9.79247 32.6317 9.84651C32.5699 9.90055 32.4981 9.94186 32.4203 9.96806C32.3426 9.99427 32.2605 10.0049 32.1786 9.99923C32.0968 9.99359 32.0169 9.97185 31.9434 9.93524C31.87 9.89863 31.8045 9.84787 31.7507 9.78587C29.4472 7.18629 26.3488 5.4248 22.9399 4.77687C22.7407 5.41182 22.3447 5.96664 21.8094 6.3608ZM21.0028 2.28479C20.695 2.07876 20.3332 1.96879 19.963 1.96879C19.4668 1.96934 18.9911 2.16706 18.6403 2.51857C18.2894 2.87008 18.0921 3.34668 18.0915 3.84379C18.0915 4.21463 18.2013 4.57715 18.4069 4.88549C18.6126 5.19383 18.9048 5.43415 19.2468 5.57607C19.5888 5.71798 19.9651 5.75511 20.3281 5.68277C20.6912 5.61042 21.0246 5.43184 21.2864 5.16962C21.5481 4.9074 21.7263 4.5733 21.7986 4.20959C21.8708 3.84587 21.8337 3.46887 21.6921 3.12626C21.5504 2.78365 21.3105 2.49082 21.0028 2.28479ZM7.36599 13.4813C7.57959 13.9118 7.69095 14.3859 7.69137 14.8667V14.8667C7.69179 15.5173 7.48942 16.1517 7.11251 16.6814C6.73561 17.2112 6.20299 17.6098 5.58902 17.8216C4.97506 18.0334 4.31041 18.0478 3.68787 17.8628C3.06534 17.6778 2.516 17.3027 2.11657 16.7898C1.71713 16.2769 1.48755 15.6518 1.45987 15.0018C1.43218 14.3519 1.60779 13.7095 1.96216 13.1644C2.31653 12.6192 2.83198 12.1986 3.43652 11.9611C4.04107 11.7237 4.70453 11.6813 5.33427 11.84C7.14695 8.53316 10.0167 5.93293 13.4822 4.45716C13.5577 4.42526 13.6387 4.40857 13.7207 4.40803C13.8026 4.4075 13.8838 4.42314 13.9597 4.45406C14.0356 4.48497 14.1047 4.53056 14.163 4.58822C14.2213 4.64588 14.2677 4.71448 14.2995 4.79011C14.3313 4.86573 14.348 4.9469 14.3485 5.02897C14.3491 5.11105 14.3335 5.19242 14.3026 5.26845C14.2717 5.34448 14.2262 5.41368 14.1687 5.47209C14.1111 5.53051 14.0427 5.57699 13.9672 5.60889C10.7811 6.96643 8.13889 9.35134 6.46008 12.385C6.84235 12.6756 7.1524 13.0508 7.36599 13.4813ZM3.01611 13.825C2.81046 14.1333 2.7007 14.4959 2.7007 14.8667C2.70124 15.3638 2.89859 15.8404 3.24945 16.1919C3.60031 16.5434 4.07602 16.7411 4.5722 16.7417C4.94235 16.7417 5.30419 16.6317 5.61195 16.4257C5.91972 16.2197 6.1596 15.9268 6.30124 15.5842C6.44289 15.2416 6.47996 14.8646 6.40774 14.5009C6.33553 14.1372 6.15729 13.8031 5.89555 13.5409C5.63382 13.2786 5.30035 13.1001 4.93731 13.0277C4.57428 12.9554 4.19798 12.9925 3.85601 13.1344C3.51404 13.2763 3.22175 13.5167 3.01611 13.825ZM10.4411 30.1157C9.81221 30.1152 9.19807 30.3064 8.68018 30.6638C6.28316 28.1735 4.7982 24.9436 4.46712 21.5C4.45088 21.335 4.3699 21.1833 4.242 21.0781C4.1141 20.973 3.94975 20.9231 3.78511 20.9394C3.62046 20.9556 3.46901 21.0368 3.36408 21.1649C3.25914 21.293 3.20931 21.4577 3.22554 21.6226C3.58458 25.3621 5.2023 28.868 7.81299 31.5645C7.44226 32.1496 7.27637 32.8417 7.34146 33.5316C7.40655 34.2216 7.69892 34.8702 8.1725 35.3753C8.64609 35.8805 9.27397 36.2134 9.95722 36.3216C10.6405 36.4299 11.3402 36.3073 11.9463 35.9732C12.5523 35.6391 13.0302 35.1125 13.3046 34.4763C13.579 33.8401 13.6343 33.1306 13.4618 32.4594C13.2894 31.7883 12.8989 31.1937 12.352 30.7694C11.8051 30.345 11.1328 30.1151 10.4411 30.1157L10.4411 30.1157ZM10.4411 35.1157C10.0709 35.1157 9.70909 35.0057 9.40133 34.7997C9.09356 34.5937 8.85368 34.3008 8.71203 33.9582C8.57038 33.6156 8.53332 33.2386 8.60553 32.8749C8.67775 32.5112 8.85599 32.1771 9.11772 31.9149C9.37946 31.6526 9.71293 31.4741 10.076 31.4017C10.439 31.3294 10.8153 31.3665 11.1573 31.5084C11.4992 31.6503 11.7915 31.8907 11.9972 32.199C12.2028 32.5073 12.3126 32.8699 12.3126 33.2407C12.312 33.7378 12.1147 34.2144 11.7638 34.5659C11.413 34.9174 10.9373 35.1152 10.4411 35.1157ZM28.121 30.442C28.5538 30.2263 29.0309 30.1146 29.5143 30.1157C30.0406 30.1156 30.5584 30.2489 31.0195 30.5033C31.4805 30.7577 31.8698 31.1248 32.151 31.5706C32.4322 32.0163 32.5963 32.5261 32.6278 33.0525C32.6594 33.5788 32.5575 34.1046 32.3315 34.5809C32.1056 35.0572 31.763 35.4684 31.3356 35.7762C30.9083 36.0841 30.4101 36.2785 29.8876 36.3415C29.365 36.4045 28.835 36.3339 28.347 36.1363C27.859 35.9388 27.4289 35.6207 27.0967 35.2117C24.8251 36.2845 22.3455 36.8429 19.8342 36.8473C18.5694 36.8482 17.3087 36.7026 16.0772 36.4133C15.9974 36.3945 15.9222 36.3602 15.8556 36.3122C15.7891 36.2643 15.7327 36.2037 15.6896 36.1339C15.6464 36.0641 15.6174 35.9865 15.6042 35.9054C15.591 35.8244 15.5939 35.7416 15.6127 35.6617C15.6314 35.5818 15.6657 35.5063 15.7136 35.4397C15.7614 35.3731 15.8219 35.3165 15.8916 35.2733C15.9613 35.2301 16.0387 35.2011 16.1196 35.1878C16.2005 35.1746 16.2832 35.1775 16.3629 35.1963C19.7749 35.9803 23.3508 35.5954 26.5186 34.1029C26.3838 33.6378 26.3589 33.1476 26.4461 32.6712C26.5333 32.1949 26.73 31.7454 27.0207 31.3584C27.3115 30.9715 27.6882 30.6577 28.121 30.442ZM28.4745 34.7997C28.7823 35.0058 29.1441 35.1157 29.5143 35.1157C30.0105 35.1152 30.4862 34.9175 30.837 34.566C31.1879 34.2144 31.3853 33.7378 31.3858 33.2407C31.3858 32.8699 31.276 32.5074 31.0704 32.199C30.8647 31.8907 30.5725 31.6504 30.2305 31.5085C29.8885 31.3665 29.5122 31.3294 29.1492 31.4018C28.7861 31.4741 28.4527 31.6527 28.1909 31.9149C27.9292 32.1771 27.751 32.5112 27.6787 32.8749C27.6065 33.2387 27.6436 33.6157 27.7852 33.9583C27.9269 34.3009 28.1668 34.5937 28.4745 34.7997ZM38.5903 14.9998C38.591 14.3857 38.411 13.7849 38.0729 13.2727C37.7348 12.7604 37.2535 12.3593 36.6891 12.1195C36.1248 11.8797 35.5024 11.8118 34.8998 11.9243C34.2972 12.0368 33.741 12.3247 33.3007 12.752C32.8605 13.1793 32.5556 13.7272 32.4244 14.3271C32.2931 14.927 32.3411 15.5523 32.5625 16.125C32.7839 16.6977 33.1688 17.1924 33.6692 17.5472C34.1695 17.902 34.7631 18.1012 35.3759 18.1199C35.8097 21.4822 35.1366 24.8945 33.4586 27.8386C33.4177 27.9097 33.3912 27.9882 33.3806 28.0696C33.37 28.151 33.3755 28.2337 33.3968 28.313C33.4181 28.3922 33.4548 28.4665 33.5048 28.5316C33.5547 28.5966 33.617 28.6512 33.688 28.6921C33.759 28.7331 33.8373 28.7597 33.9186 28.7703C33.9998 28.7809 34.0824 28.7754 34.1615 28.754C34.2406 28.7327 34.3147 28.696 34.3797 28.6459C34.4446 28.5959 34.4991 28.5335 34.54 28.4624C36.3628 25.2652 37.0887 21.5574 36.6065 17.9073C37.1904 17.6783 37.6918 17.2785 38.0457 16.7599C38.3995 16.2413 38.5893 15.628 38.5903 14.9998ZM35.4711 16.8748C35.101 16.8748 34.7392 16.7649 34.4314 16.5588C34.1236 16.3528 33.8837 16.06 33.7421 15.7174C33.6004 15.3747 33.5634 14.9977 33.6356 14.634C33.7078 14.2703 33.886 13.9362 34.1478 13.674C34.4095 13.4118 34.743 13.2332 35.106 13.1609C35.4691 13.0885 35.8454 13.1256 36.1873 13.2675C36.5293 13.4095 36.8216 13.6498 37.0272 13.9581C37.2329 14.2665 37.3426 14.629 37.3426 14.9998C37.3421 15.4969 37.1447 15.9735 36.7939 16.325C36.443 16.6766 35.9673 16.8743 35.4711 16.8748ZM19.9574 24.7321C19.9312 24.7331 19.9057 24.7414 19.8839 24.7559L16.0891 27.2626C15.8497 27.4263 15.5646 27.5097 15.2749 27.5006C14.9852 27.4916 14.7059 27.3906 14.4771 27.2123C14.2465 27.04 14.0766 26.7987 13.992 26.5233C13.9074 26.2479 13.9125 25.9526 14.0065 25.6803L15.411 21.5562C15.4184 21.5324 15.4185 21.507 15.4112 21.4833C15.4039 21.4595 15.3896 21.4386 15.3702 21.4231L12.6809 19.3287C12.4585 19.1496 12.2972 18.9057 12.2194 18.6307C12.1415 18.3558 12.151 18.0633 12.2465 17.794C12.342 17.5247 12.5188 17.2918 12.7523 17.1276C12.9859 16.9635 13.2646 16.8761 13.5499 16.8778H17.158C17.1854 16.8782 17.2123 16.8702 17.2352 16.8549C17.258 16.8397 17.2757 16.8179 17.2859 16.7924L18.6673 13.0826C18.7671 12.8196 18.9443 12.5931 19.1754 12.4332C19.4065 12.2733 19.6807 12.1876 19.9615 12.1873C20.2424 12.187 20.5167 12.2722 20.7482 12.4316C20.9797 12.591 21.1573 12.8171 21.2577 13.0799L22.6415 16.7954C22.652 16.8202 22.6696 16.8413 22.6921 16.856C22.7146 16.8707 22.741 16.8783 22.7679 16.8778H26.376C26.6597 16.8762 26.937 16.9625 27.1698 17.125C27.4026 17.2874 27.5795 17.5181 27.6763 17.7853C27.7731 18.0525 27.785 18.3431 27.7104 18.6174C27.6358 18.8916 27.4783 19.136 27.2596 19.3171L24.5419 21.4344C24.5265 21.4506 24.5159 21.4707 24.5113 21.4926C24.5067 21.5145 24.5084 21.5373 24.516 21.5583L25.9197 25.7358C25.946 25.8137 25.9568 25.896 25.9513 25.978C25.9459 26.06 25.9244 26.1402 25.888 26.2138C25.8516 26.2875 25.801 26.3533 25.7392 26.4073C25.6774 26.4614 25.6056 26.5027 25.5278 26.5289C25.4501 26.5552 25.3679 26.5657 25.286 26.5601C25.2042 26.5544 25.1242 26.5327 25.0508 26.496C24.9774 26.4594 24.9118 26.4086 24.858 26.3465C24.8042 26.2845 24.7632 26.2124 24.7372 26.1344L23.3336 21.9572C23.2461 21.6931 23.2403 21.4088 23.3168 21.1414C23.3933 20.874 23.5487 20.6359 23.7624 20.4584L26.4795 18.3417C26.4967 18.3261 26.5084 18.3053 26.5128 18.2825C26.5173 18.2597 26.5144 18.2361 26.5045 18.2151C26.4962 18.1881 26.4789 18.1647 26.4555 18.1488C26.4322 18.133 26.4041 18.1255 26.376 18.1278H22.7679C22.4875 18.1272 22.2138 18.0417 21.9828 17.8825C21.7518 17.7232 21.5743 17.4977 21.4736 17.2355L20.0898 13.5197C20.0785 13.4952 20.0604 13.4745 20.0377 13.46C20.0149 13.4456 19.9885 13.4381 19.9616 13.4384C19.9347 13.4387 19.9084 13.4468 19.886 13.4617C19.8635 13.4766 19.8459 13.4977 19.8351 13.5224L18.4538 17.2324C18.3533 17.4953 18.1757 17.7215 17.9444 17.8814C17.7131 18.0412 17.4389 18.1271 17.158 18.1278H13.5499C13.5217 18.1256 13.4937 18.133 13.4703 18.1489C13.447 18.1647 13.4297 18.1881 13.4213 18.2151C13.4109 18.2391 13.4091 18.266 13.4164 18.2912C13.4236 18.3164 13.4394 18.3383 13.4609 18.353L16.15 20.4475C16.3677 20.6247 16.5265 20.8639 16.6056 21.1335C16.6846 21.4032 16.6801 21.6905 16.5926 21.9575L15.1881 26.0813C15.1784 26.1057 15.1776 26.1328 15.1858 26.1577C15.1941 26.1827 15.2108 26.2039 15.2332 26.2177C15.2557 26.2374 15.2843 26.2487 15.3142 26.2496C15.3441 26.2505 15.3734 26.2409 15.397 26.2226L19.1924 23.7156C19.4211 23.5615 19.6905 23.4795 19.966 23.4801C20.2416 23.4807 20.5106 23.5639 20.7386 23.7189C20.7493 23.726 20.7593 23.7333 20.7694 23.7409L22.2135 24.8478C22.2786 24.8976 22.3332 24.9598 22.3743 25.0309C22.4154 25.1019 22.4421 25.1803 22.453 25.2617C22.4638 25.343 22.4585 25.4257 22.4375 25.505C22.4164 25.5843 22.3799 25.6587 22.3302 25.7239C22.2804 25.7891 22.2183 25.8439 22.1474 25.885C22.0766 25.9262 21.9983 25.953 21.9171 25.9638C21.8359 25.9747 21.7533 25.9694 21.6742 25.9483C21.595 25.9272 21.5207 25.8907 21.4557 25.8408L20.0325 24.7501C20.0096 24.7373 19.9836 24.7311 19.9574 24.7321Z" fill="#8DFCAF"/>
</svg>
