<svg width="40" height="40" viewBox="0 0 40 40" fill="none" xmlns="http://www.w3.org/2000/svg">
<path d="M6.54983 28.75C5.51623 28.75 4.67833 27.9105 4.67833 26.875V10.3125C4.67833 9.27697 5.51623 8.4375 6.54983 8.4375H31.5032C32.5368 8.4375 33.3747 9.27697 33.3747 10.3125V20C33.3747 20.3452 33.654 20.625 33.9985 20.625C34.3431 20.625 34.6224 20.3452 34.6224 20V10.3125C34.6224 8.58661 33.2259 7.1875 31.5032 7.1875H6.54983C4.82716 7.1875 3.43066 8.58661 3.43066 10.3125V26.875C3.43066 28.6009 4.82716 30 6.54983 30H19.4944C19.8389 30 20.1182 29.7202 20.1182 29.375C20.1182 29.0298 19.8389 28.75 19.4944 28.75H6.54983Z" fill="#8DFCAF"/>
<path d="M31.5678 36.1318C31.3856 36.2089 31.1899 36.2491 30.9921 36.25L30.7668 36.25C30.3714 36.2496 29.9923 36.0921 29.7126 35.812C29.433 35.5318 29.2757 35.152 29.2752 34.7559C29.2806 34.6656 29.2569 34.576 29.2076 34.5003C29.1583 34.4245 29.086 34.3667 29.0013 34.3353C28.7513 34.2504 28.5072 34.1487 28.2708 34.031C28.1927 33.9931 28.1047 33.9806 28.0191 33.9954C27.9336 34.0103 27.8549 34.0516 27.794 34.1137L27.7776 34.1304C27.4978 34.4112 27.1182 34.5691 26.7223 34.5696C26.3263 34.5701 25.9463 34.4131 25.6659 34.1331L25.5066 33.9738C25.3681 33.835 25.2582 33.6703 25.1832 33.4889C25.1082 33.3076 25.0696 33.1133 25.0695 32.917C25.0695 32.7208 25.1081 32.5264 25.183 32.3451C25.258 32.1638 25.3678 31.999 25.5064 31.8602L25.5259 31.8408C25.5878 31.7799 25.6291 31.7011 25.6439 31.6155C25.6587 31.5298 25.6463 31.4417 25.6084 31.3635C25.4907 31.1266 25.3893 30.882 25.3048 30.6313C25.276 30.5501 25.2226 30.48 25.1519 30.4308C25.0813 30.3816 24.9971 30.3559 24.9111 30.3572C24.7133 30.3596 24.517 30.3229 24.3334 30.249C24.1499 30.1751 23.9828 30.0656 23.8417 29.9267C23.7006 29.7878 23.5884 29.6223 23.5114 29.4397C23.4345 29.2572 23.3943 29.0612 23.3934 28.863V28.637C23.3938 28.2408 23.5511 27.861 23.8308 27.5809C24.1104 27.3008 24.4895 27.1433 24.885 27.1429C24.9751 27.1481 25.0646 27.1242 25.1402 27.0748C25.2158 27.0253 25.2736 26.9528 25.3051 26.868C25.3894 26.6173 25.4908 26.3728 25.6084 26.136C25.6463 26.0579 25.6587 25.9698 25.6438 25.8843C25.629 25.7987 25.5878 25.72 25.5259 25.6592L25.5063 25.6396C25.2271 25.3591 25.0703 24.9792 25.0703 24.583C25.0703 24.1869 25.2271 23.8069 25.5063 23.5265L25.6661 23.3667C25.946 23.087 26.3252 22.9299 26.7206 22.9299C27.116 22.93 27.4951 23.0871 27.775 23.367C27.8355 23.4325 27.9154 23.4768 28.0029 23.4935C28.0905 23.5103 28.181 23.4984 28.2614 23.4598C28.4869 23.3391 28.7215 23.2364 28.9632 23.1527C29.0516 23.1264 29.1294 23.0726 29.1854 22.9992C29.2415 22.9258 29.2729 22.8365 29.2752 22.7441C29.2757 22.348 29.433 21.9682 29.7126 21.6881C29.9922 21.4079 30.3714 21.2504 30.7668 21.25H30.9921C31.3875 21.2504 31.7666 21.408 32.0462 21.6881C32.3258 21.9682 32.4831 22.348 32.4835 22.7441C32.4782 22.8345 32.5021 22.9241 32.5515 22.9999C32.6009 23.0756 32.6732 23.1335 32.7579 23.165C33.0079 23.2498 33.2518 23.3513 33.4882 23.469C33.5661 23.5069 33.654 23.5194 33.7394 23.5045C33.8249 23.4897 33.9035 23.4483 33.9641 23.3863L33.9866 23.3644C34.2666 23.0855 34.6456 22.9293 35.0404 22.9297C35.4352 22.9302 35.8137 23.0875 36.0931 23.367L36.2523 23.5263C36.5317 23.8067 36.6886 24.1867 36.6887 24.5829C36.6887 24.9791 36.5319 25.3591 36.2526 25.6396L36.233 25.6592C36.1711 25.72 36.1299 25.7987 36.1151 25.8843C36.1003 25.9699 36.1127 26.0579 36.1505 26.136C36.2679 26.3729 36.3693 26.6174 36.4539 26.8679C36.4826 26.9493 36.5361 27.0196 36.6068 27.0689C36.6774 27.1182 36.7618 27.1441 36.8479 27.1429C37.0457 27.1404 37.242 27.1771 37.4255 27.251C37.609 27.3249 37.7761 27.4345 37.9172 27.5734C38.0582 27.7123 38.1705 27.8777 38.2474 28.0603C38.3243 28.2429 38.3644 28.4389 38.3654 28.637V28.863C38.3649 29.2592 38.2077 29.639 37.9281 29.9191C37.6485 30.1992 37.2694 30.3567 36.874 30.3571C36.7839 30.3519 36.6944 30.3757 36.6188 30.4251C36.5432 30.4746 36.4854 30.547 36.4539 30.6318C36.3721 30.8741 36.2746 31.1108 36.162 31.3404C36.0993 31.4678 35.9887 31.5649 35.8545 31.6106C35.7204 31.6563 35.5736 31.6468 35.4464 31.5841C35.3192 31.5215 35.2221 31.4108 35.1763 31.2764C35.1305 31.1421 35.1399 30.995 35.2022 30.8675C35.2943 30.68 35.374 30.4868 35.4409 30.2889C35.5411 29.9952 35.7308 29.7404 35.9832 29.5604C36.2356 29.3804 36.5381 29.2844 36.8479 29.2857C36.9052 29.2883 36.9625 29.2793 37.0163 29.2593C37.0701 29.2393 37.1194 29.2087 37.1611 29.1693C37.2029 29.1299 37.2364 29.0825 37.2595 29.0299C37.2827 28.9772 37.2951 28.9205 37.2959 28.863V28.637C37.2958 28.5249 37.2513 28.4175 37.1722 28.3382C37.0931 28.259 36.9859 28.2144 36.874 28.2143C36.5601 28.2198 36.2524 28.1258 35.995 27.9456C35.7376 27.7655 35.5437 27.5084 35.4409 27.2111C35.3717 27.0065 35.2888 26.8067 35.1928 26.6132C35.0551 26.3341 35.0084 26.0187 35.0594 25.7115C35.1104 25.4044 35.2564 25.1211 35.4769 24.9017L35.4965 24.8821C35.5755 24.8027 35.6199 24.6952 35.6199 24.5831C35.6199 24.471 35.5755 24.3635 35.4965 24.2841L35.3372 24.1248C35.258 24.0456 35.1506 24.0011 35.0387 24.0011C34.9268 24.001 34.8194 24.0454 34.7401 24.1245L34.7179 24.1465C34.4989 24.3667 34.2164 24.5123 33.9103 24.5629C33.6041 24.6134 33.2899 24.5663 33.0119 24.4282C32.8188 24.3323 32.6195 24.2494 32.4153 24.18C32.1222 24.0796 31.8678 23.8895 31.6882 23.6366C31.5086 23.3837 31.4127 23.0807 31.414 22.7703C31.4166 22.7129 31.4077 22.6555 31.3877 22.6016C31.3678 22.5477 31.3372 22.4983 31.2978 22.4565C31.2585 22.4146 31.2112 22.3811 31.1587 22.3579C31.1061 22.3347 31.0495 22.3223 30.9921 22.3214H30.7668C30.6549 22.3215 30.5476 22.3661 30.4685 22.4453C30.3893 22.5246 30.3448 22.632 30.3446 22.7442C30.3415 23.0598 30.2401 23.3666 30.0544 23.6217C29.8688 23.8767 29.6082 24.0672 29.3091 24.1666C29.1204 24.2321 28.9371 24.3126 28.7611 24.4073C28.4804 24.5512 28.1614 24.6023 27.85 24.5531C27.5385 24.5039 27.2506 24.3571 27.0277 24.1337C26.9887 24.0929 26.9421 24.0603 26.8904 24.0378C26.8387 24.0152 26.7831 24.0032 26.7268 24.0023C26.6704 24.0014 26.6145 24.0118 26.5622 24.0328C26.5098 24.0538 26.4622 24.0849 26.422 24.1245L26.2622 24.2843C26.1833 24.3637 26.139 24.4712 26.1391 24.5832C26.1391 24.6953 26.1835 24.8027 26.2625 24.882L26.2821 24.9017C26.5025 25.1211 26.6486 25.4044 26.6995 25.7115C26.7505 26.0187 26.7038 26.3341 26.5661 26.6132C26.47 26.8064 26.3872 27.006 26.3183 27.2106C26.2182 27.5044 26.0284 27.7594 25.776 27.9394C25.5235 28.1195 25.221 28.2156 24.9111 28.2143C24.8537 28.2117 24.7964 28.2206 24.7426 28.2406C24.6887 28.2606 24.6395 28.2912 24.5977 28.3306C24.5558 28.3701 24.5224 28.4175 24.4992 28.4701C24.476 28.5228 24.4636 28.5795 24.4628 28.637V28.863C24.4629 28.9751 24.5074 29.0826 24.5866 29.1619C24.6657 29.2411 24.773 29.2857 24.8849 29.2857C25.1989 29.2802 25.5065 29.3742 25.7639 29.5543C26.0213 29.7344 26.2152 29.9914 26.3181 30.2886C26.3871 30.4934 26.4699 30.6932 26.5661 30.8866C26.7039 31.1657 26.7505 31.4812 26.6996 31.7884C26.6486 32.0955 26.5025 32.3789 26.282 32.5984L26.2625 32.618C26.1834 32.6973 26.139 32.8049 26.139 32.917C26.139 33.0291 26.1834 33.1366 26.2625 33.216L26.4217 33.3753C26.501 33.4544 26.6083 33.4989 26.7202 33.499C26.8322 33.499 26.9395 33.4546 27.0189 33.3755L27.0356 33.3585C27.2546 33.1368 27.5378 32.9898 27.8449 32.9383C28.152 32.8868 28.4676 32.9334 28.7468 33.0716C28.94 33.1676 29.1394 33.2506 29.3436 33.3201C29.6367 33.4204 29.891 33.6104 30.0706 33.8633C30.2502 34.1161 30.3461 34.4191 30.3446 34.7295C30.342 34.7869 30.351 34.8444 30.3709 34.8983C30.3909 34.9523 30.4215 35.0016 30.4609 35.0435C30.5002 35.0854 30.5476 35.1189 30.6002 35.1421C30.6527 35.1654 30.7094 35.1777 30.7668 35.1786H30.9921C31.104 35.1785 31.2112 35.1339 31.2903 35.0546C31.3694 34.9754 31.4139 34.8679 31.4141 34.7559C31.4085 34.4413 31.5024 34.133 31.6823 33.875C31.8622 33.6171 32.1188 33.4228 32.4156 33.3198C32.6199 33.2505 32.8193 33.1676 33.0125 33.0716C33.291 32.9334 33.6057 32.8866 33.9123 32.9376C34.2188 32.9886 34.5016 33.135 34.7205 33.3559L34.7401 33.3755C34.8122 33.4477 34.908 33.4914 35.0098 33.4983C35.1115 33.5053 35.2123 33.4752 35.2936 33.4135C35.3494 33.3708 35.4131 33.3395 35.481 33.3214C35.5489 33.3034 35.6196 33.2989 35.6892 33.3083C35.7588 33.3176 35.8259 33.3406 35.8867 33.3759C35.9474 33.4113 36.0006 33.4582 36.0432 33.5142C36.0858 33.5701 36.117 33.6339 36.1351 33.7019C36.1531 33.7699 36.1575 33.8408 36.1482 33.9105C36.1389 33.9803 36.1159 34.0475 36.0807 34.1083C36.0454 34.1692 35.9985 34.2225 35.9427 34.2652C35.6552 34.4834 35.2986 34.5902 34.9387 34.566C34.5788 34.5417 34.2397 34.3879 33.984 34.1331L33.9644 34.1134C33.9038 34.0514 33.8252 34.0101 33.7399 33.9952C33.6545 33.9804 33.5666 33.9928 33.4887 34.0308C33.2522 34.1486 33.0081 34.2502 32.7579 34.335C32.6767 34.3637 32.6065 34.4172 32.5573 34.4879C32.508 34.5587 32.4822 34.6432 32.4835 34.7295C32.486 34.9276 32.4493 35.1243 32.3756 35.3082C32.3019 35.4921 32.1925 35.6595 32.0539 35.8009C31.9152 35.9422 31.7501 36.0547 31.5678 36.1318Z" fill="#8DFCAF"/>
<path d="M33.5685 28.7495C33.5685 29.2824 33.4108 29.8032 33.1153 30.2463C32.8198 30.6894 32.3998 31.0347 31.9084 31.2386C31.417 31.4425 30.8763 31.4959 30.3547 31.3919C29.833 31.288 29.3539 31.0314 28.9778 30.6546C28.6017 30.2778 28.3456 29.7977 28.2418 29.2751C28.1381 28.7525 28.1913 28.2108 28.3948 27.7185C28.5984 27.2262 28.9431 26.8054 29.3853 26.5094C29.8275 26.2133 30.3474 26.0553 30.8793 26.0553C31.5923 26.0561 32.2758 26.3403 32.7799 26.8453C33.2841 27.3504 33.5676 28.0352 33.5685 28.7495ZM32.4679 28.7495C32.4679 28.4347 32.3747 28.127 32.2001 27.8653C32.0256 27.6036 31.7775 27.3996 31.4872 27.2791C31.197 27.1587 30.8775 27.1271 30.5694 27.1886C30.2613 27.25 29.9782 27.4015 29.756 27.6241C29.5339 27.8467 29.3826 28.1303 29.3213 28.439C29.26 28.7477 29.2914 29.0677 29.4117 29.3585C29.5319 29.6494 29.7355 29.8979 29.9968 30.0728C30.258 30.2477 30.5651 30.341 30.8793 30.341C31.3005 30.3405 31.7043 30.1727 32.0021 29.8744C32.2999 29.576 32.4674 29.1714 32.4679 28.7495Z" fill="#8DFCAF"/>
<path d="M20.898 14.375C20.5535 14.375 20.2742 14.6548 20.2742 15C20.2742 15.3452 20.5535 15.625 20.898 15.625H29.6317C29.9762 15.625 30.2555 15.3452 30.2555 15C30.2555 14.6548 29.9762 14.375 29.6317 14.375H20.898Z" fill="#8DFCAF"/>
<path d="M20.2742 18.75C20.2742 18.4048 20.5535 18.125 20.898 18.125H27.7602C28.1047 18.125 28.384 18.4048 28.384 18.75C28.384 19.0952 28.1047 19.375 27.7602 19.375H20.898C20.5535 19.375 20.2742 19.0952 20.2742 18.75Z" fill="#8DFCAF"/>
<path d="M20.898 21.875C20.5535 21.875 20.2742 22.1548 20.2742 22.5C20.2742 22.8452 20.5535 23.125 20.898 23.125H23.0814C23.426 23.125 23.7053 22.8452 23.7053 22.5C23.7053 22.1548 23.426 21.875 23.0814 21.875H20.898Z" fill="#8DFCAF"/>
<path d="M15.3064 17.9452C16.0552 17.3146 16.5312 16.3692 16.5312 15.3125C16.5312 13.414 14.995 11.875 13.1001 11.875C11.2052 11.875 9.669 13.414 9.669 15.3125C9.669 16.3692 10.1449 17.3146 10.8938 17.9452C10.2902 18.1993 9.73073 18.5582 9.24415 19.0108C8.19959 19.9824 7.56975 21.3128 7.48666 22.7304C7.48594 22.7426 7.48558 22.7548 7.48558 22.767C7.48558 23.3156 7.76025 23.7546 8.12673 24.0769C8.4845 24.3916 8.95867 24.6248 9.46744 24.7989C10.4891 25.1483 11.8102 25.3125 13.1001 25.3125C14.39 25.3125 15.7111 25.1483 16.7327 24.7989C17.2415 24.6248 17.7157 24.3916 18.0734 24.0769C18.4399 23.7546 18.7146 23.3156 18.7146 22.767C18.7146 22.7548 18.7142 22.7426 18.7135 22.7304C18.6304 21.3128 18.0003 19.9823 16.9558 19.0108C16.4693 18.5582 15.9099 18.1994 15.3064 17.9452ZM10.9167 15.3125C10.9167 14.1044 11.8942 13.125 13.1001 13.125C14.306 13.125 15.2835 14.1044 15.2835 15.3125C15.2835 16.5206 14.306 17.5 13.1001 17.5C11.8942 17.5 10.9167 16.5206 10.9167 15.3125ZM13.1001 18.75C14.2199 18.75 15.2954 19.172 16.1069 19.9268C16.9126 20.6762 17.3973 21.6968 17.4666 22.7812C17.4628 22.871 17.4206 22.9878 17.2503 23.1376C17.0622 23.303 16.7566 23.4699 16.3296 23.6159C15.4797 23.9066 14.3056 24.0625 13.1001 24.0625C11.8946 24.0625 10.7205 23.9066 9.87057 23.6159C9.44359 23.4699 9.13796 23.303 8.94988 23.1376C8.77962 22.9878 8.73741 22.871 8.73355 22.7812C8.8029 21.6967 9.28745 20.6762 10.093 19.9268C10.9045 19.172 11.9802 18.75 13.1001 18.75Z" fill="#8DFCAF"/>
</svg>
