<svg width="88" height="40" viewBox="0 0 88 40" fill="none" xmlns="http://www.w3.org/2000/svg">
<path fill-rule="evenodd" clip-rule="evenodd" d="M29.0345 21.0928H34.8665L34.3759 23.2607C33.6469 25.8425 32.4642 27.0273 30.7278 28.2236C29.1553 29.3071 26.8443 29.5819 24.0365 29.5453H0.353516L1.43336 24.4445H24.8317C24.8317 24.4445 26.5198 24.3839 27.6343 23.6724C28.4168 23.173 28.5229 22.7979 28.8234 21.9631C28.9988 21.4772 29.0345 21.0928 29.0345 21.0928Z" fill="#005479"/>
<path fill-rule="evenodd" clip-rule="evenodd" d="M0.523475 18.5685L4.48885 0H10.3492L9.24626 5.12065H26.6467C29.0763 5.12065 33.0049 5.21781 34.9944 7.81732C36.2865 9.50469 36.7697 10.747 36.4871 12.8094L36.2591 13.9671L30.549 13.9682L30.653 13.4729C30.7633 12.9568 31.0606 12.2411 30.2318 11.1074C29.5868 10.3447 28.9818 10.2235 27.6099 10.1922L8.12545 10.1911L6.37123 18.5685H0.523475Z" fill="#005479"/>
<path fill-rule="evenodd" clip-rule="evenodd" d="M87.1459 18.5685H81.336L81.1396 19.4869C80.7835 21.0301 80.5639 22.5221 79.6627 23.3213C78.6689 24.2032 77.4284 24.4445 76.4809 24.4445H55.0416L53.9565 29.5265H77.1101C79.8276 29.4879 81.7614 28.9529 83.8434 27.1004C86.0188 25.1634 86.2762 22.6265 86.835 20.0114C86.9558 19.4461 87.1459 18.5685 87.1459 18.5685Z" fill="#005479"/>
<path fill-rule="evenodd" clip-rule="evenodd" d="M59.9305 15.8606L60.3822 13.7532C60.6332 12.488 61.0681 11.7064 61.8192 11.0952C62.5881 10.4694 63.6669 10.1925 64.897 10.1925H86.0579L87.1398 5.12096L63.7814 5.12514C61.378 5.19723 58.9788 5.82099 57.4158 7.38821C55.4945 9.08917 55.1174 10.8486 54.6185 13.3447L54.0775 15.8606H59.9305Z" fill="#005479"/>
<path fill-rule="evenodd" clip-rule="evenodd" d="M46.304 18.5698H9.86035V18.4988C15.8205 18.3274 20.9655 18.2752 30.1936 17.0904C34.7881 16.5011 37.847 15.3518 40.9573 13.656C42.4878 12.8223 44.7945 11.1339 45.949 9.91455C48.8681 6.83339 49.4206 3.55371 49.4206 3.55371H49.49L46.304 18.5698Z" fill="#FF3233"/>
<path fill-rule="evenodd" clip-rule="evenodd" d="M46.3025 18.5699C46.3025 18.5699 48.5588 18.5699 77.7997 18.5699V18.6409C68.6903 19.1999 64.1167 19.4068 59.4707 20.3398C56.1062 20.9479 53.4076 21.9916 50.833 23.469C49.0588 24.4867 47.4054 25.8543 46.4296 26.825C44.1712 29.0859 43.7384 30.9938 43.7384 30.9938H43.6659L46.3025 18.5699Z" fill="#FF3233"/>
<path fill-rule="evenodd" clip-rule="evenodd" d="M55.4877 38.0727C55.8858 38.0727 56.3102 38.1855 56.2251 38.6473C56.1117 39.2606 55.3039 39.2073 55.3039 39.2073H51.6505L51.4814 39.9889H55.1159C55.9667 39.992 57.0234 39.7663 57.1758 38.6275C57.2745 37.8909 56.8249 37.2713 55.7157 37.2901H53.5423C53.2818 37.2901 52.9835 37.1282 53.0223 36.7656C53.0791 36.2359 53.6474 36.2484 53.8007 36.2484H57.4772L57.6537 35.4679H53.8511C52.9047 35.469 52.2734 35.8702 52.1494 36.6852C52.057 37.2974 52.3207 38.0288 53.2881 38.0727H55.4877Z" fill="#005479"/>
<path fill-rule="evenodd" clip-rule="evenodd" d="M23.057 39.9891H24.0518L24.8364 36.2476H27.6358C27.9783 36.2476 28.0571 36.3385 28.1327 36.4367C28.2146 36.5433 28.2388 36.6446 28.1884 36.8536L27.5161 39.9891H28.4898L29.1401 36.9466C29.2073 36.6572 29.2577 36.3197 29.0329 35.9697C28.7672 35.5538 28.3449 35.4682 27.8449 35.4682H25.0003L25.2766 34.1799H24.2976L23.057 39.9891Z" fill="#005479"/>
<path fill-rule="evenodd" clip-rule="evenodd" d="M21.2122 39.9891L21.3793 39.2076H17.5042C17.3929 39.2076 17.3193 39.1804 17.2679 39.1302C17.1775 39.0414 17.2301 38.8617 17.2626 38.7081L17.6775 36.769C17.7164 36.5872 17.7479 36.4597 17.8687 36.351C18.0084 36.2246 18.1397 36.2476 18.417 36.2476L22.0106 36.2486L22.1807 35.4723H18.2269C17.9391 35.4723 17.5883 35.4995 17.2857 35.6886C16.9055 35.9258 16.7952 36.3594 16.7458 36.5736L16.2574 38.8158C16.1912 39.1198 16.187 39.4907 16.4527 39.755C16.688 39.988 17.103 39.9891 17.27 39.9891H21.2122Z" fill="#005479"/>
<path fill-rule="evenodd" clip-rule="evenodd" d="M71.9375 39.2073L68.3607 39.2105C68.1622 39.2073 68.0362 39.177 67.9269 39.0726C67.8219 38.9733 67.8586 38.7758 67.9227 38.4655L68.3975 36.2474H71.2001L71.3671 35.469H68.5645L68.846 34.1797H67.845L66.887 38.6536C66.7988 39.0694 66.783 39.3682 67.0456 39.6744C67.3072 39.9763 67.763 39.9889 68.0215 39.9889H71.7652L71.9375 39.2073Z" fill="#005479"/>
<path fill-rule="evenodd" clip-rule="evenodd" d="M43.9588 38.0733L44.1279 37.2866L46.5166 37.2907L46.9042 35.4686H47.8065L47.4147 37.2897L49.7729 37.2866L49.6049 38.0733L47.2498 38.0723L46.8464 39.9895H45.9315L46.3496 38.0723L43.9588 38.0733Z" fill="#005479"/>
<path fill-rule="evenodd" clip-rule="evenodd" d="M65.4983 35.4686H64.5235L63.8575 38.6521C63.7945 38.8851 63.741 38.9635 63.6096 39.0617C63.4657 39.1683 63.2956 39.2069 63.054 39.2069H60.4878C60.346 39.2069 60.1642 39.1714 60.1044 39.068C60.0245 38.9311 60.0518 38.8109 60.0791 38.6563L60.7514 35.4686H59.7882L59.1264 38.5644C59.0329 39.0011 59.0266 39.3062 59.2987 39.6269C59.5539 39.9289 59.9888 39.9895 60.2472 39.9895L63.0046 39.9884C63.2683 39.9884 63.9416 40.0198 64.3355 39.6593C64.6853 39.3375 64.7346 39.0314 64.8302 38.602L65.4983 35.4686Z" fill="#005479"/>
<path fill-rule="evenodd" clip-rule="evenodd" d="M79.0735 38.0727H75.6049L75.773 37.2859H78.273L78.4012 36.6893C78.4285 36.5629 78.438 36.4825 78.3728 36.3769C78.3056 36.2714 78.1785 36.2484 77.9999 36.2505H75.4274C75.1596 36.2411 74.9463 36.2819 74.8066 36.3895C74.6627 36.5013 74.6039 36.6768 74.5713 36.8492L74.1879 38.6891C74.1627 38.8082 74.1291 38.9451 74.1921 39.0621C74.2457 39.1603 74.3854 39.2136 74.523 39.2073H78.5094L78.3455 39.9889L74.2236 39.991C73.9925 39.992 73.565 39.9408 73.3749 39.7507C73.1186 39.4957 73.085 39.2042 73.1921 38.732L73.6018 36.8137C73.7058 36.3268 73.8014 35.9789 74.1732 35.7302C74.4988 35.5129 74.8486 35.4679 75.2121 35.47L78.1932 35.4679C78.4884 35.4679 78.9915 35.4293 79.2678 35.8159C79.4516 36.0739 79.4495 36.3268 79.3802 36.6569L79.0735 38.0727Z" fill="#005479"/>
<path fill-rule="evenodd" clip-rule="evenodd" d="M36.6881 38.0822H33.2196L33.3877 37.2965L35.8835 37.2954L36.0159 36.6988C36.0432 36.5724 36.0526 36.493 35.9875 36.3875C35.9203 36.2809 35.7911 36.2464 35.6125 36.2475H33.0421C32.7742 36.2391 32.561 36.2914 32.4213 36.399C32.2774 36.5108 32.2186 36.6863 32.186 36.8587L31.8026 38.6986C31.7774 38.8177 31.7438 38.9546 31.8068 39.0716C31.8604 39.1698 32.0001 39.2231 32.1377 39.2169H36.1241L35.9602 39.9984L31.8383 40.0005C31.6072 40.0015 31.1797 39.9503 30.9895 39.7602C30.7322 39.5052 30.6996 39.2137 30.8068 38.7415L31.2164 36.8232C31.3204 36.3363 31.416 35.9884 31.7879 35.7397C32.1135 35.5213 32.4644 35.466 32.8278 35.4691H35.8089C36.1051 35.4691 36.6062 35.4388 36.8825 35.8264C37.0673 36.0845 37.0642 36.3363 36.9949 36.6665L36.6881 38.0822Z" fill="#005479"/>
<path fill-rule="evenodd" clip-rule="evenodd" d="M1.61193 39.2073L2.68547 34.1797H1.71908L0.478516 39.9889H4.81049C5.42184 39.9889 5.76219 39.9178 6.02794 39.6702C6.19391 39.5145 6.33677 39.2679 6.42396 38.8187L6.84413 36.8523C6.95547 36.2871 6.82102 35.9538 6.56471 35.7145C6.33362 35.5003 5.85462 35.469 5.61197 35.469H3.25796L3.07938 36.2474H5.37248C5.46281 36.2474 5.72227 36.2453 5.83256 36.3748C5.97542 36.542 5.89874 36.6883 5.88509 36.8074L5.46281 38.7831C5.4418 38.8866 5.4229 38.9681 5.27058 39.0935C5.11617 39.2199 4.72961 39.2126 4.72961 39.2126L1.61193 39.2073Z" fill="#005479"/>
<path fill-rule="evenodd" clip-rule="evenodd" d="M14.9265 35.4686H13.9422L13.2762 38.6521C13.2111 38.9248 13.168 38.9374 13.022 39.0523C12.8655 39.1766 12.7342 39.2163 12.5315 39.2069H9.84553C9.70372 39.2069 9.57452 39.1463 9.52304 39.069C9.47262 38.9938 9.44741 38.9165 9.49258 38.7054L10.1869 35.4644H9.20056L8.54194 38.533C8.44845 38.9666 8.4348 39.2989 8.71736 39.6269C8.97472 39.9268 9.4075 39.9895 9.6659 39.9895H12.6386C12.9023 39.9895 13.4485 39.9676 13.7993 39.6531C14.1365 39.3511 14.1617 39.0178 14.2584 38.5873L14.9265 35.4686Z" fill="#005479"/>
<path fill-rule="evenodd" clip-rule="evenodd" d="M43.0587 36.2478H40.7204C40.4673 36.253 40.399 36.2781 40.253 36.4024C40.1154 36.5195 40.065 36.6521 40.0282 36.8078L39.3444 39.9893H38.3706L39.1049 36.5539C39.1668 36.253 39.295 35.9511 39.5912 35.7149C39.9578 35.4234 40.5082 35.4684 40.7666 35.4684H43.2278L43.0587 36.2478Z" fill="#005479"/>
<path fill-rule="evenodd" clip-rule="evenodd" d="M85.4485 36.2503H83.1103C82.9317 36.2545 82.7552 36.3057 82.6313 36.4123C82.4937 36.5293 82.459 36.6358 82.418 36.8093L81.7342 39.9918L80.7499 39.9887L81.4537 36.6985C81.5294 36.3464 81.6155 35.9807 81.9695 35.7195C82.3529 35.4364 82.8981 35.4709 83.1565 35.4709H85.6176L85.4485 36.2503Z" fill="#005479"/>
</svg>
