<svg width="177" height="26" viewBox="0 0 177 26" fill="none" xmlns="http://www.w3.org/2000/svg">
<path d="M13.4319 19.2474C16.8837 19.2474 19.6819 16.4492 19.6819 12.9974C19.6819 9.54566 16.8837 6.74745 13.4319 6.74745C9.9801 6.74745 7.18188 9.54566 7.18188 12.9974C7.18188 16.4492 9.9801 19.2474 13.4319 19.2474Z" fill="white"/>
<path d="M13.4319 6.75005H24.2553C23.1585 4.84974 21.5807 3.27168 19.6806 2.17456C17.7805 1.07744 15.625 0.49992 13.4309 0.500079C11.2368 0.500237 9.08138 1.07807 7.18142 2.17546C5.28146 3.27286 3.70391 4.85114 2.6074 6.75161L8.01885 16.125L8.02406 16.124C7.47345 15.1746 7.18286 14.0969 7.18159 12.9994C7.18032 11.902 7.46841 10.8236 8.01682 9.87297C8.56523 8.92235 9.35457 8.13312 10.3053 7.58484C11.256 7.03657 12.3344 6.74863 13.4319 6.75005Z" fill="url(#paint0_linear_3254_9082)"/>
<path d="M13.4319 17.9479C16.1645 17.9479 18.3798 15.7327 18.3798 13C18.3798 10.2674 16.1645 8.05213 13.4319 8.05213C10.6992 8.05213 8.48396 10.2674 8.48396 13C8.48396 15.7327 10.6992 17.9479 13.4319 17.9479Z" fill="#1A73E8"/>
<path d="M18.8439 16.1266L13.4324 25.5C15.6265 25.5003 17.782 24.9229 19.6822 23.8259C21.5823 22.7289 23.1602 21.1509 24.2571 19.2507C25.354 17.3505 25.9313 15.1949 25.9309 13.0008C25.9305 10.8068 25.3524 8.65144 24.2548 6.75161H13.4314L13.4298 6.75682C14.5272 6.75472 15.6057 7.04196 16.5567 7.58957C17.5077 8.13718 18.2975 8.92582 18.8465 9.87599C19.3955 10.8262 19.6844 11.9043 19.6839 13.0016C19.6835 14.099 19.3937 15.1769 18.8439 16.1266Z" fill="url(#paint1_linear_3254_9082)"/>
<path d="M8.0199 16.1266L2.60792 6.75318C1.51058 8.65319 0.932822 10.8086 0.932751 13.0028C0.932681 15.1969 1.5103 17.3524 2.60752 19.2524C3.70474 21.1525 5.28289 22.7302 7.18327 23.8269C9.08366 24.9236 11.2393 25.5007 13.4334 25.5L18.8449 16.1266L18.8412 16.1229C18.2943 17.0743 17.5063 17.8647 16.5566 18.4144C15.6069 18.9641 14.529 19.2538 13.4316 19.2542C12.3343 19.2545 11.2562 18.9656 10.3061 18.4165C9.356 17.8674 8.56744 17.0776 8.0199 16.1266Z" fill="url(#paint2_linear_3254_9082)"/>
<path d="M37.4746 18.178C36.1714 18.178 35.0893 17.7356 34.2284 16.8508C33.3795 15.9421 32.9551 14.8242 32.9551 13.497C32.9551 12.1459 33.3795 11.028 34.2284 10.1432C35.0893 9.25842 36.1714 8.81603 37.4746 8.81603C38.3714 8.81603 39.1545 9.04321 39.8241 9.49755C40.4937 9.93995 40.9958 10.5557 41.3306 11.3448L39.8241 11.9726C39.3578 10.8726 38.5388 10.3226 37.367 10.3226C36.6138 10.3226 35.9621 10.6274 35.4121 11.2372C34.8741 11.847 34.6051 12.6003 34.6051 13.497C34.6051 14.3938 34.8741 15.147 35.4121 15.7568C35.9621 16.3666 36.6138 16.6715 37.367 16.6715C38.5746 16.6715 39.4236 16.1215 39.9138 15.0215L41.3844 15.6492C41.0616 16.4383 40.5534 17.0601 39.86 17.5144C39.1784 17.9568 38.3833 18.178 37.4746 18.178Z" fill="#5F6368"/>
<path d="M42.8275 5.04973H44.4775V9.10299L44.4057 10.3226H44.4775C44.7286 9.89212 45.1112 9.53342 45.6253 9.24647C46.1514 8.95951 46.6954 8.81603 47.2574 8.81603C48.3335 8.81603 49.1585 9.1269 49.7324 9.74864C50.3182 10.3584 50.6112 11.2313 50.6112 12.3671V17.891H48.9612V12.6899C48.9612 11.1117 48.2617 10.3226 46.8628 10.3226C46.1932 10.3226 45.6253 10.6035 45.159 11.1655C44.7046 11.7155 44.4775 12.3611 44.4775 13.1024V17.891H42.8275V5.04973Z" fill="#5F6368"/>
<path d="M54.198 17.891H52.548V9.10299H54.1262V10.5378H54.198C54.3654 10.0715 54.7061 9.6769 55.2203 9.35408C55.7464 9.01929 56.2605 8.8519 56.7627 8.8519C57.2409 8.8519 57.6474 8.92364 57.9822 9.06712L57.48 10.6633C57.2768 10.5796 56.954 10.5378 56.5116 10.5378C55.8898 10.5378 55.3458 10.7889 54.8795 11.291C54.4252 11.7932 54.198 12.3791 54.198 13.0486V17.891Z" fill="#5F6368"/>
<path d="M58.0182 13.497C58.0182 12.1459 58.4427 11.028 59.2916 10.1432C60.1525 9.25842 61.2345 8.81603 62.5378 8.81603C63.8411 8.81603 64.9171 9.25842 65.7661 10.1432C66.6269 11.028 67.0574 12.1459 67.0574 13.497C67.0574 14.8601 66.6269 15.978 65.7661 16.8508C64.9171 17.7356 63.8411 18.178 62.5378 18.178C61.2345 18.178 60.1525 17.7356 59.2916 16.8508C58.4427 15.966 58.0182 14.8481 58.0182 13.497ZM59.6682 13.497C59.6682 14.4416 59.9432 15.2068 60.4932 15.7927C61.0432 16.3785 61.7248 16.6715 62.5378 16.6715C63.3508 16.6715 64.0324 16.3785 64.5824 15.7927C65.1324 15.2068 65.4074 14.4416 65.4074 13.497C65.4074 12.5644 65.1324 11.8052 64.5824 11.2193C64.0204 10.6215 63.3389 10.3226 62.5378 10.3226C61.7367 10.3226 61.0552 10.6215 60.4932 11.2193C59.9432 11.8052 59.6682 12.5644 59.6682 13.497Z" fill="#5F6368"/>
<path d="M70.031 17.891H68.381V9.10299H69.9593V10.3226H70.031C70.2821 9.89212 70.6647 9.53342 71.1789 9.24647C71.7049 8.95951 72.2251 8.81603 72.7392 8.81603C73.3848 8.81603 73.9528 8.96549 74.443 9.2644C74.9332 9.56332 75.2919 9.97582 75.5191 10.5019C76.2484 9.37799 77.2588 8.81603 78.5501 8.81603C79.5664 8.81603 80.3495 9.1269 80.8995 9.74864C81.4495 10.3704 81.7245 11.2552 81.7245 12.403V17.891H80.0745V12.6541C80.0745 11.8291 79.9251 11.2372 79.6261 10.8785C79.3272 10.5079 78.8251 10.3226 78.1196 10.3226C77.4859 10.3226 76.9539 10.5916 76.5234 11.1296C76.093 11.6677 75.8778 12.3014 75.8778 13.0307V17.891H74.2278V12.6541C74.2278 11.8291 74.0783 11.2372 73.7794 10.8785C73.4805 10.5079 72.9783 10.3226 72.2729 10.3226C71.6392 10.3226 71.1071 10.5916 70.6767 11.1296C70.2463 11.6677 70.031 12.3014 70.031 13.0307V17.891Z" fill="#5F6368"/>
<path d="M87.5993 18.178C86.308 18.178 85.2438 17.7356 84.4069 16.8508C83.5699 15.966 83.1514 14.8481 83.1514 13.497C83.1514 12.1579 83.558 11.0459 84.371 10.1611C85.1841 9.2644 86.2243 8.81603 87.4917 8.81603C88.7949 8.81603 89.8292 9.24049 90.5944 10.0894C91.3716 10.9264 91.7601 12.1041 91.7601 13.6226L91.7422 13.8019H84.8373C84.8612 14.6628 85.1482 15.3563 85.6982 15.8823C86.2482 16.4084 86.9058 16.6715 87.671 16.6715C88.7232 16.6715 89.5482 16.1454 90.146 15.0932L91.6167 15.8106C91.2221 16.5519 90.6721 17.1318 89.9667 17.5503C89.2732 17.9688 88.4841 18.178 87.5993 18.178ZM84.9629 12.4389H90.0025C89.9547 11.8291 89.7036 11.3269 89.2493 10.9323C88.8069 10.5258 88.2091 10.3226 87.4558 10.3226C86.8341 10.3226 86.296 10.5139 85.8417 10.8965C85.3993 11.2791 85.1063 11.7932 84.9629 12.4389Z" fill="#5F6368"/>
<path d="M101.155 18.178C99.8641 18.178 98.8 17.7356 97.9631 16.8508C97.1261 15.966 96.7076 14.8481 96.7076 13.497C96.7076 12.1579 97.1141 11.0459 97.9272 10.1611C98.7402 9.2644 99.7804 8.81603 101.048 8.81603C102.351 8.81603 103.385 9.24049 104.151 10.0894C104.928 10.9264 105.316 12.1041 105.316 13.6226L105.298 13.8019H98.3935C98.4174 14.6628 98.7044 15.3563 99.2544 15.8823C99.8044 16.4084 100.462 16.6715 101.227 16.6715C102.279 16.6715 103.104 16.1454 103.702 15.0932L105.173 15.8106C104.778 16.5519 104.228 17.1318 103.523 17.5503C102.829 17.9688 102.04 18.178 101.155 18.178ZM98.519 12.4389H103.559C103.511 11.8291 103.26 11.3269 102.805 10.9323C102.363 10.5258 101.765 10.3226 101.012 10.3226C100.39 10.3226 99.8522 10.5139 99.3978 10.8965C98.9554 11.2791 98.6625 11.7932 98.519 12.4389Z" fill="#5F6368"/>
<path d="M106.825 9.10299H108.403V10.3226H108.475C108.726 9.89212 109.109 9.53342 109.623 9.24647C110.149 8.95951 110.693 8.81603 111.255 8.81603C112.331 8.81603 113.156 9.1269 113.73 9.74864C114.316 10.3584 114.609 11.2313 114.609 12.3671V17.891H112.959V12.4747C112.923 11.0399 112.2 10.3226 110.789 10.3226C110.131 10.3226 109.581 10.5916 109.139 11.1296C108.696 11.6557 108.475 12.2894 108.475 13.0307V17.891H106.825V9.10299Z" fill="#5F6368"/>
<path d="M119.57 18.0345C118.852 18.0345 118.254 17.8133 117.776 17.3709C117.31 16.9285 117.071 16.3128 117.059 15.5236V10.6095H115.516V9.10299H117.059V6.41277H118.709V9.10299H120.861V10.6095H118.709V14.9856C118.709 15.5715 118.822 15.972 119.05 16.1872C119.277 16.3905 119.534 16.4921 119.821 16.4921C119.952 16.4921 120.078 16.4802 120.197 16.4563C120.329 16.4204 120.449 16.3785 120.556 16.3307L121.076 17.8014C120.646 17.9568 120.144 18.0345 119.57 18.0345Z" fill="#5F6368"/>
<path d="M126.289 18.178C124.997 18.178 123.933 17.7356 123.096 16.8508C122.259 15.966 121.841 14.8481 121.841 13.497C121.841 12.1579 122.247 11.0459 123.06 10.1611C123.873 9.2644 124.914 8.81603 126.181 8.81603C127.484 8.81603 128.519 9.24049 129.284 10.0894C130.061 10.9264 130.45 12.1041 130.45 13.6226L130.432 13.8019H123.527C123.551 14.6628 123.838 15.3563 124.388 15.8823C124.938 16.4084 125.595 16.6715 126.36 16.6715C127.413 16.6715 128.238 16.1454 128.835 15.0932L130.306 15.8106C129.911 16.5519 129.361 17.1318 128.656 17.5503C127.963 17.9688 127.173 18.178 126.289 18.178ZM123.652 12.4389H128.692C128.644 11.8291 128.393 11.3269 127.939 10.9323C127.496 10.5258 126.898 10.3226 126.145 10.3226C125.523 10.3226 124.985 10.5139 124.531 10.8965C124.089 11.2791 123.796 11.7932 123.652 12.4389Z" fill="#5F6368"/>
<path d="M133.608 17.891H131.958V9.10299H133.537V10.5378H133.608C133.776 10.0715 134.117 9.6769 134.631 9.35408C135.157 9.01929 135.671 8.8519 136.173 8.8519C136.651 8.8519 137.058 8.92364 137.393 9.06712L136.89 10.6633C136.687 10.5796 136.364 10.5378 135.922 10.5378C135.3 10.5378 134.756 10.7889 134.29 11.291C133.836 11.7932 133.608 12.3791 133.608 13.0486V17.891Z" fill="#5F6368"/>
<path d="M142.778 16.6715C143.567 16.6715 144.231 16.3726 144.769 15.7747C145.307 15.1889 145.576 14.4296 145.576 13.497C145.576 12.5764 145.307 11.8171 144.769 11.2193C144.231 10.6215 143.567 10.3226 142.778 10.3226C141.977 10.3226 141.307 10.6215 140.769 11.2193C140.243 11.8171 139.98 12.5764 139.98 13.497C139.98 14.4296 140.243 15.1948 140.769 15.7927C141.307 16.3785 141.977 16.6715 142.778 16.6715ZM143.047 18.178C142.402 18.178 141.81 18.0405 141.272 17.7655C140.746 17.4905 140.339 17.1258 140.052 16.6715H139.98L140.052 17.891V21.7649H138.402V9.10299H139.98V10.3226H140.052C140.339 9.86821 140.746 9.50353 141.272 9.22853C141.81 8.95353 142.402 8.81603 143.047 8.81603C144.207 8.81603 145.187 9.27038 145.988 10.1791C146.813 11.0997 147.226 12.2057 147.226 13.497C147.226 14.8003 146.813 15.9062 145.988 16.8149C145.187 17.7236 144.207 18.178 143.047 18.178Z" fill="#5F6368"/>
<path d="M150.3 17.891H148.65V9.10299H150.228V10.5378H150.3C150.467 10.0715 150.808 9.6769 151.322 9.35408C151.848 9.01929 152.362 8.8519 152.864 8.8519C153.343 8.8519 153.749 8.92364 154.084 9.06712L153.582 10.6633C153.378 10.5796 153.056 10.5378 152.613 10.5378C151.992 10.5378 151.448 10.7889 150.981 11.291C150.527 11.7932 150.3 12.3791 150.3 13.0486V17.891Z" fill="#5F6368"/>
<path d="M157.299 6.07201C157.299 6.39484 157.186 6.66984 156.959 6.89701C156.731 7.12418 156.456 7.23777 156.134 7.23777C155.811 7.23777 155.536 7.12418 155.309 6.89701C155.081 6.66984 154.968 6.39484 154.968 6.07201C154.968 5.74918 155.081 5.47418 155.309 5.24701C155.536 5.01984 155.811 4.90625 156.134 4.90625C156.456 4.90625 156.731 5.01984 156.959 5.24701C157.186 5.47418 157.299 5.74918 157.299 6.07201ZM156.959 9.10299V17.891H155.309V9.10299H156.959Z" fill="#5F6368"/>
<path d="M165.831 15.4519C165.831 16.2171 165.497 16.8628 164.827 17.3889C164.157 17.9149 163.314 18.178 162.298 18.178C161.413 18.178 160.636 17.9508 159.967 17.4965C159.297 17.0302 158.819 16.4204 158.532 15.6671L160.003 15.0394C160.218 15.5655 160.529 15.978 160.935 16.2769C161.354 16.5639 161.808 16.7073 162.298 16.7073C162.824 16.7073 163.261 16.5938 163.607 16.3666C163.966 16.1394 164.145 15.8704 164.145 15.5595C164.145 14.9976 163.715 14.5851 162.854 14.322L161.348 13.9454C159.638 13.5149 158.783 12.6899 158.783 11.4704C158.783 10.6693 159.106 10.0296 159.751 9.55136C160.409 9.06114 161.246 8.81603 162.262 8.81603C163.039 8.81603 163.739 9.00136 164.361 9.37201C164.994 9.74266 165.437 10.2389 165.688 10.8606L164.217 11.4704C164.05 11.0997 163.775 10.8128 163.392 10.6095C163.022 10.3943 162.603 10.2867 162.137 10.2867C161.706 10.2867 161.318 10.3943 160.971 10.6095C160.636 10.8247 160.469 11.0878 160.469 11.3986C160.469 11.9008 160.941 12.2595 161.886 12.4747L163.213 12.8155C164.959 13.2459 165.831 14.1247 165.831 15.4519Z" fill="#5F6368"/>
<path d="M171.301 18.178C170.009 18.178 168.945 17.7356 168.108 16.8508C167.271 15.966 166.853 14.8481 166.853 13.497C166.853 12.1579 167.259 11.0459 168.072 10.1611C168.886 9.2644 169.926 8.81603 171.193 8.81603C172.496 8.81603 173.531 9.24049 174.296 10.0894C175.073 10.9264 175.462 12.1041 175.462 13.6226L175.444 13.8019H168.539C168.563 14.6628 168.85 15.3563 169.4 15.8823C169.95 16.4084 170.607 16.6715 171.372 16.6715C172.425 16.6715 173.25 16.1454 173.847 15.0932L175.318 15.8106C174.924 16.5519 174.374 17.1318 173.668 17.5503C172.975 17.9688 172.186 18.178 171.301 18.178ZM168.664 12.4389H173.704C173.656 11.8291 173.405 11.3269 172.951 10.9323C172.508 10.5258 171.911 10.3226 171.157 10.3226C170.536 10.3226 169.997 10.5139 169.543 10.8965C169.101 11.2791 168.808 11.7932 168.664 12.4389Z" fill="#5F6368"/>
<defs>
<linearGradient id="paint0_linear_3254_9082" x1="0.931641" y1="13" x2="25.9316" y2="13" gradientUnits="userSpaceOnUse">
<stop stop-color="#D93025"/>
<stop offset="1" stop-color="#EA4335"/>
</linearGradient>
<linearGradient id="paint1_linear_3254_9082" x1="-2.47848" y1="25.2771" x2="8.697" y2="-3.75241" gradientUnits="userSpaceOnUse">
<stop stop-color="#FCC934"/>
<stop offset="1" stop-color="#FBBC04"/>
</linearGradient>
<linearGradient id="paint2_linear_3254_9082" x1="14.785" y1="24.7198" x2="3.9611" y2="5.97194" gradientUnits="userSpaceOnUse">
<stop stop-color="#1E8E3E"/>
<stop offset="1" stop-color="#34A853"/>
</linearGradient>
</defs>
</svg>
