<svg width="183" height="45" viewBox="0 0 183 45" fill="none" xmlns="http://www.w3.org/2000/svg">
<g clip-path="url(#clip0_3206_10052)">
<path d="M29.4134 44.3873C29.4134 44.6628 29.5657 44.8158 29.8093 44.8158H30.2356C30.5096 44.8158 30.6619 44.6628 30.6619 44.3873V36.8567H33.3414C33.6154 36.8567 33.7372 36.7036 33.7372 36.4281V36.1832C33.7372 35.9077 33.585 35.7546 33.3414 35.7546H26.7339C26.4599 35.7546 26.3076 35.9077 26.3076 36.1832V36.4281C26.3076 36.7036 26.4599 36.8567 26.7339 36.8567H29.4134V44.3873ZM35.8078 44.3873C35.8078 44.6628 35.96 44.8158 36.2341 44.8158H36.6299C36.904 44.8158 37.0562 44.6628 37.0562 44.3873V41.2036H38.9745L40.7406 44.5097C40.8319 44.724 40.9842 44.8158 41.2277 44.8158H41.7454C42.0499 44.8158 42.2021 44.6016 42.0194 44.3261L40.4056 41.3261C40.2534 41.0505 40.1316 40.9281 40.1316 40.9281V40.8975C41.1364 40.5608 41.7454 39.5505 41.7454 38.4179C41.7454 37.2546 41.1973 36.4281 40.3447 36.0301C39.9793 35.8771 39.553 35.7852 38.67 35.7852H36.2341C35.96 35.7852 35.8078 35.9383 35.8078 36.2138V44.3873ZM37.0562 40.1016V36.8567H38.5787C39.1572 36.8567 39.4312 36.9179 39.6444 37.0097C40.1925 37.2546 40.497 37.775 40.497 38.4179C40.497 39.4281 39.8575 40.1016 38.8832 40.1016H37.0562ZM43.6028 44.3261C43.5114 44.6322 43.6332 44.8158 43.9377 44.8158H44.364C44.6076 44.8158 44.7599 44.6934 44.8208 44.4791L45.6124 42.2138H49.0228L49.8144 44.4791C49.9058 44.724 50.058 44.8158 50.3016 44.8158H50.7279C51.0324 44.8158 51.1847 44.6322 51.0629 44.3261L48.1093 36.0914C48.0179 35.8465 47.8657 35.7546 47.6221 35.7546H47.0131C46.7695 35.7546 46.6173 35.8465 46.5564 36.0914L43.6028 44.3261ZM45.9778 41.1424L46.9827 38.2648C47.1349 37.8056 47.348 36.9791 47.348 36.9791H47.3785C47.3785 36.9791 47.5612 37.8056 47.7134 38.2648L48.7183 41.1424H45.9778ZM54.8995 44.4485C54.9908 44.6934 55.1431 44.7852 55.3866 44.7852H55.9956C56.2392 44.7852 56.3915 44.6934 56.4828 44.4485L59.4669 36.2138C59.5582 35.9077 59.4364 35.724 59.1319 35.724H58.6447C58.4011 35.724 58.2489 35.8158 58.188 36.0607L56.0565 42.122C55.9043 42.6118 55.7216 43.3771 55.7216 43.3771H55.6911C55.6911 43.3771 55.5084 42.6118 55.3562 42.122L53.2248 36.0607C53.1334 35.8158 52.9812 35.724 52.7376 35.724H52.2504C51.9459 35.724 51.7936 35.9077 51.9154 36.2138L54.8995 44.4485ZM61.6592 44.3873C61.6592 44.6628 61.8114 44.8158 62.0855 44.8158H66.6833C66.9574 44.8158 67.1096 44.6628 67.1096 44.3873V44.1424C67.1096 43.8669 66.9574 43.7138 66.6833 43.7138H62.9076V40.8056H65.7394C66.0134 40.8056 66.1657 40.6526 66.1657 40.3771V40.1016C66.1657 39.8261 66.0134 39.673 65.7394 39.673H62.9076V36.8261H66.4702C66.7442 36.8261 66.8965 36.673 66.8965 36.3975V36.1526C66.8965 35.8771 66.7442 35.724 66.4702 35.724H62.0855C61.8114 35.724 61.6592 35.8771 61.6592 36.1526V44.3873ZM69.576 44.3873C69.576 44.6628 69.7282 44.8158 70.0023 44.8158H74.4479C74.7219 44.8158 74.8742 44.6628 74.8742 44.3873V44.1424C74.8742 43.8669 74.7219 43.7138 74.4479 43.7138H70.8244V36.1832C70.8244 35.9077 70.6722 35.7546 70.3981 35.7546H70.0023C69.7282 35.7546 69.576 35.9077 69.576 36.1832V44.3873ZM80.9336 44.3873C80.9336 44.6628 81.0858 44.8158 81.3599 44.8158H81.7557C82.0297 44.8158 82.182 44.6628 82.182 44.3873V36.1832C82.182 35.9077 82.0297 35.7546 81.7557 35.7546H81.3599C81.0858 35.7546 80.9336 35.9077 80.9336 36.1832V44.3873ZM85.2878 44.3873C85.2878 44.6628 85.4401 44.8158 85.7141 44.8158H86.1099C86.384 44.8158 86.5362 44.6628 86.5362 44.3873V38.9383C86.5362 38.4179 86.4449 37.622 86.4449 37.622H86.4753C86.4753 37.622 86.9016 38.4485 87.2061 38.9383L91.0732 44.5403C91.195 44.7546 91.3472 44.8158 91.5604 44.8158H92.0475C92.3216 44.8158 92.4738 44.6628 92.4738 44.3873V36.1832C92.4738 35.9077 92.3216 35.7546 92.0475 35.7546H91.6517C91.3777 35.7546 91.2254 35.9077 91.2254 36.1832V41.6322C91.2254 42.122 91.2863 42.9485 91.2863 42.9485H91.2559C91.2559 42.9485 90.8296 42.122 90.5251 41.6322L86.6885 36.0301C86.5667 35.8159 86.4144 35.7546 86.1708 35.7546H85.6837C85.4096 35.7546 85.2574 35.9077 85.2574 36.1832V44.3873H85.2878ZM95.2143 44.0199C95.6101 44.3567 96.6149 44.9689 97.9243 44.9689C99.7208 44.9689 100.786 43.8056 100.786 42.3975C100.786 39.4893 96.4322 40.0097 96.4322 38.0505C96.4322 37.2546 97.1326 36.7954 98.0461 36.7954C98.8073 36.7954 99.3554 37.1016 99.7208 37.3158C99.9339 37.4383 100.147 37.4689 100.299 37.1934L100.482 36.8873C100.604 36.6424 100.573 36.4587 100.36 36.3056C100.025 36.0301 99.1727 35.6016 98.107 35.6016C96.4627 35.6016 95.1838 36.5812 95.1838 38.1118C95.1838 40.9281 99.5381 40.4995 99.5381 42.4893C99.5381 43.2852 98.8986 43.775 97.9547 43.775C97.0108 43.775 96.3104 43.2852 95.9755 43.0403C95.7319 42.8873 95.5492 42.9179 95.397 43.1322L95.1838 43.4383C94.9707 43.6832 95.062 43.8669 95.2143 44.0199ZM103.192 41.6016C103.192 43.622 104.623 44.9689 106.724 44.9689C108.825 44.9689 110.256 43.622 110.256 41.6016V36.1832C110.256 35.9077 110.104 35.7546 109.83 35.7546H109.404C109.13 35.7546 108.977 35.9077 108.977 36.1832V41.5709C108.977 42.9791 108.064 43.8056 106.694 43.8056C105.323 43.8056 104.41 42.9791 104.41 41.6016V36.1832C104.41 35.9077 104.258 35.7546 104.014 35.7546H103.588C103.314 35.7546 103.162 35.9077 103.162 36.1832V41.6016H103.192ZM113.301 44.3873C113.301 44.6628 113.453 44.8158 113.727 44.8158H114.123C114.397 44.8158 114.55 44.6628 114.55 44.3873V41.2036H116.468L118.234 44.5097C118.325 44.724 118.478 44.8158 118.721 44.8158H119.239C119.543 44.8158 119.695 44.6016 119.513 44.3261L117.899 41.3261C117.747 41.0505 117.625 40.9281 117.625 40.9281V40.8975C118.63 40.5608 119.239 39.5505 119.239 38.4179C119.239 37.2546 118.691 36.4281 117.838 36.0301C117.473 35.8771 117.046 35.7852 116.163 35.7852H113.727C113.453 35.7852 113.301 35.9383 113.301 36.2138V44.3873ZM114.55 40.1016V36.8567H116.042C116.62 36.8567 116.894 36.9179 117.107 37.0097C117.655 37.2546 117.96 37.775 117.96 38.4179C117.96 39.4281 117.32 40.1016 116.346 40.1016H114.55ZM121.066 44.3261C120.974 44.6322 121.096 44.8158 121.401 44.8158H121.827C122.071 44.8158 122.223 44.6934 122.284 44.4791L123.075 42.2138H126.455L127.247 44.4791C127.308 44.724 127.49 44.8158 127.704 44.8158H128.13C128.434 44.8158 128.587 44.6322 128.465 44.3261L125.511 36.0914C125.42 35.8465 125.268 35.7546 125.024 35.7546H124.415C124.172 35.7546 124.019 35.8465 123.958 36.0914L121.066 44.3261ZM123.441 41.1424L124.446 38.2648C124.598 37.8056 124.811 36.9791 124.811 36.9791H124.841C124.841 36.9791 125.024 37.8056 125.176 38.2648L126.181 41.1424H123.441ZM130.749 44.3873C130.749 44.6628 130.901 44.8158 131.175 44.8158H131.571C131.845 44.8158 131.997 44.6628 131.997 44.3873V38.9383C131.997 38.4179 131.906 37.622 131.906 37.622H131.936C131.936 37.622 132.362 38.4485 132.667 38.9383L136.534 44.5403C136.656 44.7546 136.808 44.8158 137.021 44.8158H137.508C137.782 44.8158 137.935 44.6628 137.935 44.3873V36.1832C137.935 35.9077 137.782 35.7546 137.508 35.7546H137.112C136.838 35.7546 136.686 35.9077 136.686 36.1832V41.6322C136.686 42.122 136.778 42.9485 136.778 42.9485H136.747C136.747 42.9485 136.321 42.122 136.016 41.6322L132.149 36.0301C132.027 35.8159 131.875 35.7546 131.632 35.7546H131.144C130.87 35.7546 130.718 35.9077 130.718 36.1832V44.3873H130.749ZM140.523 40.224C140.523 42.8873 142.35 44.9689 145.121 44.9689C146.765 44.9689 147.861 44.2036 148.318 43.8056C148.531 43.622 148.531 43.4077 148.379 43.224L148.196 42.9791C148.044 42.7648 147.831 42.7648 147.617 42.9179C147.222 43.224 146.369 43.8056 145.151 43.8056C143.08 43.8056 141.802 42.1526 141.802 40.224C141.802 38.3261 143.05 36.7648 145.121 36.7648C146.217 36.7648 147.008 37.224 147.374 37.4689C147.617 37.622 147.8 37.5914 147.952 37.3771L148.135 37.1322C148.287 36.8873 148.257 36.7036 148.044 36.5505C147.587 36.2138 146.613 35.6016 145.06 35.6016C142.411 35.6016 140.523 37.5914 140.523 40.224ZM150.936 44.3873C150.936 44.6628 151.089 44.8158 151.363 44.8158H155.961C156.235 44.8158 156.387 44.6628 156.387 44.3873V44.1424C156.387 43.8669 156.235 43.7138 155.961 43.7138H152.185V40.8056H155.017C155.291 40.8056 155.443 40.6526 155.443 40.3771V40.1016C155.443 39.8261 155.291 39.673 155.017 39.673H152.185V36.8261H155.747C156.021 36.8261 156.174 36.673 156.174 36.3975V36.1526C156.174 35.8771 156.021 35.724 155.747 35.724H151.332C151.058 35.724 150.906 35.8771 150.906 36.1526V44.3873H150.936Z" fill="black"/>
<path d="M19.5786 1.04081C17.0209 0.183672 14.7067 0 12.8798 0C4.78028 0 0.212891 4.80612 0.212891 10.9898C0.212891 16.6837 4.20174 21.8571 12.3012 21.8571C16.1987 21.8571 18.5738 20.9388 19.7004 20.5102L18.3302 16.9286C17.4167 17.3265 15.6507 18.0918 13.7019 18.0918C10.5961 18.0918 7.45981 16.2245 7.45981 10.7755C7.45981 6.18368 10.0784 3.7653 14.0064 3.7653C15.8334 3.7653 17.569 4.34694 18.2997 4.59184L19.5786 1.04081ZM19.8527 13.7755C19.8527 17.9388 22.9585 21.8571 29.4746 21.8571C35.7167 21.8571 39.4315 18.398 39.4315 13.4694C39.4315 9.03061 36.5084 5.32653 29.7487 5.32653C22.8671 5.32653 19.8527 9.48979 19.8527 13.7449V13.7755ZM26.6428 13.4082C26.6428 10.4694 27.1605 8.35714 29.6573 8.35714C31.6061 8.35714 32.6413 9.42858 32.6413 13.2245C32.6413 17.1429 31.9106 18.7959 29.6573 18.7959C27.3736 18.7959 26.6428 17.2041 26.6428 13.4388V13.4082ZM39.2793 5.63265C40.345 7.0102 41.3498 9.12245 42.1111 11.5102C42.8418 13.9286 43.329 16.6837 43.329 19.3776C43.329 20.2653 43.2681 21.0306 43.2377 21.551H47.0134C50.0279 19.0408 55.7219 12.949 57.1834 5.63265H53.3164C53.0728 6.94898 52.0375 11.1735 48.5359 15.5816C48.5359 15.3367 48.5968 14.449 48.5968 13.8673C48.5968 10.9592 47.8355 8.11224 46.3131 5.63265H39.2793ZM75.5139 14.051C75.5139 13.2551 76.0315 5.29592 66.6532 5.29592C61.355 5.29592 57.2139 8.66327 57.2139 13.5306C57.2139 17.6939 60.3806 21.8265 67.1708 21.8265C70.3375 21.8265 72.7126 20.9694 74.5395 20.1123L73.1693 17.1735C71.4946 17.8776 69.9417 18.3673 68.541 18.3673C65.2525 18.3673 63.9432 16.1939 64.0345 14.0204H75.5139V14.051ZM64.1259 11.3265C64.2172 9.4898 65.1307 8.26531 67.0185 8.26531C69.7285 8.26531 69.759 10.5612 69.759 11.3265H64.1259ZM77.4017 5.63265V21.551H83.7961V16.7755C83.7961 14.602 83.8874 13.6837 84.2224 12.8265C84.9532 10.7755 86.7801 10.3163 88.0285 10.3163C88.7593 10.3163 89.4292 10.4388 89.8859 10.5306L90.5863 5.63265C89.6119 5.44898 88.8811 5.44898 88.668 5.44898C85.349 5.44898 83.9179 8.35714 83.3089 9.79592L82.8522 5.63265H77.4017ZM98.8989 12.1837C98.8989 10.0408 97.1633 8.35714 95.0928 8.35714C92.9918 8.35714 91.2866 10.0714 91.2866 12.1837C91.2866 14.2653 92.9613 16.0102 95.0928 16.0102C97.1329 16.0102 98.8989 14.2959 98.8989 12.1837ZM101.335 0.275508V21.5204H105.872V5.05102L111.87 21.5204H114.976L120.944 5.05102V21.5204H127.491V0.275508H118.995L114.428 12.9184L109.861 0.275508H101.335ZM129.774 13.7755C129.774 17.9388 132.88 21.8571 139.366 21.8571C145.608 21.8571 149.323 18.398 149.323 13.4694C149.323 9.03061 146.4 5.32653 139.64 5.32653C132.758 5.32653 129.744 9.48979 129.744 13.7449V13.7755H129.774ZM136.565 13.4082C136.565 10.4694 137.082 8.35714 139.579 8.35714C141.528 8.35714 142.563 9.42858 142.563 13.2245C142.563 17.1429 141.832 18.7959 139.579 18.7959C137.295 18.7959 136.565 17.2041 136.565 13.4388V13.4082ZM151.454 5.63265V21.551H157.849V16.7755C157.849 14.602 157.94 13.6837 158.275 12.8265C159.006 10.7755 160.833 10.3163 162.081 10.3163C162.812 10.3163 163.482 10.4388 163.939 10.5306L164.639 5.63265C163.664 5.44898 162.934 5.44898 162.721 5.44898C159.402 5.44898 157.97 8.35714 157.361 9.79592L156.905 5.63265H151.454ZM182.908 14.051C182.908 13.2551 183.426 5.29592 174.048 5.29592C168.78 5.29592 164.608 8.66327 164.608 13.5306C164.608 17.6939 167.775 21.8265 174.565 21.8265C177.732 21.8265 180.107 20.9694 181.934 20.1123L180.564 17.1735C178.889 17.8776 177.336 18.3673 175.936 18.3673C172.647 18.3673 171.338 16.1939 171.429 14.0204H182.908V14.051ZM171.49 11.3265C171.581 9.4898 172.495 8.26531 174.383 8.26531C177.093 8.26531 177.123 10.5612 177.123 11.3265H171.49Z" fill="black"/>
</g>
<defs>
<clipPath id="clip0_3206_10052">
<rect width="183" height="45" fill="white"/>
</clipPath>
</defs>
</svg>
