<svg width="88" height="26" viewBox="0 0 88 26" fill="none" xmlns="http://www.w3.org/2000/svg">
<g clip-path="url(#clip0_3133_13852)">
<path d="M16.4152 19.6564C14.3277 23.8189 10.5965 25.1814 7.63397 25.1814C2.75897 25.1814 -0.484782 22.8439 1.02772 15.7252C1.47147 13.6439 3.60272 6.98145 11.1715 6.98145C14.584 6.98145 18.9527 8.60645 17.2715 16.5064L17.0965 17.3189H5.24647C5.10272 18.6189 4.74022 21.5439 8.40897 21.5439C9.67772 21.5439 11.1152 20.8939 11.734 19.6564H16.4152ZM13.0527 14.3627C13.384 11.5689 11.7777 10.7252 10.3152 10.7252C8.17147 10.7252 6.74022 12.0877 5.99647 14.3627H13.0527Z" fill="black"/>
<path d="M32.0494 12.15H41.7994L39.1244 24.7313H35.8744L36.0057 21.8062C34.4682 23.2375 32.2307 25.35 27.9744 25.35C22.3494 25.35 18.1057 21.3187 19.8432 13.1312C21.1869 6.79375 25.9744 0.78125 33.8119 0.78125H33.8744C41.0244 0.78125 42.8619 5.43125 42.4432 8.64375H37.5682C37.7619 7.73125 36.7244 4.80625 33.2807 4.80625C29.8057 4.80625 26.0744 7.2125 24.8057 13.1937C23.4494 19.5625 26.5807 21.2188 29.8932 21.2188C30.9682 21.2188 34.6307 20.7937 36.6369 16.0812H31.2119L32.0494 12.15Z" fill="black"/>
<path d="M57.5926 21.3498C57.1551 23.3998 57.5176 23.8498 58.0239 24.0498L57.8801 24.7311H52.9739C52.8864 23.9186 52.8739 23.6561 52.9864 22.6811C51.7176 23.7561 49.9551 25.1811 46.8676 25.1811C44.2676 25.1811 41.9114 23.7186 42.6739 20.1436C43.3926 16.7623 45.9051 15.0436 48.8864 14.6186L53.1114 13.9998C53.8489 13.8998 54.7864 13.6123 54.9926 12.6373C55.3989 10.7186 53.5989 10.6248 52.4301 10.6248C50.1551 10.6248 49.4676 12.0248 49.1239 13.0311H44.7364C46.3801 7.73105 50.2114 6.9873 53.7551 6.9873C56.1926 6.9873 60.4864 7.7373 59.5801 11.9936L57.5926 21.3498ZM54.2114 16.3123C53.6801 16.6686 52.8676 16.9623 50.9239 17.2561C49.1739 17.5498 47.6864 17.9686 47.2864 19.8561C46.9489 21.4498 48.0801 21.9373 48.9551 21.9373C50.9676 21.9373 53.2926 20.6373 53.7426 18.5248L54.2114 16.3123Z" fill="black"/>
<path d="M68.8002 7.43711L65.1252 24.7309H60.5752L64.2502 7.43711H68.8002ZM69.2314 5.38711H64.6814L65.5814 1.16211H70.1314L69.2314 5.38711Z" fill="black"/>
<path d="M84.6312 24.7252H80.0813L82.3125 14.2252C82.5813 12.9564 82.975 10.8127 80.0813 10.8127C78.0688 10.8127 76.2188 12.1752 75.6563 14.8127L73.55 24.7252H69L72.675 7.43145H77.0312L76.4937 9.96895H76.5562C77.3937 8.93145 79.1062 6.98145 82.3937 6.98145C85.775 6.98145 87.9875 8.96269 87.175 12.7689L84.6312 24.7252Z" fill="black"/>
</g>
<defs>
<clipPath id="clip0_3133_13852">
<rect width="87.5" height="25" fill="white" transform="translate(0.25 0.5)"/>
</clipPath>
</defs>
</svg>
