<svg width="108" height="26" viewBox="0 0 108 26" fill="none" xmlns="http://www.w3.org/2000/svg">
<path d="M76.4602 0.5H65.0834V3.76114H76.4602V0.5ZM106.967 5.6087L99.9743 1.55053L96.4238 3.68811L103.561 7.81861C103.851 7.96397 103.996 8.28981 103.996 8.57983V16.8043L107.619 14.6302V6.69505C107.605 6.4751 107.538 6.26175 107.425 6.07279C107.311 5.88383 107.154 5.72471 106.967 5.6087ZM18.2357 15.4638C18.2357 11.0798 15.6269 6.69575 9.75772 6.69575C4.68553 6.69575 0.880859 10.7174 0.880859 16.0431C0.880859 21.5142 4.68553 25.5 9.93889 25.5C13.0912 25.5 15.6269 24.2683 17.511 21.8042L17.9464 21.2607L15.5911 19.3408L15.1199 19.8843C13.5982 21.696 12.113 22.42 10.0112 22.42C6.60542 22.42 4.72134 19.8478 4.35899 17.239H18.2357V15.4638ZM9.68539 9.73921C12.5111 9.73921 14.3587 11.3698 14.7941 14.2321H4.39551C4.866 11.9849 6.82311 9.73921 9.68539 9.73921ZM24.1414 0.5H20.7722V25.0288H24.1414V0.5ZM44.0692 15.4272C44.0692 11.0432 41.4605 6.65924 35.5906 6.65924C30.5184 6.65924 26.7144 10.6809 26.7144 16.0073C26.7144 21.4776 30.5184 25.4635 35.7717 25.4635C38.9247 25.4635 41.4598 24.2318 43.3446 21.7684L43.7792 21.2248L41.424 19.3042L40.9535 19.8478C39.4317 21.6595 37.9458 22.3842 35.8448 22.3842C32.439 22.3842 30.5549 19.8113 30.1918 17.2025H44.0692V15.4272ZM40.6634 14.159H30.2649C30.7354 11.9491 32.6925 9.66688 35.5547 9.66688C38.3805 9.70269 40.2288 11.3333 40.6634 14.159ZM58.0548 6.73157L53.0184 20.3548L47.9097 6.73157L44.5397 7.63744L51.3879 24.993H54.576L61.3153 7.63744L58.0548 6.73157ZM78.8878 15.4638C78.8878 11.0798 76.279 6.69575 70.4098 6.69575C65.3369 6.69575 61.5329 10.7174 61.5329 16.0431C61.5329 21.5142 65.3369 25.5 70.5903 25.5C73.7426 25.5 76.279 24.2683 78.1631 21.8042L78.5978 21.2607L76.2425 19.3408L75.772 19.8843C74.2503 21.696 72.7644 22.42 70.6633 22.42C67.2575 22.42 65.3734 19.8478 65.0104 17.239H78.8878V15.4638ZM65.0834 14.1955C65.5539 11.9856 67.511 9.70269 70.3733 9.70269C73.199 9.70269 75.0473 11.3333 75.482 14.1955H65.0834ZM90.4092 6.69575C84.9747 6.69575 81.0254 10.6451 81.0254 16.0796C81.0254 21.5149 84.9747 25.5 90.4092 25.5C95.8438 25.5 99.8296 21.5507 99.8296 16.0796C99.7931 10.6444 95.8438 6.69575 90.4092 6.69575ZM90.4092 22.2754C86.8588 22.2754 84.4677 19.7754 84.4677 16.0431C84.4677 12.348 86.9311 9.77502 90.4092 9.77502C93.9239 9.77502 96.3873 12.348 96.3873 16.0431C96.3873 19.7754 93.9962 22.2754 90.4092 22.2754Z" fill="black"/>
</svg>
