<svg width="190" height="44" viewBox="0 0 190 44" fill="none" xmlns="http://www.w3.org/2000/svg">
<g clip-path="url(#clip0_3206_10087)">
<path d="M42.8899 29.061V0H14.9609C28.1779 4.76667 38.5708 15.5571 42.9003 29.061" fill="black"/>
<path d="M24.7415 11.524V21.4135L33.6809 21.623C31.2825 17.7678 28.2508 14.3526 24.7415 11.524ZM39.8169 43.2773H3.92459C1.75464 43.2773 0 41.5068 0 39.3173V2.66113C9.14699 2.72399 17.5776 5.8878 24.3055 11.1783L15.9579 21.4135L5.17049 21.6859L11.0678 28.3278L3.35355 40.1345L16.747 34.0059L24.7415 40.1345V29.6164L34.4284 22.8802C37.8546 28.8307 39.8169 35.7449 39.8169 43.1097V43.2878V43.2773Z" fill="black"/>
<path d="M112.877 13.3748C112.877 17.0136 109.837 19.66 105.652 19.66C103.357 19.66 101.415 19.1606 99.7763 18.1293C99.3134 17.8439 98.8827 17.5195 98.4649 17.1433L101.203 13.3683C103.338 15.3726 105.542 15.2883 106.295 15.1845C106.307 15.1845 106.314 15.1845 106.32 15.1845C106.372 15.178 106.423 15.1715 106.468 15.1585C106.532 15.1456 106.571 15.1391 106.571 15.1391C107.49 14.951 108.024 14.3931 108.024 13.5759C108.024 12.4472 106.931 12.1748 104.527 11.5846C104.52 11.5846 104.501 11.5846 104.495 11.5781L104.244 11.5132C104.109 11.4808 103.98 11.4548 103.845 11.4159C103.505 11.3316 103.158 11.2408 102.817 11.1435C100.432 10.4235 98.2656 9.11976 98.2656 5.89606C98.2656 2.47777 101.191 0 105.215 0C107.137 0 108.667 0.350261 110.068 1.15456C110.332 1.31024 110.595 1.47239 110.846 1.6605C111.019 1.78374 111.187 1.91995 111.347 2.05616C111.367 2.07562 111.643 2.29616 111.656 2.30913L109.123 5.79877C109.123 5.79877 108.814 5.55229 108.795 5.53283C106.796 3.97611 105.112 4.17719 105.112 4.17719C103.653 4.17719 102.997 4.96203 102.997 5.74039C102.997 6.61605 104.013 6.92739 105.6 7.31008C105.748 7.34251 105.896 7.37494 106.057 7.41386C106.262 7.46575 106.481 7.51764 106.706 7.56953C106.899 7.61494 107.098 7.66034 107.297 7.71223C107.31 7.71223 107.323 7.71872 107.336 7.72521C110.222 8.44519 112.884 9.63218 112.884 13.3683" fill="black"/>
<path d="M51.9141 19.6081H56.5939V12.5056H63.6393V8.12087H56.5939V4.98798H64.9893V0.525391H51.9141V19.6081Z" fill="black"/>
<path d="M74.2859 0.525391H69.5547V19.6081H74.2859V0.525391Z" fill="black"/>
<path d="M114.562 4.91014H119.628V19.6081H124.205V4.91014H129.219V0.525391H114.562V4.91014Z" fill="black"/>
<path d="M85.7167 9.12625H84.6624V4.39124H85.7167C87.388 4.39124 89.0337 4.79987 89.0337 6.57064C89.0337 8.61383 87.388 9.12625 85.7167 9.12625ZM91.0843 11.0073C92.5436 10.4365 94.427 8.88625 94.427 6.18795C94.427 2.67885 91.6757 0.525391 86.6038 0.525391H79.5391V19.5822H84.6624V12.7197H86.5266L90.1715 19.5822H95.8927L91.0907 11.0073H91.0843Z" fill="black"/>
<path d="M62.5079 31.5157H56.6196V24.3613H51.9141V43.4441H56.6196V36.1859H62.5079V43.4441H67.2135V24.3613H62.5079V31.5157Z" fill="black"/>
<path d="M86.0265 33.903C86.0265 36.7765 83.8409 39.0337 81.0446 39.0337C78.2483 39.0337 76.1141 36.7829 76.1141 33.903C76.1141 31.0231 78.2804 28.7464 81.0446 28.7464C83.8088 28.7464 86.0265 31.0101 86.0265 33.903ZM81.0446 24.1022C75.7155 24.1022 71.3828 28.4999 71.3828 33.903C71.3828 36.5365 72.3792 39.0013 74.192 40.8369C76.0048 42.6855 78.4411 43.6974 81.0446 43.6974C86.4765 43.6974 90.732 39.3904 90.732 33.8965C90.732 28.4026 86.3865 24.0957 81.0446 24.0957" fill="black"/>
<path d="M119.583 24.3613H114.852V43.4441H119.583V24.3613Z" fill="black"/>
<path d="M138.217 28.5385V24.3613H124.782V28.7201H132.637L124.551 39.948L124.531 39.9804V43.4441H138.32V39.0334H130.657L138.217 28.5385Z" fill="black"/>
<path d="M156.011 33.903C156.011 36.7765 153.825 39.0337 151.029 39.0337C148.233 39.0337 146.098 36.7829 146.098 33.903C146.098 31.0231 148.265 28.7464 151.029 28.7464C153.793 28.7464 156.011 31.0101 156.011 33.903ZM151.029 24.1022C145.7 24.1022 141.367 28.4999 141.367 33.903C141.367 36.5365 142.364 39.0013 144.176 40.8369C145.989 42.6855 148.425 43.6974 151.029 43.6974C156.461 43.6974 160.716 39.3904 160.716 33.8965C160.716 28.4026 156.371 24.0957 151.029 24.0957" fill="black"/>
<path d="M176.575 24.3613V35.3946L169.741 24.4132L169.709 24.3613H164.875V43.4441H169.375V31.8725L176.517 43.3857L176.549 43.4441H181.049V24.3613H176.575Z" fill="black"/>
<path d="M101.075 32.9622H100.02V28.2272H101.075C102.746 28.2272 104.392 28.6358 104.392 30.4066C104.392 32.4498 102.746 32.9622 101.075 32.9622ZM106.442 34.8432C107.902 34.2724 109.785 32.7222 109.785 30.0239C109.785 26.5148 107.034 24.3613 101.962 24.3613H94.8906V43.4181H100.014V36.5556H101.878L105.523 43.4181H111.244L106.442 34.8432Z" fill="black"/>
<path d="M185.15 42.7439C185.253 43.0488 185.51 43.2045 185.845 43.2045C186.198 43.2045 186.449 43.0293 186.449 42.7245C186.449 42.5104 186.327 42.3677 186.012 42.2899L185.523 42.1602C185.144 42.0629 184.868 41.8683 184.868 41.4532C184.868 40.9861 185.253 40.6748 185.768 40.6748C186.333 40.6748 186.668 40.9667 186.77 41.4013H186.417C186.333 41.1548 186.128 40.9732 185.768 40.9732C185.44 40.9732 185.202 41.1418 185.202 41.4272C185.202 41.6607 185.356 41.771 185.639 41.8488L186.108 41.9721C186.545 42.0823 186.79 42.3223 186.79 42.7115C186.79 43.211 186.391 43.5093 185.845 43.5093C185.298 43.5093 184.9 43.2369 184.797 42.7504H185.15V42.7439Z" fill="black"/>
<path d="M188.485 43.4579L187.623 41.3563V43.4579H187.289V40.7012H187.681L188.607 42.9649L189.526 40.7012H189.912V43.4579H189.578V41.3563L188.723 43.4579H188.485Z" fill="black"/>
</g>
<defs>
<clipPath id="clip0_3206_10087">
<rect width="190" height="44" fill="white"/>
</clipPath>
</defs>
</svg>
