<svg width="151" height="30" viewBox="0 0 151 30" fill="none" xmlns="http://www.w3.org/2000/svg">
<g clip-path="url(#clip0_3133_13805)">
<path d="M37.0254 0.773438C33.2537 0.773438 31.9298 3.39188 31.9298 5.83577V7.33202H31.1305C30.556 7.33202 30.1064 7.7809 30.1064 8.35447C30.1064 8.92803 30.556 9.37691 31.1305 9.37691H31.9298V19.7011C31.9298 20.2996 32.4044 20.7983 33.0289 20.7983C33.6284 20.7983 34.1279 20.3245 34.1279 19.7011V9.37691H36.5508C37.1253 9.37691 37.5749 8.92803 37.5749 8.35447C37.5749 7.7809 37.1253 7.33202 36.5508 7.33202H34.1279V5.83577C34.1279 4.4642 34.6275 2.84326 37.0503 2.84326C37.6248 2.84326 38.0744 2.39438 38.0744 1.82081C38.0495 1.22231 37.5999 0.773438 37.0254 0.773438Z" fill="#4D4D4D"/>
<path d="M45.5069 6.98242C43.8833 6.98242 42.5095 7.65574 41.7352 8.75299V8.17942C41.7352 7.58092 41.2606 7.08217 40.6361 7.08217C40.0367 7.08217 39.5371 7.55598 39.5371 8.17942V19.7006C39.5371 20.2991 40.0117 20.7979 40.6361 20.7979C41.2356 20.7979 41.7352 20.324 41.7352 19.7006V13.3415C41.7352 10.6732 43.1589 9.07718 45.5069 9.07718C46.0814 9.07718 46.5559 8.60336 46.5559 8.0298C46.5809 7.45623 46.1063 6.98242 45.5069 6.98242Z" fill="#4D4D4D"/>
<path d="M58.8708 12.6433C58.8708 12.0199 58.7709 10.3989 57.8217 9.05231C56.8476 7.65581 55.3239 6.93262 53.2507 6.93262C49.4041 6.93262 47.2061 9.47625 47.2061 13.9151C47.2061 18.5037 49.4041 20.9476 53.5255 20.9476C56.2981 20.9476 57.8217 19.576 58.0965 19.3017C58.2713 19.1271 58.4712 18.9027 58.4712 18.5286C58.4712 17.98 58.0216 17.5311 57.472 17.5311C57.1973 17.5311 57.0224 17.6059 56.8476 17.7306C56.0483 18.3291 55.1241 18.9276 53.5505 18.9276C51.0777 18.9276 49.504 17.3067 49.4291 14.6633H57.547C58.8708 14.6383 58.8708 13.4413 58.8708 12.6433ZM53.2507 8.92763C55.4988 8.92763 56.6727 10.1994 56.7227 12.6932H49.4541C49.6539 10.2743 51.0027 8.92763 53.2507 8.92763Z" fill="#4D4D4D"/>
<path d="M66.2164 12.8183C64.5928 12.2697 63.194 11.771 63.194 10.574C63.194 9.25227 64.6677 9.05276 65.542 9.05276C67.1156 9.05276 67.8899 9.60139 68.5144 10.1999C68.7142 10.3994 68.964 10.4992 69.2387 10.4992C69.7882 10.4992 70.2378 10.0503 70.2378 9.50165C70.2378 9.2024 70.113 9.00289 70.013 8.85327C69.0889 7.63132 67.5152 6.95801 65.542 6.95801C62.7444 6.95801 61.0209 8.35451 61.0209 10.574C61.0209 13.2922 63.4188 14.1151 65.517 14.8134C67.1156 15.362 68.4894 15.8109 68.4894 16.9829C68.4894 18.5789 66.7159 18.8283 65.6419 18.8283C64.1931 18.8283 63.0691 18.3794 62.1449 17.4817C61.8702 17.2074 61.5705 17.1575 61.3956 17.1575C60.8461 17.1575 60.3965 17.6064 60.3965 18.155C60.3965 18.3794 60.4714 18.554 60.6463 18.8034C61.4705 19.8507 63.3439 20.9231 65.6419 20.9231C68.7891 20.9231 70.6625 19.4517 70.6625 17.0079C70.6625 14.3645 68.3145 13.5415 66.2164 12.8183Z" fill="#4D4D4D"/>
<path d="M79.1758 6.93265C77.6771 6.93265 76.3283 7.53115 75.5789 8.47878V1.09725C75.5789 0.49875 75.1043 0 74.4799 0C73.8804 0 73.3809 0.473813 73.3809 1.09725V19.7256C73.3809 20.3241 73.8554 20.8229 74.4799 20.8229C75.0794 20.8229 75.5789 20.3491 75.5789 19.7256V12.7182C75.5789 10.1995 76.8029 8.92766 79.1758 8.92766C81.4738 8.92766 82.4229 9.97503 82.4229 12.5187V19.7256C82.4229 20.3241 82.8975 20.8229 83.522 20.8229C84.1214 20.8229 84.621 20.3491 84.621 19.7256V12.1446C84.571 8.67828 82.7476 6.93265 79.1758 6.93265Z" fill="#4D4D4D"/>
<path d="M102.78 7.10742C102.305 7.10742 101.93 7.38173 101.756 7.83061L98.6333 16.7084L96.0855 7.83061C95.9856 7.48148 95.6109 7.10742 95.0614 7.10742C94.5119 7.10742 94.1372 7.48148 94.0373 7.83061L91.4895 16.6835L88.3673 7.80567C88.1924 7.35679 87.8178 7.10742 87.3432 7.10742C86.7437 7.10742 86.2441 7.58123 86.2441 8.20467C86.2441 8.3543 86.2691 8.50392 86.3441 8.65355L90.5154 20.0999C90.6902 20.5488 91.0649 20.7982 91.5395 20.7982C92.0391 20.7982 92.4637 20.474 92.5886 20.0251L95.0364 11.6211L97.4843 20.0251C97.6092 20.474 98.0588 20.7982 98.5333 20.7982C99.0079 20.7982 99.3826 20.5239 99.5575 20.075L103.729 8.62862C103.804 8.47899 103.829 8.30442 103.829 8.1548C103.854 7.58123 103.379 7.10742 102.78 7.10742Z" fill="#4D4D4D"/>
<path d="M110.726 6.93262C106.754 6.93262 104.581 9.42638 104.581 13.9151C104.581 18.4538 106.754 20.9476 110.726 20.9476C114.697 20.9476 116.87 18.4538 116.87 13.9151C116.87 9.40144 114.672 6.93262 110.726 6.93262ZM110.726 18.9525C108.078 18.9525 106.779 17.3067 106.779 13.9401C106.779 10.6234 108.103 8.95256 110.726 8.95256C113.348 8.95256 114.672 10.6234 114.672 13.9401C114.672 17.3067 113.373 18.9525 110.726 18.9525Z" fill="#4D4D4D"/>
<path d="M125.316 6.98242C123.693 6.98242 122.319 7.65574 121.545 8.75299V8.17942C121.545 7.58092 121.07 7.08217 120.446 7.08217C119.846 7.08217 119.347 7.55598 119.347 8.17942V19.7006C119.347 20.2991 119.821 20.7979 120.446 20.7979C121.045 20.7979 121.545 20.324 121.545 19.7006V13.3415C121.545 10.6732 122.968 9.07718 125.316 9.07718C125.891 9.07718 126.366 8.60336 126.366 8.0298C126.366 7.45623 125.891 6.98242 125.316 6.98242Z" fill="#4D4D4D"/>
<path d="M133.604 12.6683L138.125 9.05235C138.5 8.75309 138.55 8.37903 138.55 8.17953C138.55 7.58103 138.075 7.08228 137.451 7.08228C137.276 7.08228 136.976 7.10722 136.701 7.35659L130.282 12.5935V1.09725C130.282 0.49875 129.807 0 129.183 0C128.584 0 128.084 0.473813 128.084 1.09725V19.7256C128.084 20.3241 128.559 20.8229 129.183 20.8229C129.782 20.8229 130.282 20.3491 130.282 19.7256V15.2369L131.806 14.0149L136.726 20.3241C137.001 20.6483 137.301 20.8229 137.651 20.8229C138.25 20.8229 138.75 20.3491 138.75 19.7256C138.75 19.5511 138.725 19.3017 138.525 19.0523L133.604 12.6683Z" fill="#4D4D4D"/>
<path d="M145.923 12.8183C144.3 12.2697 142.901 11.771 142.901 10.574C142.901 9.25227 144.375 9.05276 145.249 9.05276C146.823 9.05276 147.597 9.60139 148.221 10.1999C148.421 10.3994 148.671 10.4992 148.946 10.4992C149.495 10.4992 149.945 10.0503 149.945 9.50165C149.945 9.17746 149.77 8.95302 149.72 8.85327C148.796 7.63132 147.222 6.95801 145.249 6.95801C142.451 6.95801 140.728 8.35451 140.728 10.574C140.728 13.2922 143.126 14.1151 145.224 14.8134C146.823 15.362 148.196 15.8109 148.196 16.9829C148.196 18.5789 146.423 18.8283 145.349 18.8283C143.9 18.8283 142.776 18.3794 141.852 17.4817C141.577 17.2074 141.302 17.1575 141.103 17.1575C140.553 17.1575 140.104 17.6064 140.104 18.155C140.104 18.3794 140.178 18.554 140.353 18.8034C141.178 19.8507 143.051 20.9231 145.349 20.9231C148.496 20.9231 150.369 19.4517 150.369 17.0079C150.369 14.3645 148.022 13.5415 145.923 12.8183Z" fill="#4D4D4D"/>
<path d="M0.650391 19.1021C1.07502 21.8702 2.37388 24.3639 4.24723 26.2342L8.61839 21.8701C8.61839 17.4562 10.9164 13.1669 15.0128 10.7979L0.650391 19.1021Z" fill="#9B65C3"/>
<path d="M8.61839 21.8702C6.4453 21.8702 4.24723 21.3215 2.22401 20.1495C1.67449 19.8253 1.14995 19.4762 0.650391 19.0771C1.07502 21.8452 2.37388 24.339 4.24723 26.2093L8.61839 21.8702Z" fill="#9B65C3"/>
<path d="M8.61139 21.8703L4.24023 26.2344C6.13857 28.1297 8.61139 29.4264 11.384 29.8254L19.6767 15.4863C17.3287 19.5761 13.0325 21.8703 8.61139 21.8703Z" fill="#BE63C5"/>
<path d="M10.3349 28.2795C9.16091 26.2596 8.61139 24.0651 8.61139 21.8955L4.24023 26.2596C6.13857 28.1548 8.61139 29.4516 11.384 29.8506C11.0093 29.3518 10.6596 28.8282 10.3349 28.2795Z" fill="#BF63C6"/>
<path d="M24.9069 5.1123L15.0406 10.823C10.9442 13.1921 6.07345 13.0175 2.25181 10.823C1.15277 12.6933 0.52832 14.8878 0.52832 17.207C0.52832 17.8554 0.578276 18.4789 0.678188 19.1023C1.17775 19.5013 1.70229 19.8504 2.25181 20.1746C4.27503 21.3467 6.4731 21.8953 8.64619 21.8953L25.1817 5.38662C25.0818 5.28687 25.0068 5.18712 24.9069 5.1123Z" fill="#3278B1"/>
<path d="M2.22946 20.1748C4.25268 21.3469 6.45075 21.8955 8.62384 21.8955C8.62384 17.4816 10.9218 13.1923 15.0182 10.8232L0.630859 19.1025C1.1554 19.4766 1.67994 19.8507 2.22946 20.1748Z" fill="#3278B2"/>
<path d="M2.22349 10.8232C1.12445 12.6936 0.5 14.8881 0.5 17.2073C0.5 17.8556 0.549956 18.4791 0.649868 19.1025L15.0372 10.8232C10.9159 13.1674 6.04513 13.0178 2.22349 10.8232Z" fill="#45A4EC"/>
<path d="M25.1794 5.3617C25.1045 5.28688 25.0046 5.18713 24.9047 5.11232C24.7798 5.01257 24.6549 4.91282 24.505 4.838C24.0305 4.56369 23.4809 4.41406 22.9064 4.41406H13.3149C8.56904 4.41406 4.44766 6.98264 2.22461 10.7981C6.04625 12.9926 10.917 13.1672 15.0134 10.7981C10.917 13.1672 8.61899 17.4564 8.61899 21.8704C13.0401 21.8704 17.3363 19.5761 19.7093 15.4864L25.4042 5.63601C25.3293 5.53626 25.2544 5.43651 25.1794 5.3617Z" fill="#19BB7D"/>
<path d="M15.0384 10.8224L24.9047 5.13662C24.7798 5.03687 24.6549 4.93712 24.505 4.8623L2.22461 10.8224C6.04625 13.0169 10.917 13.1665 15.0384 10.8224Z" fill="#08C7FB"/>
<path d="M22.9064 4.41406H13.3149C8.56904 4.41406 4.44766 6.98264 2.22461 10.7981L24.505 4.838C24.0305 4.58863 23.5059 4.41406 22.9064 4.41406Z" fill="#59F2F6"/>
<path d="M19.7094 15.486L25.4044 5.63564C25.3295 5.53589 25.2545 5.46108 25.1546 5.36133L8.61914 21.87C8.61914 24.0396 9.16866 26.2341 10.3426 28.254C10.6673 28.8027 11.017 29.3264 11.4167 29.8251C12.0411 29.9249 12.6656 29.9747 13.315 29.9747C15.638 29.9747 17.836 29.3513 19.7094 28.254C17.5113 24.4386 17.3365 19.5758 19.7094 15.486Z" fill="#DA3757"/>
<path d="M8.61914 21.8703C8.61914 24.0399 9.16866 26.2344 10.3426 28.2544C10.6673 28.803 11.017 29.3267 11.4167 29.8254L19.7094 15.4863C17.3365 19.5761 13.0403 21.8703 8.61914 21.8703Z" fill="#D33C4E"/>
<path d="M19.7146 15.4863L11.4219 29.8504C12.0463 29.9501 12.6708 30 13.3202 30C15.6432 30 17.8412 29.3766 19.7146 28.2793C17.5165 24.4389 17.3417 19.5761 19.7146 15.4863Z" fill="#EE5A24"/>
<path d="M25.6815 6.03499C25.6066 5.88537 25.5067 5.76068 25.4068 5.636C25.3318 5.53625 25.2569 5.46143 25.157 5.36168C25.082 5.28687 24.9821 5.18712 24.8822 5.1123L15.0409 10.823C10.9445 13.1921 8.64648 17.4814 8.64648 21.8953C13.0676 21.8953 17.3638 19.601 19.7367 15.5113C17.3638 19.601 17.5387 24.4639 19.7367 28.2793C23.5584 26.0599 26.1311 21.9452 26.1311 17.207V7.631C26.1061 7.0325 25.9563 6.48387 25.6815 6.03499Z" fill="#8BDF55"/>
<path d="M24.9072 5.1123L15.0409 10.823C10.9445 13.1921 8.64648 17.4814 8.64648 21.8953L25.182 5.38662C25.082 5.28687 25.0071 5.18712 24.9072 5.1123Z" fill="#25C16F"/>
<path d="M8.61914 21.87C13.0403 21.87 17.3365 19.5758 19.7094 15.486L25.4044 5.63564C25.3295 5.53589 25.2545 5.46108 25.1546 5.36133L8.61914 21.87Z" fill="#8BDF55"/>
<path d="M25.4039 5.63574L19.7089 15.4861C17.336 19.5759 17.5108 24.4387 19.7089 28.2541L25.6786 6.00981C25.6037 5.88512 25.5038 5.76043 25.4039 5.63574Z" fill="#FFBB00"/>
<path d="M19.709 28.2795C23.5306 26.0601 26.1034 21.9453 26.1034 17.2072V7.63117C26.1034 7.0576 25.9535 6.50897 25.6787 6.03516L19.709 28.2795Z" fill="#FFA800"/>
</g>
<defs>
<clipPath id="clip0_3133_13805">
<rect width="150" height="30" fill="white" transform="translate(0.5)"/>
</clipPath>
</defs>
</svg>
