<svg width="120" height="40" viewBox="0 0 120 40" fill="none" xmlns="http://www.w3.org/2000/svg">
<g clip-path="url(#clip0_3133_13757)">
<path d="M50.9171 20.5126C50.9171 26.0648 46.5588 30.1561 41.21 30.1561C35.8613 30.1561 31.5029 26.0648 31.5029 20.5126C31.5029 14.9213 35.8613 10.8691 41.21 10.8691C46.5588 10.8691 50.9171 14.9213 50.9171 20.5126ZM46.6678 20.5126C46.6678 17.0431 44.1418 14.6691 41.21 14.6691C38.2783 14.6691 35.7522 17.0431 35.7522 20.5126C35.7522 23.9474 38.2783 26.3561 41.21 26.3561C44.1418 26.3561 46.6678 23.9431 46.6678 20.5126Z" fill="#EA4335"/>
<path d="M71.8546 20.5126C71.8546 26.0648 67.4963 30.1561 62.1475 30.1561C56.7988 30.1561 52.4404 26.0648 52.4404 20.5126C52.4404 14.9257 56.7988 10.8691 62.1475 10.8691C67.4963 10.8691 71.8546 14.9213 71.8546 20.5126ZM67.6053 20.5126C67.6053 17.0431 65.0793 14.6691 62.1475 14.6691C59.2158 14.6691 56.6897 17.0431 56.6897 20.5126C56.6897 23.9474 59.2158 26.3561 62.1475 26.3561C65.0793 26.3561 67.6053 23.9431 67.6053 20.5126Z" fill="#FBBC05"/>
<path d="M91.9283 11.4517V28.7648C91.9283 35.8865 87.7139 38.7952 82.7317 38.7952C78.0417 38.7952 75.219 35.6691 74.1545 33.1126L77.8541 31.5778C78.5129 33.1474 80.1271 34.9996 82.7273 34.9996C85.9165 34.9996 87.8928 33.0387 87.8928 29.3474V27.9604H87.7445C86.7934 29.13 84.961 30.1517 82.6488 30.1517C77.8105 30.1517 73.3779 25.9517 73.3779 20.5474C73.3779 15.1039 77.8105 10.8691 82.6488 10.8691C84.9567 10.8691 86.789 11.8909 87.7445 13.0257H87.8928V11.4561H91.9283V11.4517ZM88.1938 20.5474C88.1938 17.1517 85.9208 14.6691 83.0283 14.6691C80.0966 14.6691 77.6403 17.1517 77.6403 20.5474C77.6403 23.9083 80.0966 26.3561 83.0283 26.3561C85.9208 26.3561 88.1938 23.9083 88.1938 20.5474Z" fill="#4285F4"/>
<path d="M98.5772 1.30469V29.5656H94.4326V1.30469H98.5772Z" fill="#34A853"/>
<path d="M114.729 23.687L118.027 25.8783C116.963 27.4478 114.397 30.1522 109.965 30.1522C104.468 30.1522 100.362 25.9174 100.362 20.5087C100.362 14.7739 104.503 10.8652 109.489 10.8652C114.511 10.8652 116.967 14.8478 117.77 17L118.21 18.0957L105.275 23.4348C106.265 25.3696 107.805 26.3565 109.965 26.3565C112.129 26.3565 113.629 25.2957 114.729 23.687ZM104.577 20.2174L113.224 16.6391C112.748 15.4348 111.317 14.5957 109.633 14.5957C107.474 14.5957 104.468 16.4957 104.577 20.2174Z" fill="#EA4335"/>
<path d="M15.8123 18.0041V13.9128H29.6466C29.7818 14.6258 29.8516 15.4693 29.8516 16.3824C29.8516 19.4519 29.0096 23.2476 26.296 25.9519C23.6565 28.6911 20.2841 30.1519 15.8167 30.1519C7.53618 30.1519 0.573242 23.4302 0.573242 15.178C0.573242 6.92584 7.53618 0.204102 15.8167 0.204102C20.3976 0.204102 23.6609 1.99541 26.1128 4.33019L23.2159 7.21715C21.4577 5.57367 19.0756 4.29541 15.8123 4.29541C9.76555 4.29541 5.03633 9.15193 5.03633 15.178C5.03633 21.2041 9.76555 26.0606 15.8123 26.0606C19.7344 26.0606 21.9681 24.4911 23.3991 23.065C24.5596 21.9084 25.3231 20.2563 25.6241 17.9998L15.8123 18.0041Z" fill="#4285F4"/>
</g>
<defs>
<clipPath id="clip0_3133_13757">
<rect width="118.667" height="40" fill="white" transform="translate(0.416992)"/>
</clipPath>
</defs>
</svg>
