<svg width="163" height="28" viewBox="0 0 163 28" fill="none" xmlns="http://www.w3.org/2000/svg">
<g clip-path="url(#clip0_3133_13865)">
<path d="M38.3809 4.56492C38.3809 3.92782 38.6994 3.61029 39.3365 3.61231H40.2496C40.8867 3.61231 41.2052 3.92985 41.2052 4.56492V12.2041H44.27L49.0574 4.26058C49.1594 4.05362 49.3214 3.88223 49.5223 3.76875C49.7231 3.65528 49.9536 3.60501 50.1835 3.62449H51.2548C52.0065 3.62449 52.2956 4.11753 51.9213 4.78101L46.6256 13.3027V13.3606L52.2804 22.911C52.6852 23.5471 52.3961 24.0371 51.6443 24.0371H50.4543C50.222 24.0505 49.991 23.9945 49.7905 23.8764C49.59 23.7583 49.4291 23.5833 49.3283 23.3736L44.2822 14.6662H41.2174V23.0814C41.2174 23.7206 40.8978 24.0371 40.2617 24.0371H39.3487C38.7126 24.0371 38.393 23.7327 38.393 23.0814L38.3809 4.56492Z" fill="black"/>
<path d="M54.7871 10.3475C54.7871 9.7104 55.1057 9.39286 55.7428 9.39489H56.6406C57.2493 9.39489 57.5536 9.69924 57.5536 10.3475V18.1358C57.5536 20.1627 57.9858 21.7879 60.2928 21.7879C63.2997 21.7879 65.0649 19.1553 65.0649 16.264V10.3475C65.0649 9.7104 65.3835 9.39286 66.0206 9.39489H66.9154C67.046 9.37567 67.1793 9.38684 67.3049 9.42753C67.4305 9.46822 67.545 9.53734 67.6395 9.62951C67.734 9.72168 67.806 9.83441 67.8499 9.95894C67.8937 10.0835 67.9082 10.2164 67.8923 10.3475V23.0753C67.9087 23.2047 67.8952 23.3361 67.853 23.4595C67.8107 23.5829 67.7408 23.695 67.6486 23.7872C67.5564 23.8795 67.4443 23.9494 67.3209 23.9916C67.1975 24.0339 67.0661 24.0473 66.9367 24.031H66.1271C65.491 24.031 65.1745 23.7266 65.1745 23.0753V21.7758C65.1769 21.4937 65.2054 21.2125 65.2597 20.9358H65.2019C64.7076 21.9604 63.936 22.8261 62.9747 23.4345C62.0134 24.0429 60.9008 24.3698 59.7632 24.3779C56.4671 24.3779 54.7871 22.6431 54.7871 18.7658V10.3475Z" fill="black"/>
<path d="M71.1545 21.4933L71.4436 21.0885C71.8179 20.5955 72.1953 20.5681 72.7736 20.8846C73.8227 21.6329 75.0735 22.0467 76.3619 22.0715C77.8075 22.0715 78.8484 21.3776 78.8484 20.1328C78.8484 17.2689 71.2975 18.2246 71.2975 13.2759C71.2975 10.5002 73.7323 9.05459 76.5932 9.05459C78.0227 9.03264 79.4282 9.42364 80.641 10.1807C81.1614 10.4424 81.2497 10.9355 80.9453 11.4559L80.6836 11.8881C80.3793 12.4085 79.9623 12.4663 79.4114 12.1924C78.5124 11.6482 77.4827 11.3579 76.4319 11.3524C75.044 11.3524 73.9727 11.9611 73.9727 13.2028C73.9727 16.1276 81.5236 15.0837 81.5236 20.0598C81.5236 22.5494 79.4114 24.3694 76.2584 24.3694C74.4899 24.3852 72.764 23.8266 71.3401 22.7776C70.8501 22.4763 70.8501 21.9833 71.1545 21.4933Z" fill="black"/>
<path d="M85.3327 11.83H84.3192C84.1932 11.8405 84.0664 11.8228 83.9481 11.778C83.8299 11.7333 83.7231 11.6627 83.6356 11.5714C83.5481 11.4801 83.4821 11.3704 83.4424 11.2503C83.4027 11.1303 83.3903 11.0029 83.4062 10.8774V10.5C83.3898 10.3706 83.4033 10.2392 83.4455 10.1158C83.4878 9.99242 83.5577 9.88032 83.6499 9.7881C83.7421 9.69588 83.8542 9.62597 83.9776 9.58372C84.101 9.54148 84.2324 9.52801 84.3618 9.54436H85.4027V6.33349C85.3871 6.2033 85.4015 6.07127 85.4448 5.94752C85.4882 5.82378 85.5593 5.71161 85.6528 5.61964C85.7462 5.52766 85.8595 5.45831 85.9839 5.41693C86.1083 5.37554 86.2406 5.36321 86.3705 5.38088H87.2075C87.8446 5.38088 88.1631 5.69841 88.1631 6.33349V9.54436H90.7075C90.8369 9.52801 90.9683 9.54148 91.0917 9.58372C91.2151 9.62597 91.3271 9.69588 91.4194 9.7881C91.5116 9.88032 91.5815 9.99242 91.6237 10.1158C91.666 10.2392 91.6795 10.3706 91.6631 10.5V10.8774C91.679 11.0029 91.6666 11.1303 91.6269 11.2503C91.5872 11.3704 91.5212 11.4801 91.4337 11.5714C91.3462 11.6627 91.2394 11.7333 91.1211 11.778C91.0029 11.8228 90.8761 11.8405 90.7501 11.83H88.1753V18.34C88.1753 21.1157 89.8827 21.5509 90.9509 21.6361C91.7027 21.6939 91.9644 21.9404 91.9644 22.5917V23.2004C91.9644 23.867 91.587 24.1561 90.8079 24.1561C87.9135 24.1561 85.3692 22.4791 85.3692 18.7752L85.3327 11.83Z" fill="black"/>
<path d="M101.285 9.05469C105.656 9.05469 109.198 12.2656 109.198 16.6908C109.198 21.116 105.671 24.3847 101.285 24.3847C96.8997 24.3847 93.418 21.1464 93.418 16.6908C93.418 12.2351 96.9332 9.05469 101.285 9.05469ZM101.285 21.956C104.064 21.956 106.319 19.7586 106.319 16.6908C106.319 13.6229 104.079 11.4834 101.285 11.4834C98.4914 11.4834 96.2636 13.6534 96.2636 16.6908C96.2636 19.7282 98.5462 21.956 101.285 21.956Z" fill="black"/>
<path d="M112.295 10.3482C112.28 10.2191 112.294 10.0883 112.337 9.9656C112.379 9.84288 112.449 9.73146 112.541 9.63973C112.633 9.548 112.745 9.47836 112.868 9.43607C112.991 9.39377 113.122 9.37992 113.251 9.39556H114.069C114.704 9.39556 115.022 9.71309 115.022 10.3482V11.6569C115.02 11.9389 114.991 12.2201 114.937 12.4969H114.982C115.707 10.7895 117.758 9.05469 120.074 9.05469C122.533 9.05469 123.948 10.1808 124.469 12.3812H124.527C125.002 11.4059 125.735 10.5798 126.648 9.99317C127.56 9.40653 128.616 9.08188 129.701 9.05469C133.027 9.05469 134.531 10.9356 134.531 14.6669V23.0821C134.531 23.7212 134.226 24.0377 133.575 24.0377H132.68C132.551 24.0541 132.419 24.0406 132.296 23.9984C132.173 23.9561 132.061 23.8862 131.968 23.794C131.876 23.7018 131.806 23.5897 131.764 23.4663C131.722 23.3429 131.708 23.2115 131.725 23.0821V15.2725C131.725 13.2182 131.32 11.599 129.15 11.599C126.432 11.599 124.81 14.4051 124.81 17.2112V23.0821C124.81 23.7212 124.505 24.0377 123.897 24.0377H122.984C122.375 24.0377 122.071 23.7334 122.071 23.0821V15.2725C122.071 13.3643 121.781 11.599 119.526 11.599C116.748 11.599 115.128 14.4934 115.128 17.2112V23.0821C115.128 23.7212 114.809 24.0377 114.173 24.0377H113.278C113.149 24.0541 113.017 24.0406 112.894 23.9984C112.77 23.9561 112.658 23.8862 112.566 23.794C112.474 23.7018 112.404 23.5897 112.362 23.4663C112.319 23.3429 112.306 23.2115 112.322 23.0821L112.295 10.3482Z" fill="black"/>
<path d="M144.777 9.05469C148.828 9.05469 151.083 11.946 151.083 16.0243C151.085 16.1541 151.06 16.2829 151.011 16.4032C150.962 16.5234 150.889 16.6325 150.797 16.7243C150.706 16.8164 150.598 16.8892 150.478 16.9384C150.358 16.9875 150.23 17.012 150.1 17.0103H140.324C140.498 20.1908 142.781 21.956 145.386 21.956C146.645 21.947 147.869 21.5424 148.886 20.7995C149.437 20.4951 149.869 20.5682 150.188 21.1038L150.447 21.539C150.52 21.6394 150.571 21.7545 150.596 21.8764C150.621 21.9983 150.619 22.1241 150.59 22.2451C150.562 22.3665 150.507 22.4802 150.43 22.578C150.352 22.6759 150.254 22.7555 150.143 22.8112C148.692 23.8244 146.966 24.3692 145.197 24.3725C140.598 24.3725 137.445 21.046 137.445 16.706C137.461 12.0616 140.614 9.05469 144.777 9.05469ZM148.277 15.1416C148.192 12.5821 146.658 11.2612 144.719 11.2612C142.589 11.2612 140.845 12.7069 140.44 15.166L148.277 15.1416Z" fill="black"/>
<path d="M154.149 10.3476C154.133 10.2186 154.146 10.0875 154.188 9.96451C154.23 9.84148 154.3 9.72972 154.392 9.63777C154.484 9.54583 154.596 9.47615 154.719 9.43406C154.842 9.39197 154.973 9.37859 155.102 9.39495H155.911C156.551 9.39495 156.867 9.6993 156.867 10.3476V12.0276C156.868 12.3955 156.839 12.7628 156.782 13.1263H156.84C157.476 11.1876 159.122 9.2793 161.323 9.2793C161.986 9.2793 162.236 9.58364 162.236 10.2319V11.0476C162.236 11.6867 161.858 12.0032 161.195 12.0032C158.331 12.0032 156.934 15.0984 156.934 17.9928V23.0815C156.934 23.7206 156.63 24.0371 155.978 24.0371H155.065C154.936 24.0524 154.805 24.0381 154.683 23.9954C154.56 23.9527 154.449 23.8827 154.357 23.7907C154.265 23.6987 154.195 23.587 154.153 23.4642C154.111 23.3413 154.097 23.2105 154.113 23.0815L154.149 10.3476Z" fill="black"/>
<path fill-rule="evenodd" clip-rule="evenodd" d="M20.0819 27.8597C22.3575 27.8662 24.5426 26.9697 26.1579 25.3669C27.7732 23.7642 28.6868 21.5861 28.698 19.3106V8.68881C28.6868 6.41331 27.7732 4.23521 26.1579 2.63246C24.5426 1.0297 22.3575 0.133207 20.0819 0.139683H9.3689C7.09415 0.134818 4.91024 1.03193 3.29577 2.63443C1.68129 4.23692 0.767937 6.41409 0.755859 8.68881V19.3106C0.767937 21.5853 1.68129 23.7624 3.29577 25.3649C4.91024 26.9674 7.09415 27.8645 9.3689 27.8597H20.0819Z" fill="white"/>
<path d="M10.0058 18.3585C9.9417 18.3636 9.87997 18.3847 9.82621 18.4199C9.77246 18.4551 9.72841 18.5032 9.69811 18.5599C9.66781 18.6166 9.65223 18.6799 9.65281 18.7442C9.65338 18.8084 9.6701 18.8715 9.70141 18.9276C9.77141 19.0463 11.4423 21.8767 14.7718 21.8767C18.1014 21.8767 19.7205 19.0463 19.8058 18.9276C19.8386 18.8696 19.8558 18.8041 19.8558 18.7374C19.8558 18.6707 19.8386 18.6052 19.8058 18.5472C19.7727 18.49 19.7253 18.4424 19.6681 18.4093C19.611 18.3762 19.5461 18.3587 19.4801 18.3585H10.0058ZM9.06836 10.1411V13.982C9.06814 14.0855 9.08847 14.188 9.12818 14.2836C9.16788 14.3792 9.22617 14.466 9.29967 14.5389C9.448 14.6854 9.64815 14.7674 9.85662 14.7672H12.4162C12.5197 14.7676 12.6223 14.7476 12.7181 14.7083C12.8139 14.6691 12.901 14.6114 12.9745 14.5385C13.0479 14.4655 13.1063 14.3789 13.1463 14.2834C13.1863 14.1879 13.2071 14.0855 13.2075 13.982V11.4194C13.2075 11.3157 13.187 11.2131 13.1471 11.1174C13.1073 11.0218 13.0489 10.9349 12.9754 10.862C12.9018 10.789 12.8145 10.7312 12.7185 10.6921C12.6226 10.653 12.5198 10.6333 12.4162 10.6341H10.6388V10.132C10.6436 9.66233 10.8325 9.21332 11.1648 8.88151C11.4972 8.54969 11.9465 8.36157 12.4162 8.35761C12.6244 8.35761 12.8242 8.27488 12.9714 8.12763C13.1187 7.98037 13.2014 7.78065 13.2014 7.5724C13.2014 7.36414 13.1187 7.16442 12.9714 7.01716C12.8242 6.86991 12.6244 6.78718 12.4162 6.78718C11.5288 6.78718 10.6777 7.13948 10.05 7.76666C9.42224 8.39384 9.06917 9.24459 9.06836 10.132V10.1411ZM16.2662 10.1411V13.982C16.2666 14.0855 16.2874 14.1879 16.3274 14.2834C16.3673 14.3789 16.4257 14.4655 16.4992 14.5385C16.5727 14.6114 16.6598 14.6691 16.7556 14.7083C16.8514 14.7476 16.954 14.7676 17.0575 14.7672H19.6353C19.7387 14.768 19.8411 14.7482 19.9368 14.7091C20.0324 14.6699 20.1193 14.6121 20.1924 14.539C20.2654 14.4659 20.3232 14.379 20.3624 14.2834C20.4016 14.1878 20.4213 14.0853 20.4205 13.982V11.4194C20.4213 11.316 20.4016 11.2135 20.3624 11.1179C20.3232 11.0223 20.2654 10.9354 20.1924 10.8623C20.1193 10.7892 20.0324 10.7314 19.9368 10.6923C19.8411 10.6531 19.7387 10.6333 19.6353 10.6341H17.8275V10.132C17.8323 9.65865 18.0241 9.20645 18.3611 8.87404C18.6981 8.54162 19.1529 8.35598 19.6262 8.35761C19.8344 8.35761 20.0342 8.27488 20.1814 8.12763C20.3287 7.98037 20.4114 7.78065 20.4114 7.5724C20.4114 7.36414 20.3287 7.16442 20.1814 7.01716C20.0342 6.86991 19.8344 6.78718 19.6262 6.78718C19.1848 6.78437 18.7471 6.86889 18.3385 7.03588C17.9298 7.20286 17.5583 7.44901 17.2451 7.76017C16.932 8.07132 16.6835 8.44133 16.5139 8.84891C16.3443 9.25648 16.257 9.69356 16.2571 10.135L16.2662 10.1411Z" fill="black"/>
<path fill-rule="evenodd" clip-rule="evenodd" d="M9.3689 0.139683C7.09415 0.134818 4.91024 1.03193 3.29577 2.63443C1.68129 4.23692 0.767937 6.41409 0.755859 8.68881V19.3106C0.767937 21.5853 1.68129 23.7624 3.29577 25.3649C4.91024 26.9674 7.09415 27.8645 9.3689 27.8597H16.6398L11.8554 24.4419H9.3689C8.00259 24.4467 6.69022 23.909 5.72009 22.9469C4.74997 21.9847 4.20143 20.6769 4.19499 19.3106V8.68881C4.20623 7.324 4.75629 6.01892 5.72538 5.05782C6.69446 4.09672 8.00405 3.55746 9.3689 3.55751H20.0819C21.4468 3.55746 22.7564 4.09672 23.7255 5.05782C24.6946 6.01892 25.2446 7.324 25.2559 8.68881V19.3106C25.2446 20.6754 24.6946 21.9804 23.7255 22.9415C22.7564 23.9026 21.4468 24.4419 20.0819 24.4419H18.0489V27.8597H20.0819C22.3575 27.8662 24.5426 26.9697 26.1579 25.3669C27.7732 23.7642 28.6868 21.5861 28.698 19.3106V8.68881C28.6868 6.41331 27.7732 4.23521 26.1579 2.63246C24.5426 1.0297 22.3575 0.133207 20.0819 0.139683H9.3689Z" fill="#FF5551"/>
</g>
<defs>
<clipPath id="clip0_3133_13865">
<rect width="161.913" height="28" fill="white" transform="translate(0.543945)"/>
</clipPath>
</defs>
</svg>
