<svg width="166" height="36" viewBox="0 0 166 36" fill="none" xmlns="http://www.w3.org/2000/svg">
<g clip-path="url(#clip0_3133_13766)">
<path d="M69.1905 7.49989V28.4999H65.544V12.0207H65.4954L58.9805 28.4999H56.5495L49.8887 12.0207H49.8401V28.4999H46.4854V7.49989H51.7362L57.765 23.0554H57.8622L64.2313 7.49989H69.1905ZM72.2048 9.10406C72.2048 8.52073 72.3993 8.03461 72.8369 7.64572C73.2745 7.25684 73.7606 7.06239 74.3441 7.06239C74.9761 7.06239 75.5109 7.25684 75.8999 7.64572C76.2888 8.03461 76.5319 8.52073 76.5319 9.10406C76.5319 9.68739 76.3375 10.1735 75.8999 10.5624C75.4623 10.9513 74.9761 11.1457 74.3441 11.1457C73.712 11.1457 73.2258 10.9513 72.8369 10.5624C72.4479 10.1249 72.2048 9.63878 72.2048 9.10406ZM76.143 13.4304V28.4999H72.5938V13.4304H76.143ZM86.8878 25.9235C87.4226 25.9235 88.006 25.8263 88.6381 25.5346C89.2701 25.2916 89.8536 24.9513 90.3884 24.5624V27.8679C89.8049 28.2082 89.1729 28.4513 88.4436 28.5971C87.7143 28.7429 86.9364 28.8402 86.0613 28.8402C83.8248 28.8402 82.0259 28.1596 80.6646 26.7499C79.2546 25.3402 78.5739 23.5416 78.5739 21.4027C78.5739 18.9721 79.3032 16.9791 80.7132 15.4235C82.1231 13.8679 84.1165 13.0902 86.7419 13.0902C87.4226 13.0902 88.1033 13.1874 88.7353 13.3332C89.416 13.4791 89.9508 13.7221 90.3397 13.9166V17.3193C89.8049 16.9304 89.2215 16.5902 88.6867 16.3957C88.1033 16.2013 87.5198 16.0554 86.9364 16.0554C85.5265 16.0554 84.4082 16.4929 83.5331 17.4166C82.6579 18.3402 82.269 19.5554 82.269 21.111C82.269 22.6179 82.7066 23.8332 83.5331 24.6596C84.3596 25.486 85.4778 25.9235 86.8878 25.9235ZM100.453 13.1874C100.744 13.1874 100.987 13.1874 101.23 13.236C101.474 13.2846 101.668 13.3332 101.814 13.3818V16.9791C101.619 16.8332 101.376 16.6874 100.987 16.5902C100.598 16.4929 100.209 16.3957 99.6746 16.3957C98.7995 16.3957 98.0702 16.7846 97.4867 17.5138C96.9033 18.2429 96.563 19.361 96.563 20.9166V28.4999H93.0138V13.4304H96.563V15.8124H96.6116C96.9519 14.986 97.4381 14.3541 98.0702 13.8679C98.7508 13.4304 99.5287 13.1874 100.453 13.1874ZM102.008 21.2082C102.008 18.7291 102.738 16.736 104.099 15.2777C105.509 13.8193 107.454 13.0902 109.933 13.0902C112.267 13.0902 114.114 13.7707 115.427 15.1804C116.74 16.5902 117.421 18.486 117.421 20.8679C117.421 23.2985 116.691 25.2429 115.33 26.7013C113.92 28.1596 112.024 28.8888 109.593 28.8888C107.259 28.8888 105.412 28.2082 104.05 26.8471C102.689 25.4374 102.008 23.5416 102.008 21.2082ZM105.703 21.0624C105.703 22.6179 106.044 23.8332 106.773 24.6596C107.502 25.486 108.523 25.9235 109.836 25.9235C111.1 25.9235 112.121 25.5346 112.802 24.6596C113.482 23.8332 113.823 22.6179 113.823 20.9652C113.823 19.361 113.482 18.1457 112.802 17.2707C112.121 16.4443 111.1 16.0068 109.885 16.0068C108.572 16.0068 107.6 16.4443 106.87 17.3193C106.044 18.2429 105.703 19.4582 105.703 21.0624ZM122.72 17.4166C122.72 17.9027 122.866 18.3402 123.206 18.6318C123.547 18.9235 124.227 19.2638 125.345 19.7013C126.755 20.2846 127.776 20.9166 128.311 21.5971C128.895 22.3263 129.186 23.1527 129.186 24.1735C129.186 25.5832 128.652 26.7013 127.533 27.5763C126.464 28.4513 124.957 28.8402 123.109 28.8402C122.477 28.8402 121.796 28.7429 121.018 28.5971C120.24 28.4513 119.608 28.2568 119.074 28.0138V24.5138C119.706 24.9513 120.435 25.3402 121.164 25.5832C121.894 25.8263 122.574 25.9721 123.206 25.9721C123.984 25.9721 124.616 25.8749 124.957 25.6318C125.345 25.3888 125.54 25.0485 125.54 24.5138C125.54 24.0277 125.345 23.6388 124.957 23.2499C124.568 22.9096 123.79 22.5207 122.72 22.0832C121.407 21.5485 120.484 20.9166 119.949 20.236C119.414 19.5554 119.122 18.6804 119.122 17.611C119.122 16.2499 119.657 15.1318 120.727 14.2568C121.796 13.3818 123.206 12.9443 124.908 12.9443C125.443 12.9443 126.026 12.9929 126.658 13.1388C127.29 13.2846 127.874 13.4304 128.311 13.5763V17.0277C127.825 16.736 127.29 16.4443 126.658 16.2013C126.026 15.9582 125.394 15.861 124.811 15.861C124.13 15.861 123.595 16.0068 123.255 16.2499C122.915 16.5902 122.72 16.9304 122.72 17.4166ZM130.694 21.2082C130.694 18.7291 131.423 16.736 132.784 15.2777C134.194 13.8193 136.139 13.0902 138.618 13.0902C140.952 13.0902 142.8 13.7707 144.112 15.1804C145.425 16.5902 146.106 18.486 146.106 20.8679C146.106 23.2985 145.377 25.2429 144.015 26.7013C142.605 28.1596 140.709 28.8888 138.278 28.8888C135.944 28.8888 134.097 28.2082 132.736 26.8471C131.423 25.4374 130.694 23.5416 130.694 21.2082ZM134.389 21.0624C134.389 22.6179 134.729 23.8332 135.458 24.6596C136.188 25.486 137.209 25.9235 138.521 25.9235C139.785 25.9235 140.806 25.5346 141.487 24.6596C142.168 23.8332 142.508 22.6179 142.508 20.9652C142.508 19.361 142.168 18.1457 141.487 17.2707C140.806 16.4443 139.785 16.0068 138.57 16.0068C137.257 16.0068 136.285 16.4443 135.555 17.3193C134.778 18.2429 134.389 19.4582 134.389 21.0624ZM157.92 16.3471H152.621V28.4999H149.023V16.3471H146.495V13.4304H149.023V11.3402C149.023 9.78461 149.558 8.47211 150.579 7.45128C151.6 6.43045 152.912 5.94434 154.517 5.94434C154.954 5.94434 155.343 5.99295 155.684 5.99295C156.024 5.99295 156.316 6.09017 156.559 6.18739V9.24989C156.462 9.20128 156.219 9.10406 155.927 9.00684C155.635 8.90961 155.295 8.861 154.906 8.861C154.177 8.861 153.593 9.10406 153.204 9.54156C152.815 9.97906 152.621 10.7082 152.621 11.5832V13.3818H157.92V9.97906L161.469 8.90961V13.3818H165.067V16.2985H161.469V23.3471C161.469 24.2707 161.664 24.9027 161.956 25.2916C162.296 25.6804 162.831 25.8749 163.56 25.8749C163.755 25.8749 163.998 25.8263 164.289 25.7291C164.581 25.6318 164.824 25.5346 165.019 25.3888V28.3054C164.776 28.4513 164.435 28.5485 163.9 28.6457C163.366 28.7429 162.879 28.7916 162.345 28.7916C160.837 28.7916 159.719 28.4027 158.99 27.6249C158.261 26.8471 157.872 25.6318 157.872 24.0277L157.92 16.3471Z" fill="#737373"/>
<path d="M17.5584 0.5H0.930664V17.125H17.5584V0.5Z" fill="#F25022"/>
<path d="M35.9334 0.5H19.3057V17.125H35.9334V0.5Z" fill="#7FBA00"/>
<path d="M17.5584 18.875H0.930664V35.5H17.5584V18.875Z" fill="#00A4EF"/>
<path d="M35.9334 18.875H19.3057V35.5H35.9334V18.875Z" fill="#FFB900"/>
</g>
<defs>
<clipPath id="clip0_3133_13766">
<rect width="164.138" height="35" fill="white" transform="translate(0.930664 0.5)"/>
</clipPath>
</defs>
</svg>
