<svg width="91" height="20" viewBox="0 0 91 20" fill="none" xmlns="http://www.w3.org/2000/svg">
<path d="M3.1504 7.12644V7.15518H3.14322V7.18392H3.13604V7.19828L3.12885 7.20547V7.21265L3.12167 7.21983V7.22702H3.11449V7.2342L3.08575 7.26294V7.27012H3.07857L3.0642 7.28449H3.05701L3.04983 7.29168H3.04265L3.03546 7.29885H3.02828V7.30604H3.00673L2.99954 7.31323H0.269655L0.26247 7.30604H0.255287L0.248102 7.29885H0.233736L0.226551 7.29168H0.219368L0.205 7.2773H0.197815L0.190632 7.27012V7.26294L0.183446 7.25575H0.176264V7.24857H0.169081L0.161896 7.24139V7.2342H0.154713V7.22702L0.147527 7.21983V7.20547L0.133159 7.19109V7.17673L0.125977 7.16236V7.11926L0.133159 6.89656L0.147527 6.67386L0.205 6.22845L0.240919 6.00575L0.341493 5.56035L0.398966 5.33765L0.470804 5.11494L0.542642 4.89943L0.628851 4.68391L0.815632 4.25288L1.03115 3.83621L1.14609 3.62787L1.2754 3.42673L1.40471 3.23276L1.54121 3.04598L1.68488 2.85919L1.83575 2.67242L2.15184 2.32759L2.31707 2.16235L2.4823 2.00431L2.65472 1.84627L3.01391 1.55891L3.20069 1.42241L3.38747 1.2931L3.57426 1.17098L3.76822 1.05604L3.96937 0.941091L4.1777 0.833331L4.38604 0.732757L4.60156 0.632183L5.04696 0.45977L5.27684 0.380747L5.50673 0.308909L5.7438 0.24425L5.98087 0.186778L6.21794 0.136491L6.46219 0.0933889L6.70644 0.0574726L6.95788 0.0287363L7.44639 0H7.94208L8.19351 0.0143654L8.43777 0.0359163L8.68202 0.0646526L8.92627 0.100574L9.17053 0.143676L9.40759 0.186778L9.64466 0.251436L9.87455 0.308909L10.1044 0.387932L10.3343 0.45977L10.5498 0.545974L10.7725 0.639368L10.9809 0.732757L11.1892 0.833331L11.3975 0.941091L11.5987 1.05604L11.7998 1.17816L12.1878 1.43678L12.3817 1.58046L12.5685 1.73132L12.7553 1.88937L12.9349 2.04741L13.1073 2.21265L13.2725 2.38506L13.4378 2.56466L13.5958 2.75144L13.7467 2.9454L13.8904 3.13937L14.0269 3.33334L14.1633 3.54167L14.2855 3.75L14.4004 3.95833L14.5154 4.17385L14.6159 4.38937L14.7093 4.61207L14.7955 4.82759L14.8746 5.05029L14.9464 5.28018L15.011 5.50288L15.0685 5.73276L15.1188 5.96265L15.1547 6.18535L15.1906 6.41524L15.2122 6.63794L15.2337 6.86782L15.2409 7.06179L15.2481 7.27012L15.2409 7.47127V7.67242L15.2266 7.88076L15.205 8.0819L15.1475 8.49857L15.1116 8.69972L15.0613 8.90806L15.0182 9.11638L14.9608 9.31754L14.8961 9.51869L14.8243 9.72702L14.7524 9.92099L14.6662 10.1221L14.58 10.3161L14.4866 10.5101L14.386 10.704L14.2855 10.8908L14.1705 11.0704L14.0556 11.2572L13.9406 11.4296L13.682 11.7744L13.409 12.1049L13.2654 12.2558L12.9636 12.5575L12.8056 12.7012L5.2984 19.0374L5.26248 19.0661L5.22656 19.0877L5.15472 19.1451L5.1188 19.1667L5.08288 19.1954L5.04696 19.217L5.00386 19.2385L4.96794 19.2601L4.92483 19.2816L4.88891 19.3032L4.84581 19.3247L4.8027 19.3391L4.76679 19.3606L4.55127 19.4325L4.50098 19.4469L4.45788 19.454L4.41477 19.4684L4.28546 19.49L4.23518 19.4971L4.19207 19.5043H4.14897L4.10587 19.5115H0.607298V19.5043H0.578564V19.4971H0.571379L0.564196 19.49H0.55701V19.4828H0.542642V19.4756H0.53546L0.521091 19.4612H0.513909V19.454L0.492355 19.4325V19.4253H0.485172V19.4109H0.47799V19.4037L0.470804 19.3966V19.3822H0.463621V19.3606L0.456436 19.3535V19.2888L0.463621 19.2816V19.2601H0.470804V19.2457L0.47799 19.2385V19.2313L0.485172 19.2242V19.217H0.492355V19.2098L0.49954 19.2026V19.1954H0.506723V19.1882H0.513909V19.1811H0.521091V19.1739L10.7654 10.5388L10.8659 10.4526L10.9593 10.3592L11.1461 10.1581L11.2323 10.0503L11.3185 9.94972L11.3975 9.83478L11.4766 9.72702L11.5556 9.60489L11.6274 9.48995L11.7567 9.2457L11.8214 9.11638L11.8789 8.99426L11.9794 8.73564L12.0225 8.60633L12.0656 8.46984L12.0944 8.33334L12.1303 8.20403L12.195 7.79455L12.2093 7.65805L12.2165 7.52156V7.39225L12.2237 7.25575L12.2165 7.12644L12.2093 6.98995L12.1806 6.73132L12.1375 6.4727L12.1087 6.3434L12.001 5.95547L11.9004 5.69684L11.8501 5.57471L11.7927 5.44541L11.6633 5.20115L11.5915 5.08621L11.5125 4.96408L11.4406 4.84914L11.3544 4.7342L11.182 4.51868L11.0886 4.41092L10.9881 4.31035L10.8947 4.20977L10.7869 4.11638L10.6863 4.02299L10.4708 3.85058L10.3559 3.76437L10.2409 3.69253L10.126 3.61351L10.011 3.54885L9.88892 3.47701L9.77397 3.41954L9.52972 3.3046L9.40041 3.25431L9.27829 3.20403L9.14897 3.16092L9.01248 3.11782L8.88317 3.0819L8.74668 3.04598L8.61018 3.01724L8.4665 2.98851L8.33001 2.97414L8.18633 2.95259L8.04983 2.93822L7.76248 2.92385H7.6188L7.33144 2.93822L7.18776 2.95259L7.05127 2.96695L6.90759 2.98851L6.7711 3.01724L6.62742 3.04598L6.35443 3.11782L6.22512 3.16092L6.08863 3.20403L5.95931 3.25431L5.83719 3.3046L5.70788 3.36207L5.58575 3.41954L5.47081 3.4842L5.34868 3.54885L5.23374 3.62069L5.12598 3.69253L5.01104 3.76437L4.90328 3.85058L4.79552 3.9296L4.68776 4.01581L4.58 4.1092L4.47943 4.20259L4.38604 4.30316L4.28546 4.40374L4.19207 4.5115L4.10587 4.61207L4.01966 4.72702L3.94064 4.84196L3.86161 4.94972L3.78259 5.07184L3.71075 5.19397L3.58144 5.43822L3.52397 5.56035L3.4665 5.68966L3.41621 5.81897L3.33 6.07759L3.29408 6.21409L3.25816 6.3434L3.22943 6.4727L3.20788 6.60201L3.18632 6.73851L3.15759 6.99713L3.1504 7.12644Z" fill="#E71C23"/>
<path d="M50.5418 19.3463H50.5346V19.375H50.5274V19.3894L50.5202 19.3966V19.4109H50.5131V19.4181L50.5059 19.4253V19.4325H50.4987V19.4397H50.4915V19.4469H50.4843V19.454L50.47 19.4684H50.4628V19.4756H50.4556V19.4828H50.4412V19.49H50.434L50.4269 19.4971H50.4197L50.4125 19.5043H50.3909V19.5115H47.6682L47.661 19.5043H47.6395V19.4971H47.6251L47.6108 19.4828H47.6036L47.5892 19.4684H47.582L47.5677 19.454V19.4469H47.5605V19.4397H47.5533V19.4325H47.5461V19.4253L47.5389 19.4181V19.4109L47.5317 19.4037V19.3966L47.5246 19.3894V19.3678H47.5174V0.150862L47.5246 0.143676V0.122125L47.5317 0.11494V0.10776H47.5389V0.0933889H47.5461V0.0862035L47.5533 0.0790235V0.0718381H47.5605V0.0646526H47.5677V0.0574726H47.5748V0.0502872H47.582V0.0431017H47.5964V0.0359163L47.6036 0.0287363H47.6108L47.6179 0.0215509H47.6251L47.6323 0.0143654H47.6467L47.6539 0.00717997H47.6682V0H48.9541L49.0547 0.00717997L49.1625 0.0215509L49.2631 0.0287363L49.3636 0.0431017L49.4714 0.0646526L49.572 0.0790235L49.6797 0.10776L49.7803 0.129311L49.8809 0.158047L49.9886 0.186778L50.1898 0.258621L50.2832 0.294538L50.4843 0.380747L50.5777 0.423848L50.8579 0.57471L50.9441 0.632183L51.0375 0.689655L51.1237 0.747128L51.2027 0.81178L51.2889 0.869253L51.3679 0.933906L51.447 1.00575L51.526 1.0704L51.6697 1.21408L64.3062 14.7701H64.3134V14.7773H64.3205V14.7845H64.3277V14.7917H64.3349L64.3421 14.7989H64.3493V14.806H64.3636V14.8132H64.3708L64.378 14.8204H64.3924L64.3996 14.8276H64.4283L64.4355 14.8348H64.4714L64.4786 14.8276H64.5145V14.8204H64.5361V14.8132H64.5504V14.806H64.5576L64.5648 14.7989H64.572L64.5792 14.7917V14.7845H64.5863L64.6007 14.7701H64.6079V14.7629L64.6223 14.7486V14.7414H64.6294V14.7342L64.6366 14.727V14.7127H64.6438V14.6983L64.651 14.6911V14.6696L64.6582 14.6624V0.150862L64.6654 0.143676V0.129311L64.6726 0.122125V0.11494L64.6797 0.10776V0.100574L64.6869 0.0933889V0.0862035H64.6941V0.0790235L64.7085 0.0646526V0.0574726H64.7157L64.73 0.0431017H64.7372V0.0359163L64.7444 0.0287363H64.7516L64.7588 0.0215509H64.7731V0.0143654H64.7875L64.7947 0.00717997H64.809V0H67.5246L67.5318 0.00717997H67.5461L67.5533 0.0143654H67.5605L67.5677 0.0215509H67.582L67.5892 0.0287363H67.5964V0.0359163L67.6036 0.0431017H67.6108L67.6467 0.0790235V0.0862035L67.6539 0.0933889V0.100574L67.6611 0.10776V0.11494H67.6683V0.129311L67.6754 0.136491V0.165227H67.6826V19.3463L67.6754 19.3535V19.375L67.6683 19.3822V19.3966L67.6611 19.4037V19.4109H67.6539V19.4253H67.6467V19.4325L67.6251 19.454V19.4612H67.618V19.4684H67.6108L67.6036 19.4756H67.5964V19.4828H67.5892L67.582 19.49H67.5749V19.4971H67.5605L67.5533 19.5043H67.5389L67.5318 19.5115H66.2458L66.1381 19.5043L66.0375 19.4971L65.9369 19.4828L65.8292 19.4684L65.7286 19.454L65.6208 19.4325L65.5203 19.4109L65.4125 19.3822L65.1108 19.296L65.0102 19.2601L64.9096 19.217L64.809 19.1811L64.7157 19.1379L64.6151 19.0877L64.5217 19.0446L64.4283 18.9871L64.3421 18.9368L64.2487 18.8793L63.9901 18.7069L63.9111 18.6423L63.8249 18.5776L63.7458 18.5129L63.674 18.4411L63.595 18.3693L63.5231 18.2974L50.8866 4.74138L50.8794 4.7342H50.8723V4.72702H50.8651V4.71983H50.8579L50.8507 4.71265H50.8435V4.70546H50.8292V4.69828H50.8148L50.8076 4.6911H50.7932L50.786 4.68391H50.6998L50.6927 4.6911H50.6711L50.6639 4.69828H50.6496V4.70546H50.6424V4.71265H50.628V4.71983H50.6208L50.6136 4.72702H50.6065V4.7342H50.5993V4.74138H50.5921V4.74857H50.5849V4.75575L50.5705 4.77012V4.7773L50.5634 4.78448V4.79167H50.5562V4.80604L50.549 4.81322V4.82759H50.5418V19.3463Z" fill="#E71C23"/>
<path d="M44.3351 19.5115L44.3423 19.5043H44.3638V19.4971H44.3782V19.49H44.3854L44.3926 19.4828H44.3998L44.4141 19.4684H44.4213L44.4357 19.454V19.4469H44.4429V19.4397H44.4501V19.4325L44.4644 19.4181V19.4109L44.4716 19.4037V19.3894H44.4788V19.3678L44.486 19.3606V0.150862L44.4788 0.143676V0.122125H44.4716V0.10776L44.4644 0.100574V0.0933889H44.4572V0.0862035H44.4501V0.0718381H44.4429V0.0646526H44.4357V0.0574726H44.4285V0.0502872H44.4213V0.0431017H44.407V0.0359163L44.3998 0.0287363H44.3926L44.3854 0.0215509H44.3782L44.371 0.0143654H44.3638L44.3567 0.00717997H44.3351V0H41.6196L41.6124 0.00717997H41.598L41.5909 0.0143654H41.5837L41.5765 0.0215509H41.5621V0.0287363H41.5478V0.0359163L41.5406 0.0431017H41.5334V0.0502872H41.5262V0.0574726H41.519V0.0646526H41.5118V0.0718381H41.5047V0.0790235L41.4975 0.0862035V0.0933889H41.4903V0.100574H41.4831V0.11494L41.4759 0.122125V0.136491L41.4687 0.143676V0.165227L41.4615 0.172412V19.3463H41.4687V19.375H41.4759V19.3894L41.4831 19.3966V19.4109H41.4903V19.4181L41.4975 19.4253V19.4325H41.5047V19.4397H41.5118V19.4469H41.519V19.454L41.5334 19.4684H41.5406V19.4756H41.5478V19.4828H41.5621V19.49H41.5765V19.4971H41.5837L41.5909 19.5043H41.6124V19.5115H44.3351Z" fill="#E71C23"/>
<path d="M90.8732 12.4138L90.866 12.4066V12.3923L90.8588 12.3851V12.3707H90.8516V12.3563H90.8445V12.3491L90.8229 12.3276L88.2008 9.62645H88.1936V9.61926H88.1864V9.61208H88.1792V9.60489H88.172L88.1649 9.59771H88.1577L88.1433 9.58334H88.1289V9.57616H88.1002V9.56897H87.9996V9.57616H87.9781V9.58334H87.9637L87.9565 9.59053H87.9493V9.59771H87.9422L87.935 9.60489H87.9278V9.61208H87.9206L87.9134 9.61926H87.9062V9.62645L87.8919 9.64081V9.648H87.8847V9.65518L87.8775 9.66236V9.66955H87.8703V9.68391H87.8631V9.69829L87.8559 9.70547V9.72702L87.8488 9.7342V14.7701L87.8344 14.8563V14.8994L87.8272 14.9425L87.82 14.9928L87.8057 15.0359L87.7985 15.079L87.7841 15.1293L87.7554 15.2155L87.741 15.2658L87.7266 15.3089L87.7051 15.352L87.6907 15.4023L87.6045 15.5747L87.4896 15.7471L87.4608 15.7831L87.4321 15.8262L87.3962 15.8693L87.3674 15.9052L87.2238 16.0489L87.1807 16.0848L87.1447 16.1207L87.1016 16.1494L87.0657 16.1854L86.8933 16.3003L86.8502 16.3219L86.8071 16.3506L86.7568 16.3721L86.6706 16.4152L86.6203 16.4296L86.5772 16.4512L86.5269 16.4655L86.4838 16.4871L86.4335 16.5015L86.3904 16.5158L86.3401 16.523L86.297 16.5374L86.2468 16.5446L86.2037 16.5517L86.1534 16.5589L86.1103 16.5733H86.06L86.0169 16.5805H85.9666L85.9235 16.5877H75.6577L75.6146 16.5805H75.5715L75.5212 16.5733H75.4781L75.4278 16.5589L75.3847 16.5517L75.3344 16.5446L75.2913 16.5374L75.241 16.523L75.1979 16.5158L75.1476 16.5015L75.1045 16.4871L75.0542 16.4655L75.0039 16.4512L74.9608 16.4296L74.9177 16.4152L74.8674 16.3937L74.7812 16.3506L74.7309 16.3219L74.6878 16.3003L74.5585 16.2141L74.5226 16.1854L74.4795 16.1494L74.4364 16.1207L74.3646 16.0489L74.3214 16.0129L74.2496 15.9411L74.2209 15.9052L74.185 15.8693L74.149 15.8262L74.1203 15.7831L74.0916 15.7471L74.0054 15.6178L73.9838 15.5747L73.9551 15.5316L73.8904 15.4023L73.8761 15.352L73.8545 15.3089L73.8401 15.2658L73.8258 15.2155L73.797 15.1293L73.7898 15.079L73.7755 15.0359L73.7683 14.9928L73.7611 14.9425L73.7396 14.8132V14.7701L73.7324 14.727V4.79167L73.7396 4.74857V4.69828L73.7683 4.52586L73.7755 4.47558L73.7898 4.43247L73.797 4.38219L73.8401 4.25288L73.8545 4.20259L73.8761 4.15949L73.8904 4.11638L73.912 4.06609L73.9551 3.97989L73.9838 3.93678L74.0054 3.89368L74.0916 3.76437L74.1203 3.72845L74.149 3.68535L74.185 3.64943L74.2209 3.60632L74.2496 3.57041L74.3214 3.49856L74.3646 3.46265L74.4364 3.39081L74.5226 3.33334L74.5585 3.29741L74.6447 3.23994L74.6878 3.21839L74.7309 3.18965L74.7812 3.1681L74.8674 3.125L74.9177 3.10345L75.0039 3.06034L75.1045 3.03161L75.1476 3.01724L75.1979 3.00288L75.241 2.98851L75.2913 2.97414L75.3344 2.96695L75.3847 2.95977L75.4278 2.95259L75.4781 2.9454L75.5212 2.93822L75.5715 2.93104H75.6146L75.6577 2.92385H87.6979V2.91667H87.7195L87.7266 2.90948H87.7338L87.741 2.9023H87.7482V2.89512H87.7554L87.7626 2.88793H87.7697L87.7913 2.86638H87.7985V2.85919H87.8057V2.85202L87.82 2.83764V2.83046L87.8272 2.82328V2.81609L87.8344 2.80891V2.79454H87.8416V2.78017L87.8488 2.77299V0.150862L87.8416 0.143676V0.129311L87.8344 0.122125V0.11494L87.8272 0.10776V0.100574L87.82 0.0933889V0.0862035H87.8128V0.0790235L87.8057 0.0718381V0.0646526H87.7985V0.0574726H87.7913L87.7769 0.0431017H87.7697V0.0359163L87.7626 0.0287363H87.7554L87.7482 0.0215509H87.7338V0.0143654H87.7266L87.7195 0.00717997H87.6979V0H75.5284L75.4134 0.00717997L75.2985 0.0215509L75.1835 0.0287363L75.0686 0.0431017L74.9465 0.0574726L74.7166 0.100574L74.5944 0.129311L74.3646 0.186778L74.2424 0.2227L74.1275 0.258621L74.0126 0.301723L73.8904 0.337645L73.5456 0.488506L73.4307 0.545974L73.3229 0.603446L73.208 0.660919L73.1002 0.725571L72.9924 0.797415L72.8847 0.862068L72.7769 0.933906L72.3746 1.25L72.2812 1.33621L72.1878 1.4296L72.0944 1.51581L71.922 1.70258L71.8358 1.80316L71.5987 2.10489L71.5269 2.20546L71.2683 2.6365L71.2108 2.74426L71.1605 2.85919L71.1102 2.96695L71.06 3.0819L70.9738 3.31179L70.9378 3.41954L70.9019 3.53448L70.8732 3.64943L70.8373 3.76437L70.7942 3.99425L70.7726 4.10201L70.751 4.21695L70.7439 4.32471L70.7295 4.43966L70.7223 4.54742L70.7151 4.66236L70.7079 4.77012V14.7414L70.7151 14.8492L70.7223 14.9641L70.7295 15.0719L70.7439 15.1868L70.751 15.3017L70.7726 15.4095L70.8373 15.7543L70.8732 15.8621L70.9019 15.977L70.9738 16.2069L71.0169 16.3219L71.06 16.4296L71.1102 16.5446L71.1605 16.6523L71.2108 16.7673L71.2683 16.875L71.5269 17.306L71.5987 17.4138L71.7568 17.615L71.8358 17.7084L71.922 17.8089L72.0944 17.9957L72.1878 18.0891L72.3746 18.2615L72.4752 18.3477L72.6763 18.5058L72.7769 18.5776L72.9924 18.7213L73.208 18.8506L73.3229 18.9152L73.4307 18.9727L73.5456 19.023L73.6605 19.0805L73.7755 19.1236L73.8904 19.1739L74.0126 19.217L74.1275 19.2529L74.2424 19.296L74.3646 19.3247L74.4795 19.3606L74.5944 19.3894L74.7166 19.4109L74.9465 19.454L75.0686 19.4684L75.2985 19.4971L75.5284 19.5115H86.06L86.2899 19.4971L86.6347 19.454L86.7496 19.4325L86.8717 19.4109L86.9867 19.3894L87.1016 19.3606L87.2238 19.3247L87.3387 19.296L87.4536 19.2529L87.5758 19.217L87.6907 19.1739L87.8057 19.1236L87.9206 19.0805L88.0356 19.023L88.1505 18.9727L88.2654 18.9152L88.4809 18.7859L88.5959 18.7213L88.7037 18.6494L88.8042 18.5776L88.912 18.5058L89.1131 18.3477L89.2065 18.2615L89.3071 18.1753L89.4005 18.0891L89.4867 17.9957L89.5801 17.9023L89.6663 17.8089L89.7453 17.7084L89.8315 17.615L89.9034 17.5144L89.9824 17.4138L90.1261 17.1983L90.2554 16.9828L90.3703 16.7673L90.4206 16.6523L90.4709 16.5446L90.5212 16.4296L90.5643 16.3219L90.6074 16.2069L90.7151 15.8621L90.7439 15.7543L90.7654 15.6394L90.7942 15.5244L90.8085 15.4095L90.8301 15.3017L90.8445 15.1868L90.8516 15.0719L90.866 14.9641L90.8732 14.8492V12.4138Z" fill="#E71C23"/>
<path d="M21.8016 17.9669L21.7945 17.9238V17.8735L21.7873 17.8304V17.7873L21.7801 17.7442L21.7729 17.6939L21.7585 17.6508L21.7514 17.6077L21.737 17.5574L21.7083 17.4712L21.6939 17.4209L21.6795 17.3778L21.658 17.3347L21.6436 17.2916L21.622 17.2413L21.5789 17.1551L21.5502 17.112L21.5287 17.0689L21.4424 16.9396L21.4137 16.9037L21.385 16.8606L21.3491 16.8247L21.3203 16.7816L21.1766 16.6379L21.1335 16.602L21.0976 16.566L21.0545 16.5373L21.0186 16.5086L20.9755 16.4727L20.8893 16.4152L20.8462 16.3936L20.8031 16.3649L20.76 16.3433L20.7097 16.3218L20.6666 16.2931L20.6235 16.2715L20.5732 16.2571L20.5301 16.2356L20.4798 16.2212L20.4367 16.2069L20.3864 16.1925L20.3433 16.1781L20.293 16.1637L20.2499 16.1494L20.1996 16.1422L20.1565 16.135L20.1062 16.1206H20.0631L20.0128 16.1135L19.9697 16.1063H19.9195L19.8764 16.0991H19.6968L19.6537 16.1063H19.6034L19.5603 16.1135L19.51 16.1206H19.4669L19.4166 16.135L19.3735 16.1422L19.3232 16.1494L19.2801 16.1637L19.2298 16.1781L19.1867 16.1925L19.1364 16.2069L19.0933 16.2212L19.043 16.2356L18.9999 16.2571L18.9496 16.2715L18.9065 16.2931L18.8562 16.3218L18.77 16.3649L18.7269 16.3936L18.6838 16.4152L18.5976 16.4727L18.5545 16.5086L18.5114 16.5373L18.4755 16.566L18.4396 16.602L18.3965 16.6379L18.2528 16.7816L18.2169 16.8247L18.1881 16.8606L18.1594 16.9037L18.1235 16.9396L18.0947 16.9827L18.0732 17.0258L18.0157 17.112L17.9511 17.2413L17.9295 17.2916L17.908 17.3347L17.8792 17.4209L17.8577 17.4712L17.8505 17.5143L17.8361 17.5574L17.8218 17.6077L17.8146 17.6508L17.8002 17.6939L17.793 17.7442L17.7787 17.8304V17.8735L17.7715 17.9238V18.1824L17.7787 18.2255V18.2686L17.7858 18.3189L17.8002 18.4051L17.8146 18.4482L17.8218 18.4985L17.8361 18.5416L17.8505 18.5919L17.8577 18.635L17.8792 18.6781L17.8936 18.7284L17.908 18.7715L17.9511 18.8577L17.9726 18.908L18.0157 18.9942L18.0732 19.0804L18.0947 19.1235L18.1235 19.1594L18.1594 19.2025L18.1881 19.2456L18.2169 19.2816L18.2528 19.3175L18.2887 19.3606L18.3965 19.4683L18.4396 19.5043L18.4755 19.533L18.5114 19.5689L18.7269 19.7126L18.77 19.7342L18.8131 19.7629L18.8562 19.7844L18.9065 19.806L18.9496 19.8275L18.9999 19.8491L19.043 19.8635L19.0933 19.885L19.1364 19.8994L19.1867 19.9138L19.2298 19.9281L19.2801 19.9425L19.3232 19.9497L19.3735 19.964L19.4166 19.9712L19.4669 19.9784L19.51 19.9856L19.5603 19.9928H19.6034L19.6537 20H19.9195L19.9697 19.9928H20.0128L20.0631 19.9856L20.1062 19.9784L20.1565 19.9712L20.1996 19.964L20.2499 19.9497L20.293 19.9425L20.3433 19.9281L20.3864 19.9138L20.4367 19.8994L20.4798 19.885L20.5301 19.8635L20.5732 19.8491L20.6235 19.8275L20.7097 19.7844L20.76 19.7629L20.8031 19.7342L20.8462 19.7126L21.0186 19.5977L21.0545 19.5689L21.0976 19.533L21.1335 19.5043L21.1766 19.4683L21.2844 19.3606L21.3203 19.3175L21.3491 19.2816L21.385 19.2456L21.4424 19.1594L21.4712 19.1235L21.5287 19.0373L21.5502 18.9942L21.5789 18.9511L21.6005 18.908L21.622 18.8577L21.6436 18.8146L21.658 18.7715L21.6795 18.7284L21.6939 18.6781L21.7226 18.5919L21.737 18.5416L21.7514 18.4985L21.7585 18.4482L21.7729 18.4051L21.7873 18.3189V18.2686L21.7945 18.2255V18.1824L21.8016 18.1393V17.9669Z" fill="#E71C23"/>
<path d="M15.753 18.0531L15.7458 18.01V17.9238L15.7386 17.8735V17.8304L15.7243 17.7442L15.7171 17.6939L15.7099 17.6508L15.6955 17.6077L15.6884 17.5574L15.6596 17.4712L15.6453 17.4209L15.6237 17.3778L15.6093 17.3347L15.5878 17.2916L15.5662 17.2413L15.5016 17.112L15.4728 17.0689L15.4513 17.0258L15.3938 16.9396L15.3651 16.9037L15.3292 16.8606L15.3004 16.8247L15.2645 16.7816L15.0849 16.602L15.0418 16.566L15.0059 16.5373L14.9628 16.5086L14.9197 16.4727L14.8335 16.4152L14.7904 16.3936L14.7473 16.3649L14.6611 16.3218L14.6108 16.2931L14.5677 16.2715L14.5246 16.2571L14.4743 16.2356L14.4312 16.2212L14.3809 16.2069L14.3378 16.1925L14.2875 16.1781L14.2444 16.1637L14.1941 16.1494L14.1438 16.1422L14.1007 16.135L14.0504 16.1206H14.0073L13.957 16.1135L13.9139 16.1063H13.8708L13.8205 16.0991H13.6409L13.5978 16.1063H13.5547L13.5044 16.1135L13.4613 16.1206H13.4111L13.368 16.135L13.3177 16.1422L13.2746 16.1494L13.174 16.1781L13.1309 16.1925L13.0806 16.2069L13.0375 16.2212L12.9872 16.2356L12.9441 16.2571L12.901 16.2715L12.8507 16.2931L12.8076 16.3218L12.7573 16.3433L12.7142 16.3649L12.6711 16.3936L12.628 16.4152L12.5418 16.4727L12.4987 16.5086L12.4628 16.5373L12.4197 16.566L12.3478 16.6379L12.3047 16.6738L12.2329 16.7456L12.2042 16.7816L12.1682 16.8247L12.1323 16.8606L12.1036 16.9037L12.0748 16.9396L11.9886 17.0689L11.9671 17.112L11.9384 17.1551L11.8953 17.2413L11.8737 17.2916L11.8593 17.3347L11.8378 17.3778L11.8234 17.4209L11.809 17.4712L11.7803 17.5574L11.7659 17.6077L11.7516 17.6939L11.7444 17.7442L11.7228 17.8735V17.9238L11.7157 17.9669V18.1393L11.7228 18.1824V18.2255L11.73 18.2686L11.7372 18.3189L11.7588 18.4482L11.7659 18.4985L11.7803 18.5416L11.7947 18.5919L11.8234 18.6781L11.8378 18.7284L11.8593 18.7715L11.8737 18.8146L11.8953 18.8577L11.9168 18.908L11.9384 18.9511L11.9671 18.9942L11.9886 19.0373L12.0461 19.1235L12.0748 19.1594L12.1323 19.2456L12.2042 19.3175L12.2329 19.3606L12.3047 19.4324L12.3478 19.4683L12.3838 19.5043L12.4197 19.533L12.4628 19.5689L12.4987 19.5977L12.6711 19.7126L12.7142 19.7342L12.7573 19.7629L12.8076 19.7844L12.8507 19.806L12.901 19.8275L12.9441 19.8491L12.9872 19.8635L13.0375 19.885L13.0806 19.8994L13.1309 19.9138L13.174 19.9281L13.2243 19.9425L13.2746 19.9497L13.3177 19.964L13.368 19.9712L13.4111 19.9784L13.4613 19.9856L13.5044 19.9928H13.5547L13.5978 20H13.8708L13.9139 19.9928H13.957L14.0073 19.9856L14.0504 19.9784L14.1007 19.9712L14.1438 19.964L14.1941 19.9497L14.2444 19.9425L14.2875 19.9281L14.3378 19.9138L14.3809 19.8994L14.4312 19.885L14.4743 19.8635L14.5246 19.8491L14.6108 19.806L14.6611 19.7844L14.7042 19.7629L14.7473 19.7342L14.7904 19.7126L15.0059 19.5689L15.0418 19.533L15.0849 19.5043L15.2286 19.3606L15.2645 19.3175L15.3004 19.2816L15.3292 19.2456L15.3651 19.2025L15.3938 19.1594L15.4226 19.1235L15.4513 19.0804L15.4728 19.0373L15.5016 18.9942L15.5447 18.908L15.5662 18.8577L15.6093 18.7715L15.6237 18.7284L15.6453 18.6781L15.674 18.5919L15.6884 18.5416L15.6955 18.4985L15.7099 18.4482L15.7315 18.3189L15.7386 18.2686V18.2255L15.7458 18.1824V18.0962L15.753 18.0531Z" fill="#E71C23"/>
<path d="M35.0023 19.5115L34.7006 19.4684L34.4994 19.4109L34.4563 19.3894L34.406 19.375L34.3055 19.3319L34.2624 19.3104L34.2121 19.2888L34.169 19.2673L34.1259 19.2385L34.0828 19.217L34.0325 19.1882L33.9966 19.1595L33.9104 19.102L33.8744 19.0661L33.8313 19.0374L33.7954 19.0015L33.7595 18.9727L33.7236 18.9368L24.6431 9.59771L24.6359 9.59053H24.6287V9.58334L24.6216 9.57616V9.56897H24.6144V9.5546H24.6072V9.54742L24.6 9.54024V9.52587H24.5928V9.50432H24.5856V9.42529H24.5928V9.40374L24.6 9.39656V9.38938L24.6072 9.38219V9.36783H24.6144V9.36064L24.6216 9.35345V9.34627H24.6287V9.33909H24.6359V9.3319H24.6431V9.32472H24.6503V9.31754H24.6575V9.31035H24.6647V9.30317H24.679V9.29598H24.6862L24.6934 9.2888H24.7078V9.28162H24.7221L24.7293 9.27443H24.758V9.26725H33.5296L33.5799 9.26007H33.623L33.6661 9.25288L33.7667 9.23851L33.8098 9.23133L33.8601 9.21696L33.9032 9.20259L33.9535 9.19541L33.9966 9.18104L34.0469 9.16667L34.09 9.15231L34.1402 9.13076L34.1833 9.11638L34.2336 9.09483L34.3198 9.05173L34.3701 9.03018L34.4132 9.00144L34.4563 8.97989L34.6287 8.86495L34.6647 8.82903L34.7078 8.8003L34.7437 8.76437L34.7868 8.73564L34.8227 8.69972L34.8586 8.65661L34.9305 8.58478L34.9592 8.54886L34.9951 8.50575L35.0239 8.46984L35.1388 8.29742L35.1604 8.2615L35.1891 8.21122L35.2537 8.0819L35.2681 8.03162L35.2897 7.98851L35.3184 7.90231L35.3328 7.85202L35.3615 7.76581L35.3687 7.71552L35.3759 7.67242L35.3902 7.62931L35.3974 7.57903V7.53593L35.4046 7.49282V7.44972L35.4118 7.40661V4.79167L35.4046 4.74857V4.69828L35.3974 4.65517V4.61207L35.3902 4.56897L35.3759 4.52586L35.3687 4.47558L35.3615 4.43247L35.3471 4.38219L35.304 4.25288L35.2897 4.20259L35.2681 4.15949L35.2537 4.11638L35.2322 4.06609L35.1891 3.97989L35.1604 3.93678L35.1388 3.89368L35.0526 3.76437L35.0239 3.72845L34.9951 3.68535L34.9592 3.64943L34.9305 3.60632L34.7868 3.46265L34.7437 3.42673L34.7078 3.39081L34.6647 3.36207L34.6287 3.33334L34.5856 3.29741L34.4994 3.23994L34.4563 3.21839L34.4132 3.18965L34.3701 3.1681L34.3198 3.14655L34.2767 3.11782L34.2336 3.10345L34.1833 3.0819L34.1402 3.06034L34.09 3.04598L34.0469 3.03161L33.9966 3.01724L33.9535 3.00288L33.9032 2.98851L33.8601 2.97414L33.8098 2.96695L33.7667 2.95977L33.6661 2.9454L33.5799 2.93104H33.5296L33.4865 2.92385H21.4678V2.93104H21.4391L21.4319 2.93822H21.4175L21.4103 2.9454H21.4032V2.95259H21.3888V2.95977H21.3816L21.3744 2.96695H21.3672V2.97414H21.3601V2.98133H21.3529V2.98851H21.3457V2.99569H21.3385V3.00288H21.3313V3.01006L21.3241 3.01724V3.02443H21.317V3.03879H21.3098V3.05316L21.3026 3.06034V3.0819H21.2954V13.0173H21.2882V13.0316L21.281 13.0388V13.0604H21.2738V13.0675L21.2667 13.0747V13.0819H21.2595V13.0891L21.2379 13.1106V13.1178H21.2307V13.125H21.2236L21.2164 13.1322H21.2092V13.1394H21.202L21.1948 13.1466H21.1876V13.1537H21.1733L21.1661 13.1609H21.1517L21.1445 13.1681H21.123L21.1158 13.1753H18.4506L18.4434 13.1681H18.4218L18.4147 13.1609H18.4003L18.3931 13.1537H18.3787L18.3644 13.1394H18.3572L18.3428 13.125H18.3356V13.1178H18.3284V13.1106L18.2997 13.0819V13.0747L18.2925 13.0675V13.0604H18.2853V13.046L18.2782 13.0388V13.0244L18.271 13.0173V1.86063L18.2782 1.81753V1.77443L18.2853 1.73132V1.68103L18.2925 1.63793L18.3069 1.59483L18.3141 1.55172L18.3213 1.50144L18.35 1.41523L18.3644 1.36494L18.3931 1.27874L18.4147 1.22845L18.429 1.18535L18.4937 1.05604L18.5224 1.01293L18.544 0.962642L18.5727 0.926726L18.6589 0.797415L18.6876 0.761493L18.7236 0.718391L18.7523 0.68247L18.7882 0.646553L18.8241 0.603446L18.896 0.531608L18.9391 0.502872L18.975 0.466956L19.0181 0.431034L19.054 0.402297L19.2264 0.287358L19.2695 0.265801L19.3126 0.23707L19.3629 0.215514L19.4491 0.172412L19.4994 0.150862L19.5425 0.136491L19.5928 0.11494L19.6359 0.100574L19.6862 0.0862035L19.7293 0.0718381L19.7796 0.0574726L19.8227 0.0502872L19.873 0.0431017L19.9161 0.0287363L19.9664 0.0215509L20.0095 0.0143654L20.0598 0.00717997H20.1029L20.1532 0H33.623L33.7379 0.00717997L33.8457 0.0215509L33.9678 0.0287363L34.1977 0.0574726L34.4276 0.100574L34.5497 0.129311L34.6647 0.158047L34.7868 0.186778L35.0167 0.258621L35.1316 0.301723L35.2537 0.337645L35.5986 0.488506L35.7135 0.545974L35.8213 0.603446L35.9362 0.660919L36.044 0.725571L36.1517 0.797415L36.2595 0.862068L36.3673 0.933906L36.4678 1.01293L36.5756 1.09195L36.6762 1.17098L36.7696 1.25L36.8701 1.33621L37.1431 1.6092L37.2293 1.70258L37.3083 1.80316L37.3946 1.90374L37.4664 1.99713L37.5454 2.10489L37.6173 2.20546L37.6891 2.31322L37.7537 2.42098L37.8112 2.52874L37.8759 2.6365L37.9333 2.74426L37.9836 2.85919L38.0339 2.96695L38.0842 3.0819L38.1704 3.31179L38.2063 3.41954L38.2782 3.64943L38.3069 3.76437L38.3285 3.87932L38.3572 3.98707L38.3716 4.10201L38.3931 4.21695L38.4075 4.32471L38.4147 4.43966L38.429 4.54742L38.4362 4.66236V7.53593L38.429 7.64368L38.4147 7.75144L38.4075 7.86638L38.3931 7.98133L38.3716 8.08908L38.3572 8.20403L38.3285 8.31897L38.3069 8.43391L38.2782 8.54886L38.2423 8.65661L38.1704 8.8865L38.0842 9.11638L38.0339 9.22414L37.9836 9.33909L37.9333 9.44685L37.8759 9.5546L37.8112 9.66955L37.7537 9.77731L37.6891 9.88506L37.6173 9.98564L37.5454 10.0934L37.4664 10.194L37.3946 10.2946L37.3083 10.3951L37.2293 10.4885L37.1431 10.5819L37.0497 10.6753L36.9635 10.7687L36.8701 10.8549L36.7696 10.9411L36.6762 11.0273L36.5756 11.1063L36.4678 11.1854L36.3673 11.2572L36.1517 11.4009L35.9362 11.5302L35.8213 11.5948L35.7135 11.6523L35.5986 11.7026L35.4836 11.7601L35.3687 11.8104L35.2537 11.8535L35.1316 11.8966L35.0167 11.9397L34.7868 12.0115L34.6647 12.0402L34.5497 12.069L34.4276 12.0905L34.0828 12.1552L33.9678 12.1624L33.8457 12.1767L33.7379 12.1839L33.5081 12.1983H31.7408V12.2055H31.7193V12.2127H31.7049L31.6977 12.2198H31.6833V12.227H31.6762L31.6618 12.2414H31.6546V12.2486H31.6474V12.2558H31.6402V12.2629H31.6331V12.2701H31.6259V12.2773L31.6187 12.2845V12.2917H31.6115V12.306H31.6043V12.3132L31.5971 12.3204V12.3348L31.59 12.342V12.3779L31.5828 12.3851V12.3994L31.59 12.4066V12.4425L31.5971 12.4497V12.4641H31.6043V12.4785L31.6115 12.4856V12.4928H31.6187V12.5L31.6259 12.5072V12.5144H31.6331V12.5216L38.1201 19.1882L38.1345 19.2026V19.2098L38.1489 19.2242V19.2313L38.156 19.2385V19.2457L38.1632 19.2529V19.2673L38.1704 19.2744V19.3678L38.1632 19.375V19.3822L38.156 19.3894V19.4037L38.1489 19.4109V19.4181H38.1417V19.4253L38.1345 19.4325V19.4397H38.1273V19.4469H38.1201V19.454L38.1129 19.4612H38.1058V19.4684H38.0986V19.4756H38.0914L38.0842 19.4828H38.077V19.49H38.0627L38.0555 19.4971H38.0483V19.5043H38.0267V19.5115H35.0023Z" fill="#E71C23"/>
</svg>
