<svg width="72" height="50" viewBox="0 0 72 50" fill="none" xmlns="http://www.w3.org/2000/svg">
<g clip-path="url(#clip0_3133_13774)">
<mask id="mask0_3133_13774" style="mask-type:luminance" maskUnits="userSpaceOnUse" x="0" y="0" width="72" height="50">
<path d="M0.845703 0.130859H71.4196V49.8691H0.845703V0.130859Z" fill="white"/>
</mask>
<g mask="url(#mask0_3133_13774)">
<path fill-rule="evenodd" clip-rule="evenodd" d="M30.1491 5.57594C32.4272 3.18327 35.5979 1.7016 39.1006 1.7016C43.7709 1.7016 47.8186 4.3194 49.998 8.21992C51.9327 7.34734 54.0282 6.89685 56.1473 6.89793C64.5539 6.89793 71.3778 13.8351 71.3778 22.3953C71.3778 30.9555 64.5539 37.8927 56.1473 37.8927C55.1198 37.8927 54.1183 37.7885 53.1375 37.5916C51.2305 41.021 47.585 43.3508 43.4336 43.3508C41.7435 43.3542 40.0749 42.9674 38.5557 42.2199C36.6227 46.8011 32.1211 50.021 26.8799 50.021C21.4052 50.021 16.7609 46.5393 14.9706 41.644C14.1738 41.8137 13.3616 41.8989 12.5472 41.8985C6.03467 41.8985 0.767578 36.5058 0.767578 29.8827C0.767578 25.4325 3.13907 21.5581 6.65738 19.4639C5.91097 17.7291 5.52677 15.8577 5.52872 13.9665C5.52872 6.32254 11.678 0.144531 19.2543 0.144531C23.6911 0.144531 27.6609 2.27804 30.1517 5.58956" fill="#00A1E0"/>
</g>
<path fill-rule="evenodd" clip-rule="evenodd" d="M11.0502 25.9952C11.0059 26.112 11.0661 26.1363 11.0803 26.157C11.2129 26.2539 11.3476 26.324 11.4825 26.4028C12.2038 26.7876 12.8836 26.9002 13.5945 26.9002C15.0423 26.9002 15.9427 26.1227 15.9427 24.8714V24.8468C15.9427 23.6897 14.9256 23.2683 13.9759 22.9672L13.8516 22.9266C13.1329 22.6916 12.5128 22.4868 12.5128 22.0104V21.9861C12.5128 21.5777 12.8761 21.2766 13.4365 21.2766C14.0592 21.2766 14.8013 21.4858 15.2761 21.7505C15.2761 21.7505 15.4167 21.8421 15.4678 21.7052C15.4956 21.6311 15.7377 20.9774 15.7636 20.9041C15.7911 20.8274 15.7429 20.7696 15.6933 20.7397C15.1484 20.4046 14.396 20.1769 13.6176 20.1769L13.4731 20.1774C12.1472 20.1774 11.221 20.9863 11.221 22.1434V22.1683C11.221 23.3882 12.2432 23.7861 13.1981 24.0609L13.3517 24.1091C14.047 24.3248 14.649 24.5122 14.649 25.0044V25.029C14.649 25.4819 14.2572 25.8196 13.6293 25.8196C13.3851 25.8196 12.607 25.8154 11.7637 25.2777C11.6618 25.2177 11.6037 25.1745 11.525 25.1261C11.4835 25.1007 11.3797 25.0549 11.3346 25.1921L11.0492 25.9931M32.2473 25.9931C32.2029 26.1099 32.2631 26.1342 32.2779 26.1549C32.41 26.2518 32.5452 26.3219 32.6801 26.4007C33.4014 26.7855 34.0812 26.8981 34.7921 26.8981C36.2399 26.8981 37.1402 26.1206 37.1402 24.8693V24.8447C37.1402 23.6876 36.1257 23.2662 35.1735 22.9651L35.0492 22.9245C34.3305 22.6895 33.7104 22.4848 33.7104 22.0083V21.984C33.7104 21.5756 34.0737 21.2745 34.6341 21.2745C35.2568 21.2745 35.9963 21.4837 36.4737 21.7484C36.4737 21.7484 36.6143 21.84 36.6657 21.7031C36.6932 21.629 36.9355 20.9753 36.9589 20.902C36.9866 20.8253 36.9381 20.7675 36.8888 20.7376C36.344 20.4026 35.5915 20.1748 34.8131 20.1748L34.6683 20.1753C33.3425 20.1753 32.4162 20.9842 32.4162 22.1413V22.1662C32.4162 23.3861 33.4385 23.784 34.3933 24.0588L34.5467 24.107C35.2446 24.3227 35.844 24.5101 35.844 25.0023V25.0269C35.844 25.4798 35.4522 25.8175 34.8243 25.8175C34.5796 25.8175 33.7994 25.8133 32.9587 25.2756C32.8568 25.2156 32.7971 25.1743 32.7198 25.124C32.6936 25.1073 32.5714 25.0591 32.5296 25.19L32.2442 25.991M46.7222 23.5408C46.7222 24.2476 46.5914 24.8052 46.3356 25.2005C46.0803 25.5905 45.6947 25.7816 45.1576 25.7816C44.6206 25.7816 44.2366 25.5921 43.9849 25.2031C43.7314 24.8104 43.6035 24.2502 43.6035 23.5434C43.6035 22.8366 43.7322 22.2816 43.9849 21.8916C44.236 21.5041 44.618 21.3183 45.1576 21.3183C45.6973 21.3183 46.0813 21.506 46.3356 21.8916C46.593 22.2816 46.7222 22.8366 46.7222 23.5434M47.9313 22.2319C47.8122 21.8261 47.6277 21.4701 47.3812 21.1717C47.1345 20.8732 46.8234 20.6324 46.4524 20.4596C46.0839 20.2855 45.648 20.1978 45.1551 20.1978C44.6621 20.1978 44.2288 20.2861 43.8577 20.4596C43.4893 20.6334 43.1754 20.8732 42.9289 21.1717C42.6829 21.4701 42.4981 21.8261 42.3788 22.2319C42.2607 22.635 42.2008 23.0748 42.2008 23.5434C42.2008 24.012 42.2607 24.4518 42.3788 24.8549C42.4974 25.2607 42.6824 25.6167 42.9289 25.9151C43.1756 26.2135 43.4893 26.4518 43.8577 26.6219C44.2288 26.7916 44.6647 26.8779 45.1551 26.8779C45.6454 26.8779 46.0813 26.7916 46.4498 26.6219C46.8182 26.4523 47.1322 26.2135 47.3786 25.9151C47.6249 25.6167 47.8094 25.2607 47.9287 24.8549C48.0465 24.4518 48.1064 24.012 48.1064 23.5434C48.1064 23.0774 48.0465 22.635 47.9287 22.2319M57.8661 25.5827C57.8264 25.4641 57.7118 25.5088 57.7118 25.5088C57.5361 25.5766 57.3485 25.6395 57.1487 25.6709C56.9474 25.7028 56.7232 25.7188 56.4871 25.7188C55.9033 25.7188 55.4363 25.5431 55.1042 25.1952C54.7694 24.8471 54.5826 24.2868 54.5852 23.5277C54.587 22.8366 54.7526 22.3183 55.0497 21.9204C55.3429 21.5277 55.7943 21.3235 56.3911 21.3235C56.8893 21.3235 57.2707 21.3819 57.6702 21.508C57.6702 21.508 57.7649 21.5497 57.8103 21.4238C57.9165 21.1279 57.9948 20.9159 58.1087 20.5913C58.1409 20.4984 58.062 20.4591 58.0332 20.4478C57.8765 20.3861 57.5065 20.2848 57.2263 20.2421C56.9642 20.2018 56.6607 20.1808 56.3182 20.1808C55.8096 20.1808 55.3582 20.2685 54.9716 20.4423C54.585 20.6159 54.258 20.856 53.9986 21.1544C53.7391 21.4528 53.5419 21.8088 53.4096 22.2146C53.2786 22.6177 53.2124 23.0601 53.2124 23.5287C53.2124 24.5392 53.4823 25.3586 54.0167 25.958C54.5512 26.5601 55.3556 26.8638 56.4038 26.8638C57.0239 26.8638 57.6596 26.7374 58.1163 26.5549C58.1163 26.5549 58.2034 26.5125 58.1656 26.4099L57.8672 25.5827M59.9818 22.8601C60.0397 22.4675 60.1463 22.1402 60.3139 21.8863C60.5648 21.4989 60.947 21.2868 61.4841 21.2868C62.0212 21.2868 62.3766 21.4999 62.6309 21.8863C62.7996 22.1416 62.8732 22.4806 62.9007 22.8601L59.9688 22.8596L59.9818 22.8601ZM64.0554 21.9963C63.9524 21.6062 63.6973 21.2109 63.5312 21.0303C63.2666 20.745 63.0097 20.5434 62.7529 20.4334C62.382 20.2743 61.9831 20.1927 61.5801 20.1934C61.0689 20.1934 60.6045 20.2806 60.2283 20.4578C59.8521 20.6363 59.5355 20.8793 59.2864 21.1829C59.0376 21.4866 58.8505 21.8452 58.7312 22.2562C58.6118 22.662 58.5516 23.107 58.5516 23.573C58.5516 24.0494 58.6142 24.4918 58.7371 24.8923C58.8614 25.2955 59.0615 25.6489 59.3313 25.9421C59.6012 26.2379 59.9462 26.4683 60.3614 26.6306C60.7739 26.7916 61.2747 26.8751 61.8481 26.8732C63.0313 26.8693 63.654 26.6036 63.9082 26.4596C63.9537 26.434 63.9965 26.3897 63.943 26.2622L63.6758 25.5057C63.6348 25.3929 63.5216 25.4337 63.5216 25.4337C63.2285 25.5442 62.8133 25.7426 61.8403 25.74C61.2046 25.7389 60.735 25.5497 60.4392 25.2531C60.1383 24.9494 59.9878 24.507 59.9644 23.8787L64.0639 23.8819C64.0639 23.8819 64.1719 23.8808 64.183 23.7745C64.1874 23.7306 64.3234 22.9264 64.0608 21.9971L64.0554 21.9963ZM27.2116 22.8601C27.2695 22.4675 27.3764 22.1402 27.5438 21.8863C27.7949 21.4989 28.1768 21.2868 28.7139 21.2868C29.251 21.2868 29.6065 21.4999 29.8608 21.8863C30.0292 22.1416 30.1028 22.4806 30.1306 22.8601L27.1987 22.8596L27.2116 22.8601ZM31.2852 21.9963C31.1825 21.6062 30.9271 21.2109 30.7611 21.0303C30.4964 20.745 30.2396 20.5434 29.9827 20.4334C29.6119 20.2743 29.2129 20.1927 28.8099 20.1934C28.2988 20.1934 27.8344 20.2806 27.4581 20.4578C27.0819 20.6363 26.7654 20.8793 26.5163 21.1829C26.268 21.4866 26.0804 21.8452 25.961 22.2562C25.8419 22.662 25.782 23.107 25.782 23.573C25.782 24.0494 25.844 24.4918 25.9678 24.8923C26.0918 25.2955 26.2921 25.6489 26.5594 25.9421C26.8292 26.2379 27.1743 26.4683 27.5894 26.6306C28.002 26.7916 28.5001 26.8751 29.0761 26.8732C30.2593 26.8693 30.882 26.6036 31.1363 26.4596C31.1814 26.434 31.2245 26.3897 31.1708 26.2622L30.9035 25.5057C30.8623 25.3929 30.7492 25.4337 30.7492 25.4337C30.456 25.5442 30.0408 25.7426 29.0678 25.74C28.4348 25.7389 27.9625 25.5497 27.6667 25.2531C27.3658 24.9494 27.2153 24.507 27.1919 23.8787L31.2914 23.8819C31.2914 23.8819 31.3994 23.8808 31.4105 23.7745C31.4149 23.7306 31.5509 22.9264 31.2881 21.9971L31.2852 21.9963ZM18.364 25.5565C18.2034 25.4272 18.181 25.3955 18.1279 25.3115C18.0466 25.185 18.0051 25.0052 18.0051 24.7748C18.0051 24.4135 18.1245 24.1518 18.371 23.9764C18.3684 23.9769 18.7238 23.6675 19.5593 23.6779C19.9312 23.6847 20.3022 23.7166 20.6698 23.7735V25.6505H20.6703C20.6703 25.6505 20.1514 25.7633 19.565 25.7989C18.7321 25.8494 18.3637 25.557 18.3663 25.5578L18.364 25.5565ZM19.9934 22.6507C19.8273 22.6384 19.612 22.6324 19.3551 22.6324C19.0048 22.6324 18.6649 22.6764 18.3484 22.7628C18.0293 22.8497 17.7413 22.9842 17.4948 23.1633C17.2476 23.3412 17.0443 23.5741 16.9006 23.8439C16.7556 24.1162 16.6816 24.4355 16.6816 24.7968C16.6816 25.1633 16.7447 25.48 16.8692 25.7392C16.9912 25.9963 17.175 26.2185 17.4037 26.3858C17.6312 26.5528 17.9122 26.6764 18.2366 26.7497C18.5583 26.8238 18.9215 26.8612 19.3211 26.8612C19.7415 26.8612 20.1592 26.8256 20.5639 26.7567C20.9087 26.6968 21.2521 26.6294 21.594 26.5546C21.7305 26.523 21.882 26.4813 21.882 26.4813C21.9832 26.4554 21.9754 26.3463 21.9754 26.3463L21.9731 22.5766C21.9731 21.7494 21.7541 21.1342 21.3218 20.7546C20.8911 20.3751 20.2606 20.184 19.4433 20.184C19.1372 20.184 18.6416 20.2259 18.3458 20.2858C18.3458 20.2858 17.4532 20.4607 17.0848 20.7518C17.0848 20.7518 17.0039 20.802 17.048 20.9159L17.3386 21.7012C17.3746 21.8031 17.473 21.7683 17.473 21.7683C17.473 21.7683 17.5038 21.756 17.5402 21.7342C18.3263 21.3023 19.3227 21.3154 19.3227 21.3154C19.7638 21.3154 20.1063 21.4057 20.3346 21.5824C20.558 21.7554 20.6719 22.017 20.6719 22.5667V22.7413C20.3216 22.69 19.9973 22.6604 19.9973 22.6604L19.9934 22.6507ZM52.9452 20.5224C52.9511 20.5086 52.9541 20.4938 52.9542 20.4787C52.9543 20.4637 52.9514 20.4488 52.9457 20.4349C52.9399 20.4211 52.9315 20.4085 52.9208 20.398C52.9102 20.3875 52.8975 20.3792 52.8837 20.3738C52.8139 20.3471 52.4659 20.273 52.1987 20.2562C51.685 20.2238 51.3995 20.3112 51.1427 20.4274C50.8889 20.5429 50.6082 20.7285 50.4525 20.9431L50.452 20.4405C50.452 20.3714 50.4035 20.3156 50.3344 20.3156H49.2862C49.2182 20.3156 49.1689 20.3714 49.1689 20.4405V26.5923C49.169 26.6256 49.1821 26.6574 49.2054 26.6809C49.2287 26.7044 49.2603 26.7177 49.2932 26.7177H50.3674C50.4003 26.7177 50.4319 26.7044 50.4551 26.6809C50.4784 26.6574 50.4914 26.6256 50.4914 26.5923V23.5033C50.4914 23.0897 50.5366 22.6787 50.6266 22.4196C50.7153 22.1633 50.836 21.9588 50.9847 21.8122C51.1265 21.6706 51.3 21.5656 51.4906 21.506C51.6695 21.4542 51.8546 21.4279 52.0407 21.4279C52.2547 21.4279 52.4895 21.4834 52.4895 21.4834C52.5684 21.4923 52.6123 21.4437 52.639 21.3719C52.7093 21.1832 52.9088 20.618 52.9478 20.5054" fill="#FFFFFE"/>
<path fill-rule="evenodd" clip-rule="evenodd" d="M42.9122 17.6825C42.7794 17.642 42.6443 17.6097 42.5077 17.5856C42.3239 17.5547 42.1377 17.5401 41.9514 17.5422C41.2111 17.5422 40.6276 17.7532 40.2179 18.1699C39.8111 18.5835 39.5342 19.2136 39.3954 20.0427L39.3453 20.3225H38.4162C38.4162 20.3225 38.3028 20.3178 38.2789 20.4427L38.1264 21.3013C38.1157 21.3835 38.1508 21.4348 38.2597 21.4343H39.1642L38.2465 26.6027C38.1746 27.0189 38.0924 27.3613 38.0013 27.6207C37.9115 27.8767 37.8238 28.0686 37.7159 28.2079C37.6113 28.3427 37.5122 28.4419 37.3412 28.4998C37.2001 28.5477 37.0377 28.5697 36.8597 28.5697C36.7606 28.5697 36.6288 28.5529 36.5315 28.5333C36.4342 28.5139 36.3836 28.4919 36.3107 28.461C36.3107 28.461 36.2045 28.4202 36.1628 28.5275C36.1288 28.6152 35.8877 29.2841 35.8592 29.3668C35.8301 29.4485 35.8709 29.5129 35.9222 29.5314C36.0426 29.5749 36.1321 29.6027 36.2961 29.6417C36.5239 29.6958 36.7159 29.6992 36.8957 29.6992C37.2725 29.6992 37.6158 29.6458 37.9004 29.5422C38.1868 29.4377 38.4362 29.2558 38.6567 29.0095C38.8952 28.7438 39.0451 28.4655 39.1886 28.0859C39.3305 27.7097 39.4515 27.2427 39.5482 26.6985L40.4704 21.4343H41.8185C41.8185 21.4343 41.9322 21.4385 41.9558 21.3142L42.1084 20.4555C42.119 20.3733 42.0842 20.322 41.9747 20.3225H40.6663C40.6727 20.2927 40.7322 19.8283 40.8824 19.3911C40.9465 19.2045 41.0671 19.054 41.1694 18.9506C41.2648 18.8521 41.3824 18.7783 41.5121 18.7354C41.6543 18.691 41.8025 18.6695 41.9514 18.6715C42.0746 18.6715 42.1955 18.6864 42.2876 18.7058C42.4145 18.733 42.4638 18.7474 42.497 18.7574C42.6304 18.7985 42.6483 18.7587 42.6745 18.6935L42.9874 17.8265C43.0196 17.7333 42.9412 17.694 42.9122 17.6825ZM24.6268 26.6136C24.6268 26.6828 24.578 26.739 24.5095 26.739H23.4242C23.3554 26.739 23.3066 26.6828 23.3066 26.6136V17.8C23.3066 17.7312 23.3554 17.6754 23.4242 17.6754H24.5095C24.578 17.6754 24.6268 17.7312 24.6268 17.8V26.6136Z" fill="#FFFFFE"/>
</g>
<defs>
<clipPath id="clip0_3133_13774">
<rect width="70.8333" height="50" fill="white" transform="translate(0.833008)"/>
</clipPath>
</defs>
</svg>
