<svg width="135" height="20" viewBox="0 0 135 20" fill="none" xmlns="http://www.w3.org/2000/svg">
<g clip-path="url(#clip0_3133_13789)">
<path fill-rule="evenodd" clip-rule="evenodd" d="M32.8462 6.10547C31.3957 6.10547 30.1525 6.62296 29.1164 7.45094V6.31246H25.5938V19.6636H29.22V11.1768C29.738 10.4524 30.9813 9.52088 32.5354 9.52088C33.0535 9.52088 33.5715 9.62438 33.9859 9.72788V6.31246C33.5715 6.20897 33.1571 6.10547 32.8462 6.10547Z" fill="#293E40"/>
<path fill-rule="evenodd" clip-rule="evenodd" d="M1.65771 15.5218C2.59018 16.3497 4.04068 16.8672 5.28396 16.8672C6.21642 16.8672 7.04528 16.3497 7.04528 15.7288C7.04528 13.6588 0.518035 14.3833 0.518035 10.1399C0.518035 7.55246 3.0046 6 5.59478 6C7.3561 6 9.22103 6.62098 10.1535 7.34547L8.49578 9.9329C7.77053 9.51891 6.94167 9.00142 5.9056 9.00142C4.86953 9.00142 4.14428 9.41541 4.14428 10.1399C4.14428 11.8994 10.6715 11.1749 10.6715 15.8323C10.6715 18.4197 8.18496 19.9722 5.38757 19.9722C3.52264 19.9722 1.55411 19.3512 0 18.2127L1.65771 15.5218Z" fill="#293E40"/>
<path fill-rule="evenodd" clip-rule="evenodd" d="M24.0348 12.8308C24.0348 9.10492 21.4446 6 17.7147 6C13.7777 6 11.1875 9.31192 11.1875 12.9343C11.1875 17.1777 14.1921 19.8687 18.1292 19.8687C20.2013 19.8687 22.2735 19.0407 23.6203 17.4882L21.5482 15.4183C20.9266 16.1427 19.6833 16.9707 18.2328 16.9707C16.3679 16.9707 14.8137 15.6253 14.6065 13.7623H23.8276C24.0348 13.5553 24.0348 13.2448 24.0348 12.8308ZM14.9174 11.2784C15.1246 10.0364 16.3679 8.89793 17.8184 8.89793C19.2689 8.89793 20.3049 10.0364 20.5121 11.2784H14.9174Z" fill="#293E40"/>
<path fill-rule="evenodd" clip-rule="evenodd" d="M49.7308 6.3125L43.6179 19.6637H41.1314L35.0186 6.3125H38.6448L42.3747 14.4888L46.0009 6.3125H49.7308Z" fill="#293E40"/>
<path fill-rule="evenodd" clip-rule="evenodd" d="M52.7354 -0.000976562C54.0823 -0.000976562 55.1184 1.034 55.1184 2.27597C55.1184 3.62143 54.0823 4.55291 52.7354 4.55291C51.3885 4.55291 50.4561 3.51794 50.4561 2.27597C50.4561 0.9305 51.3885 -0.000976562 52.7354 -0.000976562Z" fill="#293E40"/>
<path d="M54.6009 6.3125H50.9746V19.6637H54.6009V6.3125Z" fill="#293E40"/>
<path fill-rule="evenodd" clip-rule="evenodd" d="M69.3143 16.8672C67.7602 18.9372 65.7917 19.8687 63.3051 19.8687C59.1609 19.8687 56.1562 16.7637 56.1562 12.9343C56.1562 9.00143 59.2645 6 63.3051 6C65.6881 6 67.6566 7.13847 68.8999 8.69093L66.517 10.8644C65.7917 9.9329 64.7556 9.31192 63.5124 9.31192C61.4402 9.31192 59.8861 10.9679 59.8861 12.9343C59.8861 15.0043 61.3366 16.5567 63.5124 16.5567C64.9628 16.5567 66.1025 15.7288 66.7242 14.7973L69.3143 16.8672Z" fill="#293E40"/>
<path fill-rule="evenodd" clip-rule="evenodd" d="M82.2639 17.4882C80.917 19.0407 78.8449 19.8687 76.7727 19.8687C72.8357 19.8687 69.8311 17.1777 69.8311 12.9343C69.8311 9.20842 72.3176 6 76.3583 6C79.9845 6 82.6783 9.10492 82.6783 12.8308C82.6783 13.2448 82.6783 13.5553 82.5747 13.8658H73.2501C73.4573 15.7288 75.0114 17.0742 76.8763 17.0742C78.3268 17.0742 79.5701 16.2462 80.1918 15.5218L82.2639 17.4882ZM78.9485 11.2784C78.8449 10.1399 77.8088 8.89793 76.2547 8.89793C74.8042 8.89793 73.5609 10.0364 73.3537 11.2784H78.9485Z" fill="#293E40"/>
<path fill-rule="evenodd" clip-rule="evenodd" d="M84.0254 19.6617V6.31051H87.4444V7.44898C88.4805 6.621 89.7238 6.10352 91.1743 6.10352C93.0392 6.10352 94.6969 6.93149 95.8366 8.27696C96.6655 9.31194 97.2871 10.6574 97.2871 12.9343V19.7652H93.6609V12.6239C93.6609 11.2784 93.35 10.5539 92.832 10.1399C92.314 9.62243 91.6923 9.31194 90.7599 9.31194C89.3094 9.31194 88.0661 10.2434 87.4444 10.9679V19.6617H84.0254Z" fill="#293E40"/>
<path fill-rule="evenodd" clip-rule="evenodd" d="M106.508 6.00195C102.156 6.00195 98.7373 9.41737 98.7373 13.7643C98.7373 16.0412 99.6698 18.1112 101.12 19.5601C101.638 20.0776 102.571 20.0776 103.192 19.6636C104.021 18.9391 105.265 18.5251 106.508 18.5251C107.855 18.5251 108.891 18.9391 109.823 19.6636C110.445 20.1811 111.274 20.0776 111.895 19.4566C113.346 18.0077 114.278 16.0412 114.278 13.7643C114.175 9.52087 110.756 6.00195 106.508 6.00195ZM106.404 17.8007C104.021 17.8007 102.467 16.0412 102.467 13.8678C102.467 11.6943 104.021 9.93486 106.404 9.93486C108.787 9.93486 110.341 11.6943 110.341 13.8678C110.341 16.0412 108.787 17.8007 106.404 17.8007Z" fill="#81B5A1"/>
<path fill-rule="evenodd" clip-rule="evenodd" d="M113.344 6.3125H116.866L119.767 13.9713L122.668 6.3125H125.673L128.47 13.9713L131.371 6.3125H134.998L129.714 19.6637H127.02L124.119 12.1084L121.321 19.6637H118.628L113.344 6.3125Z" fill="#293E40"/>
</g>
<defs>
<clipPath id="clip0_3133_13789">
<rect width="135" height="20" fill="white"/>
</clipPath>
</defs>
</svg>
