<svg width="144" height="30" viewBox="0 0 144 30" fill="none" xmlns="http://www.w3.org/2000/svg">
<path fill-rule="evenodd" clip-rule="evenodd" d="M112.213 2.66667C112.254 4.09656 111.118 5.29224 109.665 5.33333H109.527C108.033 5.34566 106.817 4.15819 106.805 2.68721C106.792 1.21212 107.995 0.0123267 109.486 0H109.548C111.018 0 112.208 1.17103 112.208 2.62147V2.66667H112.213ZM112 25.3806C112.021 26.8803 112.591 27.4638 114.111 27.4638H114.764V29.0909H104.902V27.4638H105.556C107.075 27.4638 107.667 26.8803 107.667 25.3806V12.9183C107.646 11.4186 107.075 10.8351 105.556 10.8351H105.115V9.20801H112V25.3806ZM56.4728 4.5054L49.4992 29.0869H47.869L40.562 4.75133V24.5875C40.5826 26.5106 41.5624 27.4903 43.526 27.4903H44.2793V29.0869H34.9675V27.4903H35.4698C37.4334 27.4903 38.4337 26.5106 38.4337 24.5875V5.40851C38.4132 3.48537 37.4293 2.50566 35.4698 2.50566H34.9675V0.909091H44.2382L49.7503 20.5839L55.3243 0.909091H64.5537V2.54597H64.0515C62.0879 2.58629 61.1081 3.52569 61.0875 5.44882V24.5915C61.1081 26.5146 62.0879 27.4943 64.0515 27.4943H64.5537V29.0909H53.1754V27.4943H53.5088C55.4725 27.4943 56.4728 26.5146 56.4728 24.5915V4.5054ZM82.4846 19.5455C82.4846 25.1657 79.3635 30 73.4986 30C67.6337 30 64.5536 25.1657 64.5536 19.5455C64.5536 13.9252 67.6337 9.09091 73.4986 9.09091C79.3635 9.09091 82.4846 13.9252 82.4846 19.5455ZM69.3808 19.5455C69.3808 25.3286 70.7138 28.261 73.4986 28.261C76.2834 28.261 77.6573 25.3286 77.6573 19.5455C77.6573 13.7623 76.2834 10.8299 73.4986 10.8299C70.7138 10.8299 69.3808 13.7623 69.3808 19.5455ZM83.9425 2.53257C85.4493 2.53257 86.0148 3.1147 86.0355 4.61101V25.1371C86.0313 26.6252 85.8662 28.1092 85.5525 29.5645H87.4597L88.9045 27.359C90.4649 29.0726 92.6941 30.036 95.0182 29.9991C100.335 29.9991 103.101 25.547 103.101 19.5618C103.101 13.5766 100.335 9.08354 95.0182 9.08354C93.0285 9.08354 91.4804 9.81324 90.3287 11.2686V0.90918H83.377V2.53257H83.9425ZM94.2876 28.0887C90.5186 28.0887 89.9737 22.2634 89.9737 19.5618H89.9778C89.9778 16.8561 90.6466 11.0349 94.4155 11.0349C97.974 11.0349 98.2671 16.8152 98.2671 19.5618C98.2671 22.3084 97.846 28.0887 94.2876 28.0887ZM124.917 27.4942C123.523 27.4942 123 26.9216 122.981 25.4498V0.90918H116.707V2.50598H117.074C118.468 2.50598 118.991 3.07856 119.01 4.55036V25.4498C119.01 26.9216 118.468 27.4942 117.074 27.4942H116.551V29.091H125.516V27.4942H124.917ZM131.896 19.6309L131.903 19.7985C132.044 23.0842 132.256 28.0165 136.426 28.0165C139.206 28.0165 140.606 25.7236 141.593 23.4714L143.281 24.3593C141.674 27.6215 139.697 29.9999 135.768 29.9999C129.757 29.9999 127.306 24.8358 127.306 19.5454C127.306 14.255 129.777 9.09082 135.395 9.09082C141.447 9.09082 143.322 14.9147 143.444 19.6268H131.892L131.896 19.6309ZM138.853 17.8145C138.772 13.0617 137.619 10.8339 135.476 10.8339C133.333 10.8339 132.079 13.249 131.937 17.8145H138.853ZM0 19.5048H5.76315V13.8693H0V19.5048ZM0 10.4912V0.909091H24.1945V10.4871H22.4672V10.2049C22.4672 5.69811 19.8742 2.88033 14.9768 2.88033H14.6882V23.1732C14.6882 25.9909 15.8425 27.1197 18.7241 27.1197H19.5898V29.0909H4.60475V27.1197H5.47046C8.35204 27.1197 9.50632 25.9909 9.50632 23.1732V2.88436H9.21775C4.3203 2.88436 1.7273 5.70214 1.7273 10.209V10.4912H0ZM24.2069 19.5048H18.4437V13.8693H24.2069V19.5048Z" fill="black"/>
</svg>
