<svg width="154" height="30" viewBox="0 0 154 30" fill="none" xmlns="http://www.w3.org/2000/svg">
<g clip-path="url(#clip0_3133_13883)">
<path d="M11.4107 8.59312H10.2158V15.8643C10.2158 18.788 8.25818 20.6185 5.51241 20.6185C3.04631 20.6185 1.69885 19.3728 1.69885 16.3474V8.59312H0.478516V16.5508C0.478516 20.0847 2.53784 21.6863 5.46157 21.6863C7.54631 21.6863 9.37682 20.644 10.2158 18.966V21.3813H11.4107V8.59312ZM21.2243 8.28804C19.1395 8.28804 17.309 9.33041 16.47 11.0084V8.59312H15.2751V21.3558H16.47V14.0846C16.47 11.1609 18.4531 9.33042 21.1734 9.33042C23.5887 9.33042 24.987 10.627 24.987 13.6016V21.3304H26.1819V13.3982C26.2073 9.88974 23.9955 8.28804 21.2243 8.28804ZM30.5294 4.6016C30.326 4.6016 30.1226 4.65244 29.97 4.77956C29.8175 4.90668 29.665 5.05923 29.5887 5.23719C29.5124 5.41516 29.487 5.61855 29.5378 5.82194C29.5887 6.02533 29.665 6.20329 29.8175 6.33041C29.97 6.48295 30.148 6.55923 30.326 6.61007C30.5294 6.66092 30.7327 6.63549 30.9107 6.55922C31.0887 6.48295 31.2412 6.35583 31.3683 6.17787C31.47 5.9999 31.5463 5.82194 31.5463 5.61855C31.5463 5.36431 31.4446 5.11007 31.2412 4.90668C31.0378 4.70329 30.7836 4.6016 30.5294 4.6016ZM31.1141 8.59312H29.9192V21.3558H31.1141V8.59312ZM41.4107 8.28804C40.3429 8.26262 39.2751 8.54228 38.3599 9.07618C37.4446 9.6355 36.6819 10.4236 36.1989 11.3897V8.61855H35.0039V29.9236H36.1989V18.6355C36.6819 19.6016 37.4446 20.3897 38.3599 20.9491C39.2751 21.5084 40.3429 21.7626 41.4107 21.7372C45.1988 21.7372 47.97 18.8135 47.97 15.0253C47.97 11.2372 45.1988 8.28804 41.4107 8.28804ZM41.4107 20.6185C38.2836 20.6185 36.0972 18.2541 36.0972 14.9999C36.0972 11.7457 38.2582 9.38126 41.4107 9.38126C44.5378 9.38126 46.7243 11.7457 46.7243 14.9999C46.7243 18.2541 44.5633 20.6185 41.4107 20.6185ZM52.165 0.0761719H50.97V21.3813H52.165V14.1101C52.165 11.1863 54.0972 9.35583 56.8683 9.35583C59.2836 9.35583 60.6819 10.6524 60.6819 13.627V21.3558H61.8768V13.4236C61.8768 9.88973 59.6649 8.28804 56.8938 8.28804C55.9277 8.26262 54.9616 8.49143 54.148 8.97448C53.309 9.45753 52.6226 10.1694 52.165 11.0084V0.0761719ZM71.3344 8.28804C70.0124 8.26262 68.6904 8.64397 67.5717 9.35583C66.4531 10.0677 65.5633 11.1101 65.0548 12.3304C64.5209 13.5508 64.3683 14.8982 64.6226 16.2202C64.8768 17.5423 65.487 18.7372 66.4277 19.6779C67.3683 20.6185 68.5633 21.2796 69.8599 21.5592C71.1565 21.8389 72.5294 21.7118 73.7497 21.2033C74.9955 20.6948 76.0378 19.8304 76.7751 18.7372C77.5124 17.6186 77.9192 16.3219 77.9192 14.9999C77.9446 14.1355 77.7666 13.2457 77.4616 12.4321C77.1311 11.6185 76.648 10.8813 76.0378 10.2457C75.4277 9.61007 74.6904 9.12702 73.8768 8.79652C73.0633 8.46601 72.1989 8.28804 71.3344 8.28804ZM71.3344 20.6694C68.2327 20.6694 65.9955 18.2287 65.9955 14.9999C65.9955 11.7711 68.2582 9.33042 71.3344 9.33042C74.4107 9.33042 76.6734 11.7965 76.6734 14.9999C76.6734 18.2033 74.4107 20.6694 71.3344 20.6694ZM85.9277 8.28804C84.2751 8.28804 82.9022 9.27957 82.1141 10.8558V8.59312H80.9192V21.3558H82.1141V13.983C82.1141 11.3643 83.8429 9.40668 85.8514 9.40668C86.4107 9.35584 86.97 9.45753 87.4531 9.73719L87.8853 8.74567C87.3005 8.38973 86.6141 8.23719 85.9277 8.28804ZM94.826 8.28804C91.2921 8.28804 88.3938 11.2118 88.3938 14.9999C88.3938 18.788 91.1649 21.7118 95.1056 21.7118C97.5463 21.7118 99.326 20.8219 100.495 19.3474L99.6819 18.6355C98.6649 19.8813 97.3938 20.6948 95.1056 20.6948C92.0802 20.6948 89.7666 18.6355 89.6395 15.2796H101.131C101.055 11.1355 98.6141 8.28804 94.826 8.28804ZM89.6904 14.1863C90.0209 11.3643 92.0294 9.33042 94.826 9.33042C98.0039 9.33042 99.5802 11.466 99.8853 14.1863H89.6904Z" fill="#76777A"/>
<path d="M137.103 4.90628C136.697 4.90628 136.29 4.98255 135.883 5.1351C135.502 5.28764 135.146 5.51645 134.866 5.82153C134.561 6.12662 134.332 6.45713 134.18 6.83848C134.027 7.21984 133.951 7.62662 133.951 8.05883L133.976 18.1266C133.976 19.347 133.493 20.5419 132.629 21.4063C131.764 22.2707 130.595 22.7537 129.349 22.7537C128.739 22.7537 128.129 22.6266 127.57 22.3978C127.01 22.169 126.502 21.8131 126.07 21.4063C125.637 20.9741 125.307 20.4656 125.078 19.9063C124.849 19.347 124.722 18.7368 124.722 18.1266L124.747 8.05883C124.747 7.21984 124.417 6.4317 123.832 5.82153C123.247 5.23679 122.434 4.90628 121.595 4.90628C120.756 4.90628 119.968 5.23679 119.358 5.82153C118.773 6.40628 118.442 7.21984 118.442 8.05883V18.2537C118.442 18.4063 118.417 18.5334 118.366 18.6605C118.315 18.7876 118.239 18.9148 118.137 19.0164C118.036 19.1181 117.909 19.1944 117.781 19.2453C117.654 19.2961 117.502 19.3215 117.375 19.3215C117.095 19.3215 116.815 19.1944 116.612 18.991C116.409 18.7876 116.281 18.508 116.281 18.2283V11.4402C116.281 10.6012 115.951 9.81306 115.366 9.20289C114.781 8.61815 113.968 8.28764 113.129 8.28764C112.29 8.28764 111.502 8.61815 110.892 9.20289C110.307 9.78764 109.976 10.6012 109.951 11.4402V14.8215C109.951 15.1012 109.824 15.3809 109.62 15.5842C109.417 15.7876 109.137 15.9148 108.858 15.9148C108.578 15.9148 108.298 15.7876 108.095 15.5842C107.892 15.3809 107.764 15.1012 107.764 14.8215V14.1605C107.764 13.8809 107.663 13.6266 107.459 13.4232C107.256 13.2198 107.002 13.1181 106.722 13.1181C106.442 13.1181 106.188 13.2198 105.985 13.4232C105.781 13.6266 105.68 13.8809 105.68 14.1605V14.8215C105.68 15.6605 106.01 16.4487 106.595 17.0588C107.18 17.6436 107.993 17.9741 108.832 17.9741C109.671 17.9741 110.459 17.6436 111.07 17.0588C111.654 16.4741 111.985 15.6605 111.985 14.8215V11.4402C111.985 11.1605 112.112 10.8809 112.315 10.6775C112.519 10.4741 112.798 10.347 113.078 10.347C113.358 10.347 113.637 10.4741 113.841 10.6775C114.044 10.8809 114.171 11.1605 114.171 11.4402V18.2283C114.171 19.0673 114.502 19.8554 115.086 20.4656C115.671 21.0503 116.485 21.3809 117.324 21.3809C117.731 21.3809 118.137 21.3046 118.544 21.152C118.925 20.9995 119.281 20.7707 119.561 20.4656C119.866 20.1605 120.095 19.83 120.247 19.4487C120.4 19.0673 120.476 18.6605 120.476 18.2283V8.0334C120.476 7.75374 120.578 7.47408 120.781 7.27069C120.883 7.16899 121.01 7.09272 121.137 7.04188C121.264 6.99103 121.417 6.9656 121.544 6.9656C121.697 6.9656 121.824 6.99103 121.951 7.04188C122.078 7.09272 122.205 7.16899 122.307 7.27069C122.409 7.37238 122.485 7.4995 122.536 7.62662C122.586 7.75374 122.612 7.90628 122.612 8.0334L122.586 18.1012C122.586 19.8809 123.298 21.5842 124.544 22.83C125.79 24.0758 127.493 24.7876 129.273 24.7876C131.053 24.7876 132.756 24.0758 134.002 22.83C135.247 21.5842 135.959 19.8809 135.959 18.1012L135.934 8.0334C135.934 7.75374 136.061 7.47408 136.264 7.27069C136.468 7.0673 136.747 6.94018 137.027 6.94018C137.307 6.94018 137.586 7.0673 137.79 7.27069C137.993 7.47408 138.12 7.75374 138.12 8.0334V18.2283C138.12 19.0673 138.451 19.8554 139.061 20.4656C139.646 21.0503 140.459 21.3809 141.298 21.3809C142.137 21.3809 142.925 21.0503 143.536 20.4656C144.12 19.8809 144.451 19.0673 144.451 18.2283V11.4402C144.451 11.1605 144.578 10.8809 144.781 10.6775C144.985 10.4741 145.264 10.347 145.544 10.347C145.697 10.347 145.824 10.3724 145.951 10.4232C146.078 10.4741 146.205 10.5503 146.307 10.652C146.409 10.7537 146.485 10.8809 146.536 11.008C146.586 11.1351 146.612 11.2876 146.612 11.4148V14.7961C146.612 15.6351 146.942 16.4232 147.527 17.0334C148.112 17.6181 148.925 17.9487 149.764 17.9487C150.603 17.9487 151.392 17.6181 152.002 17.0334C152.586 16.4487 152.917 15.6351 152.917 14.7961V14.1351C152.917 13.8554 152.815 13.6012 152.612 13.3978C152.409 13.1944 152.154 13.0927 151.875 13.0927C151.595 13.0927 151.341 13.1944 151.137 13.3978C150.934 13.6012 150.832 13.8554 150.832 14.1351V14.7961C150.832 15.0758 150.705 15.3554 150.502 15.5588C150.298 15.7622 150.019 15.8893 149.739 15.8893C149.459 15.8893 149.18 15.7622 148.976 15.5588C148.773 15.3554 148.646 15.0758 148.646 14.7961V11.4148C148.646 10.5758 148.315 9.78764 147.731 9.17747C147.146 8.59272 146.332 8.26221 145.493 8.26221C144.654 8.26221 143.866 8.59272 143.256 9.17747C142.671 9.76221 142.341 10.5758 142.341 11.4148V18.2283C142.341 18.508 142.214 18.7876 142.01 18.991C141.807 19.1944 141.527 19.3215 141.247 19.3215C140.968 19.3215 140.688 19.1944 140.485 18.991C140.281 18.7876 140.154 18.508 140.154 18.2283V8.0334C140.154 7.19442 139.824 6.38085 139.239 5.79611C138.654 5.21136 137.841 4.88086 137.002 4.88086H137.103V4.90628Z" fill="url(#paint0_linear_3133_13883)"/>
</g>
<defs>
<linearGradient id="paint0_linear_3133_13883" x1="105.699" y1="14.8674" x2="153.022" y2="14.8674" gradientUnits="userSpaceOnUse">
<stop stop-color="#FF6C0E"/>
<stop offset="1" stop-color="#EB008B"/>
</linearGradient>
<clipPath id="clip0_3133_13883">
<rect width="152.542" height="30" fill="white" transform="translate(0.478516)"/>
</clipPath>
</defs>
</svg>
