<svg width="117" height="20" viewBox="0 0 117 20" fill="none" xmlns="http://www.w3.org/2000/svg">
<g clip-path="url(#clip0_3133_13891)">
<path d="M0.299805 0H5.3198L10.2598 13.1H10.3198L15.3398 0H20.0598L11.8198 19.98H8.27981L0.299805 0ZM24.9198 0H38.4998V4.06H29.3198V7.78H37.9798V11.84H29.3198V15.9H38.9998V19.96H24.9198V0ZM44.3798 0H52.1198C53.0798 0 54.0398 0.1 54.9998 0.3C55.8598 0.48 56.6598 0.8 57.3998 1.28C58.0998 1.74 58.6598 2.4 59.0398 3.14C59.4798 4.06 59.6798 5.06 59.6598 6.06C59.6998 7.34 59.3198 8.6 58.5598 9.66C57.7598 10.68 56.5998 11.36 55.3198 11.54L60.3998 19.98H55.1398L50.9598 12H48.7998V20H44.3798V0ZM48.7998 8.26H51.3998C51.7998 8.26 52.2198 8.26 52.6598 8.22C53.0798 8.2 53.4798 8.12 53.8598 7.96C54.2198 7.82 54.5198 7.6 54.7598 7.3C55.0198 6.92 55.1398 6.48 55.1198 6.02C55.1398 5.6 55.0398 5.16 54.7998 4.8C54.5998 4.5 54.3198 4.26 53.9998 4.12C53.6598 3.96 53.2798 3.84 52.8998 3.8C52.4998 3.74 52.0998 3.72 51.6798 3.72H48.7998V8.26ZM65.4398 0H69.8398V19.98H65.4398V0ZM76.6798 0H82.6598L91.1598 13.88H91.2198V0H95.6198V19.98H89.8598L81.1398 5.76H81.0798V19.98H76.6798V0ZM106.1 3.9H100.4V0H116.2V3.9H110.5V19.98H106.1V3.9ZM113.42 18.62C113.42 18.44 113.46 18.26 113.54 18.08C113.68 17.74 113.94 17.48 114.28 17.34C114.62 17.2 115.02 17.2 115.36 17.34C115.52 17.42 115.68 17.52 115.8 17.64C115.92 17.76 116.02 17.92 116.1 18.08C116.24 18.42 116.24 18.82 116.1 19.16C115.96 19.48 115.68 19.76 115.36 19.9C115.02 20.04 114.62 20.04 114.28 19.9C114.12 19.82 113.96 19.72 113.84 19.6C113.72 19.48 113.62 19.32 113.54 19.16C113.46 18.98 113.42 18.8 113.42 18.62ZM113.8 18.62C113.8 18.76 113.82 18.9 113.88 19.02C113.94 19.14 114 19.26 114.1 19.36C114.2 19.46 114.3 19.54 114.42 19.58C114.54 19.64 114.68 19.66 114.82 19.66C114.96 19.66 115.1 19.64 115.22 19.58C115.34 19.52 115.44 19.44 115.54 19.36C115.64 19.26 115.7 19.16 115.76 19.02C115.86 18.76 115.86 18.46 115.76 18.2C115.72 18.08 115.64 17.96 115.54 17.86C115.44 17.76 115.34 17.7 115.22 17.64C115.1 17.58 114.96 17.56 114.82 17.56C114.68 17.56 114.56 17.58 114.42 17.64C114.3 17.7 114.2 17.78 114.1 17.86C114 17.96 113.94 18.08 113.88 18.2C113.82 18.34 113.8 18.48 113.8 18.62ZM114.28 17.88H114.96C115.04 17.88 115.1 17.9 115.16 17.94C115.22 17.98 115.3 18.02 115.34 18.08C115.4 18.16 115.42 18.26 115.42 18.34C115.42 18.4 115.42 18.46 115.38 18.52C115.36 18.56 115.34 18.6 115.3 18.64C115.26 18.68 115.24 18.7 115.2 18.72C115.16 18.74 115.12 18.74 115.08 18.76L115.44 19.34H115.04L114.7 18.78H114.64V19.34H114.26L114.28 17.88ZM114.66 18.48H114.88C114.9 18.48 114.94 18.46 114.96 18.46C114.98 18.46 115 18.44 115.02 18.42C115.06 18.36 115.06 18.3 115.02 18.24C115 18.22 114.98 18.2 114.96 18.2C114.94 18.18 114.92 18.18 114.88 18.18H114.66V18.48Z" fill="#007AFF"/>
</g>
<defs>
<clipPath id="clip0_3133_13891">
<rect width="115.9" height="20" fill="white" transform="translate(0.299805)"/>
</clipPath>
</defs>
</svg>
