<svg width="71" height="50" viewBox="0 0 71 50" fill="none" xmlns="http://www.w3.org/2000/svg">
<g clip-path="url(#clip0_3133_13784)">
<path d="M34.0011 7.81853V29.6062H15.76L34.0011 7.81853ZM34.0011 0C34.0011 2.39309 33.0401 4.68817 31.3297 6.38034C29.6193 8.07251 27.2994 9.02317 24.8805 9.02317C22.4616 9.02317 20.1418 8.07251 18.4313 6.38034C16.7209 4.68817 15.76 2.39309 15.76 0L34.0011 0ZM37.0061 29.6081C37.0061 27.215 37.967 24.9199 39.6774 23.2278C41.3879 21.5356 43.7077 20.5849 46.1266 20.5849C48.5455 20.5849 50.8654 21.5356 52.5758 23.2278C54.2862 24.9199 55.2472 27.215 55.2472 29.6081H37.0061ZM37.0061 21.7896V0H55.2511L37.0061 21.7876V21.7896ZM47.2077 48.249C48.1457 48.2698 49.0541 47.9228 49.7346 47.2838L50.9874 48.6216C50.16 49.4633 49.0126 50.0888 47.2291 50.0888C44.1714 50.0888 42.1947 48.0811 42.1947 45.3668C42.1823 44.7447 42.2967 44.1265 42.531 43.5491C42.7654 42.9717 43.1149 42.4469 43.5587 42.006C44.0025 41.5652 44.5315 41.2173 45.1142 40.983C45.6969 40.7488 46.3212 40.6331 46.9501 40.6429C49.9864 40.6429 51.7074 42.9286 51.5552 46.0985H44.3782C44.6319 47.4151 45.5686 48.2548 47.2018 48.2548M49.3873 44.5869C49.1922 43.3571 48.4507 42.4517 46.9677 42.4517C45.5881 42.4517 44.6261 43.2239 44.3782 44.5869H49.3893H49.3873ZM0.0830078 48.1467L5.60528 42.5946H0.213747V40.8533H8.16737V42.6293L2.64511 48.1795H8.24543V49.9228H0.0830078V48.1467ZM14.4448 48.2471C15.3829 48.2679 16.2912 47.9209 16.9718 47.2819L18.2245 48.6197C17.3972 49.4614 16.2498 50.0869 14.4663 50.0869C11.4085 50.0869 9.43184 48.0792 9.43184 45.3649C9.41945 44.7428 9.53383 44.1246 9.76818 43.5472C10.0025 42.9698 10.352 42.445 10.7958 42.0041C11.2396 41.5632 11.7687 41.2153 12.3513 40.9811C12.934 40.7469 13.5584 40.6312 14.1872 40.6409C17.2235 40.6409 18.9446 42.9266 18.7924 46.0965H11.6193C11.873 47.4131 12.8096 48.2529 14.4429 48.2529M16.6283 44.5849C16.4332 43.3552 15.6917 42.4498 14.2087 42.4498C12.8291 42.4498 11.8671 43.222 11.6193 44.5849H16.6303H16.6283ZM30.7228 45.3629C30.7228 42.4672 32.9142 40.6448 35.328 40.6448C35.9071 40.6372 36.481 40.755 37.0092 40.9902C37.5375 41.2253 38.0073 41.5719 38.3857 42.0058V36.6544H40.337V49.8977H38.3857V48.6486C38.0145 49.1003 37.5454 49.4636 37.013 49.7116C36.4807 49.9595 35.8988 50.0858 35.3104 50.0811C32.9688 50.0811 30.7248 48.2471 30.7248 45.3649M38.495 45.3456C38.4796 44.7793 38.2959 44.2302 37.9667 43.7667C37.6375 43.3033 37.1775 42.9462 36.6442 42.74C36.111 42.5339 35.5281 42.4878 34.9685 42.6077C34.409 42.7276 33.8976 43.008 33.4982 43.4139C33.0989 43.8198 32.8294 44.3332 32.7235 44.8898C32.6176 45.4465 32.6799 46.0217 32.9027 46.5435C33.1254 47.0652 33.4987 47.5105 33.9759 47.8235C34.4531 48.1364 35.013 48.3033 35.5855 48.3031C37.2637 48.3031 38.493 46.9788 38.493 45.3456M52.8314 47.971L54.5993 47.0637C54.833 47.4759 55.1761 47.8171 55.5916 48.0505C56.007 48.2839 56.479 48.4006 56.9565 48.388C58.061 48.388 58.6347 47.8282 58.6347 47.1911C58.6347 46.4652 57.5673 46.3031 56.4062 46.0656C54.8452 45.7374 53.2197 45.2297 53.2197 43.3629C53.2197 41.9286 54.5993 40.6023 56.7711 40.6216C58.4825 40.6216 59.7567 41.2934 60.4787 42.3784L58.8396 43.2664C58.6131 42.9346 58.3049 42.6654 57.9439 42.4844C57.583 42.3033 57.1814 42.2163 56.777 42.2317C55.7272 42.2317 55.1925 42.7394 55.1925 43.3205C55.1925 43.973 56.0394 44.1544 57.3663 44.4459C58.8766 44.7741 60.586 45.2625 60.586 47.1486C60.586 48.3996 59.4815 50.0869 56.8668 50.0695C54.9545 50.0695 53.608 49.3069 52.8334 47.9653M65.8878 45.8668L64.3404 47.5367V49.8919H62.389V36.6486H64.3404V45.3224L68.483 40.8243H70.8598L67.2693 44.7046L70.9534 49.8938H68.7445L65.8897 45.8668H65.8878ZM24.8259 40.6429C22.5038 40.6429 20.5622 42.1293 20.5622 44.6004V49.8996H22.5526V44.8456C22.5526 43.3591 23.417 42.4672 24.8942 42.4672C26.3713 42.4672 27.105 43.3552 27.105 44.8456V49.8996H29.0837V44.6004C29.0837 42.1332 27.1324 40.6429 24.82 40.6429" fill="#03363D"/>
</g>
<defs>
<clipPath id="clip0_3133_13784">
<rect width="70.8333" height="50" fill="white" transform="translate(0.0830078)"/>
</clipPath>
</defs>
</svg>
