<svg width="127" height="30" viewBox="0 0 127 30" fill="none" xmlns="http://www.w3.org/2000/svg">
<g clip-path="url(#clip0_3133_13896)">
<path d="M21.6629 8.61135L15.3781 14.8812H30.2592L22.8453 7.48616H22.8473L15.3612 0L7.9375 7.44059H21.1854C21.7827 7.44059 22.1081 8.1822 21.6629 8.61135Z" fill="#1E4BAF"/>
<path d="M9.12342 21.1449L15.3812 14.8818H0.5L15.3812 29.763L22.8218 22.3224H9.5912C9.00688 22.3224 8.65963 21.6006 9.12342 21.1449Z" fill="#1E4BAF"/>
<path d="M37.7031 8.74121H47.9023V11.291L42.0742 18.5761H47.9023V21.4902H37.7031V18.9404L43.5956 11.6751H37.7117L37.7031 8.74121Z" fill="#0F2F4D"/>
<path d="M51.1807 8.01368C52.1865 8.01368 53.0019 7.19825 53.0019 6.19238C53.0019 5.18652 52.1865 4.37109 51.1807 4.37109C50.1748 4.37109 49.3594 5.18652 49.3594 6.19238C49.3594 7.19825 50.1748 8.01368 51.1807 8.01368Z" fill="#0F2F4D"/>
<path d="M49.3594 8.74121H53.0019C53.0019 8.74121 53.0019 16.0518 53.0019 17.1284C53.0019 18.205 53.3662 18.5761 54.8232 18.5761C54.8232 19.5783 54.8232 21.4902 54.8232 21.4902C54.8232 21.4902 53.6839 21.4902 52.2734 21.4902C50.4521 21.4902 49.3594 20.3974 49.3594 18.5761C49.3594 17.0725 49.3594 8.74121 49.3594 8.74121Z" fill="#0F2F4D"/>
<path d="M56.2812 8.70801H59.936C59.936 8.70801 59.936 10.0861 59.936 10.9283C60.858 9.45876 62.3121 8.74281 63.9306 8.74281C66.2324 8.74281 67.9375 9.99133 67.9375 12.5934C67.9375 15.1954 67.9375 21.4918 67.9375 21.4918H64.2978C64.2978 21.4918 64.2978 15.4609 64.2978 14.2066C64.2978 12.9523 63.5665 12.0211 62.4736 12.0211C61.6569 12.0211 59.936 12.5339 59.936 14.995C59.936 17.4562 59.936 21.4918 59.936 21.4918H56.2812V8.70801Z" fill="#0F2F4D"/>
<path d="M90.5209 12.0205V8.74215H87.9709C87.9709 6.00256 87.9709 4.37109 87.9709 4.37109H84.3281C84.3281 4.37109 84.3281 16.7093 84.3281 18.2129C84.3281 20.0342 85.7854 21.4912 87.6064 21.4912C89.0171 21.4912 90.5209 21.4912 90.5209 21.4912C90.5209 21.4912 90.5209 19.5792 90.5209 18.5771C88.3354 18.5771 87.9709 18.2129 87.9709 16.3916C87.9709 15.95 87.9709 14.7059 87.9709 12.0205H90.5209Z" fill="#0F2F4D"/>
<path d="M95.9865 10.8636V8.74121H92.3438V21.4902H95.9865V14.5693C96.3503 12.748 98.172 12.0195 100.357 12.0195C100.357 11.178 100.357 9.95374 100.357 8.74121C98.172 8.74121 96.7148 9.59111 95.9865 10.8636Z" fill="#0F2F4D"/>
<path d="M111.649 17.1191C111.649 18.494 111.649 19.7345 111.649 20.3974C110.298 21.2076 108.763 21.4869 107.216 21.4886C105.457 21.4902 101.086 20.7519 101.086 15.3233C101.086 9.89464 105.153 8.74121 107.191 8.74121C109.229 8.74121 113.106 9.83396 112.742 16.0263C110.36 16.0263 103.778 16.0263 103.778 16.0263V13.8408C103.778 13.8408 107.707 13.8408 109.499 13.8408C109.499 12.3837 108.456 11.6553 107.278 11.6553C105.821 11.6553 104.728 12.7436 104.728 15.0024C104.728 17.4834 105.782 18.5761 107.845 18.5761C109.908 18.5761 110.864 17.7084 111.649 17.1191Z" fill="#0F2F4D"/>
<path d="M124.375 17.1191C124.375 18.494 124.375 19.7345 124.375 20.3974C123.025 21.2076 121.49 21.4869 119.942 21.4886C118.184 21.4902 113.812 20.7519 113.812 15.3237C113.812 9.89546 117.88 8.74121 119.917 8.74121C121.955 8.74121 125.833 9.83396 125.468 16.0263C123.087 16.0263 116.504 16.0263 116.504 16.0263V13.8408C116.504 13.8408 120.434 13.8408 122.225 13.8408C122.225 12.3837 121.183 11.6553 120.005 11.6553C118.547 11.6553 117.455 12.7436 117.455 15.0024C117.455 17.4834 118.509 18.5761 120.572 18.5761C122.635 18.5761 123.589 17.7084 124.375 17.1191Z" fill="#0F2F4D"/>
<path d="M80.3474 19.3317C81.5369 18.2159 82.1316 16.5387 82.1316 15.0748C82.1316 13.7955 81.8166 12.7953 81.0389 11.6553L83.2394 8.74121H75.6636C72.1964 8.76386 69.3828 11.291 69.3828 15.0748C69.3828 18.9404 72.2192 21.4902 75.7049 21.4902C75.7289 21.4902 75.7514 21.4893 75.7754 21.4893V21.4902C76.2239 21.4902 76.6334 21.4623 77.0211 21.391C78.1619 21.7079 78.7094 22.4498 78.7094 23.5191C78.7094 25.2723 77.0474 25.8617 75.5901 25.8617V29.5285C79.8899 29.5285 82.1466 26.3069 82.1466 23.5114C82.1466 22.404 81.8069 20.6046 80.3474 19.3317ZM73.0253 15.0748C73.0253 13.5303 74.1602 12.3837 75.7049 12.3837C77.2499 12.3837 78.4889 13.53 78.4889 15.0748C78.4889 16.6197 77.2499 17.8476 75.7049 17.8476C74.1602 17.8476 73.0253 16.6193 73.0253 15.0748Z" fill="#0F2F4D"/>
</g>
<defs>
<clipPath id="clip0_3133_13896">
<rect width="126" height="30" fill="white" transform="translate(0.5)"/>
</clipPath>
</defs>
</svg>
