<svg width="84" height="19" viewBox="0 0 84 19" fill="none" xmlns="http://www.w3.org/2000/svg">
<g clip-path="url(#clip0_4864_274436)">
<path d="M33.0208 3.92181L29.0531 17.9656H28.1256L23.9682 4.06232V15.395C23.9799 16.4937 24.5374 17.0535 25.6546 17.0535H26.0832V17.9656H20.7852V17.0535H21.0709C22.1881 17.0535 22.7573 16.4937 22.7573 15.395V4.43777C22.7456 3.33906 22.1858 2.77933 21.0709 2.77933H20.7852V1.86719H26.0598L29.196 13.1077L32.3674 1.86719H37.6186V2.80236H37.3328C36.2156 2.8254 35.6582 3.36209 35.6465 4.46081V15.3973C35.6582 16.496 36.2156 17.0558 37.3328 17.0558H37.6186V17.9679H31.1447V17.0558H31.3345C32.4517 17.0558 33.0208 16.496 33.0208 15.3973V3.92181Z" fill="#4F4F4F"/>
<path d="M48.1601 12.3938C48.1601 15.5724 46.3776 18.3066 43.0283 18.3066C39.6789 18.3066 37.9199 15.5724 37.9199 12.3938C37.9199 9.21508 39.6789 6.48096 43.0283 6.48096C46.3776 6.48096 48.1601 9.21508 48.1601 12.3938ZM40.6767 12.3938C40.6767 15.6646 41.4379 17.323 43.0283 17.323C44.6186 17.323 45.4033 15.6646 45.4033 12.3938C45.4033 9.12295 44.6186 7.46451 43.0283 7.46451C41.4379 7.46451 40.6767 9.12295 40.6767 12.3938Z" fill="#4F4F4F"/>
<path d="M50.0826 3.94715C50.0709 3.10641 49.75 2.77933 48.8951 2.77933H48.5742V1.86719H52.5185V7.68786C53.172 6.87016 54.0503 6.46015 55.1792 6.46015C58.196 6.46015 59.7653 8.98467 59.7653 12.3476C59.7653 15.7106 58.196 18.2121 55.1792 18.2121C53.8606 18.2328 52.5958 17.6915 51.7104 16.7287L50.8907 17.9679H49.8086C49.9866 17.1502 50.0803 16.3164 50.0826 15.4802V3.94715ZM52.3171 12.3476C52.3171 13.8656 52.6262 17.1387 54.7647 17.1387C56.7837 17.1387 57.0226 13.8909 57.0226 12.3476C57.0226 10.8044 56.8563 7.55657 54.8373 7.55657C52.6988 7.55657 52.3194 10.8274 52.3194 12.3476H52.3171Z" fill="#4F4F4F"/>
<path d="M64.8528 15.8857C64.8646 16.7265 65.1854 17.0536 66.0403 17.0536H66.4081V17.9657H60.8594V17.0536H61.2271C62.082 17.0536 62.4146 16.7265 62.4146 15.8857V8.89954C62.4029 8.05881 62.082 7.73172 61.2271 7.73172H60.9788V6.81958H64.8528V15.8857Z" fill="#4F4F4F"/>
<path d="M64.9723 3.15262C64.9957 3.9542 64.3563 4.62449 63.5388 4.64752C63.5131 4.64752 63.4873 4.64752 63.4615 4.64752C62.6207 4.65443 61.9368 3.98875 61.9297 3.16413C61.9227 2.33722 62.5996 1.66463 63.4381 1.65771C63.4498 1.65771 63.4615 1.65771 63.4733 1.65771C64.3001 1.65771 64.9699 2.31418 64.9699 3.12728C64.9699 3.13649 64.9699 3.1434 64.9699 3.15262H64.9723Z" fill="#4F4F4F"/>
<path d="M71.374 15.8856C71.3857 16.7264 71.7066 17.0535 72.5615 17.0535H72.9292V17.9656H67.4297V17.0535H67.7506C68.6055 17.0535 68.9381 16.7264 68.9381 15.8856V3.94715C68.9264 3.10641 68.6055 2.77933 67.7506 2.77933H67.5257V1.86719H71.374V15.8879V15.8856Z" fill="#4F4F4F"/>
<path d="M76.483 12.4399C76.565 14.2965 76.6493 17.1826 79.0969 17.1826C80.7013 17.1826 81.5094 15.8858 82.0785 14.612L83.0529 15.1142C82.1254 16.9592 80.9847 18.3044 78.7175 18.3044C75.2487 18.3044 73.834 15.3837 73.834 12.3916C73.834 9.39946 75.2604 6.47876 78.502 6.47876C81.9942 6.47876 83.0763 9.77261 83.1466 12.4376H76.4807L76.483 12.4399ZM80.4976 11.4126C80.4507 8.72457 79.7855 7.46461 78.5488 7.46461C77.3122 7.46461 76.5884 8.83052 76.5064 11.4126H80.4976Z" fill="#4F4F4F"/>
<path d="M4.09276 12.4905H0.818359V9.2704H4.09276V12.4905ZM0.818359 1.86499V7.34015H1.79974V7.17892C1.79974 4.60372 3.27299 2.99365 6.05553 2.99365H6.21949V14.5866C6.21949 16.1967 5.56367 16.8417 3.92647 16.8417H3.43461V17.968H11.9485V16.8417H11.4567C9.81946 16.8417 9.16364 16.1967 9.16364 14.5866V2.99135H9.3276C12.1101 2.99135 13.5834 4.60142 13.5834 7.17661V7.33785H14.5648V1.86499H0.818359ZM11.2974 12.4905H14.5718V9.2704H11.2974V12.4905Z" fill="#4F4F4F"/>
</g>
<defs>
<clipPath id="clip0_4864_274436">
<rect width="83" height="18" fill="white" transform="translate(0.769531 0.946533)"/>
</clipPath>
</defs>
</svg>
