<svg fill="none" height="28" viewBox="0 0 97 28" width="97" xmlns="http://www.w3.org/2000/svg" xmlns:xlink="http://www.w3.org/1999/xlink"><linearGradient id="a" gradientUnits="userSpaceOnUse" x1="10.3731" x2="71.2376" y1="25.8611" y2="30.8308"><stop offset="0" stop-color="#f2f2f2"/><stop offset=".239583" stop-color="#ffda7d"/><stop offset=".390625" stop-color="#ff7a3f"/><stop offset=".479167" stop-color="#ff3a65"/><stop offset=".512017" stop-color="#c175fc"/><stop offset=".567601" stop-color="#9adfff"/><stop offset=".687565" stop-color="#f2f2f2"/></linearGradient><mask id="b" height="11" maskUnits="userSpaceOnUse" width="74" x="12" y="8"><path d="m23.8868 8.56693h1.5803l-2.3572 9.48147h-1.9753l-1.9885-7.7432-2.0017 7.7432h-1.9884l-2.4099-9.48147h1.7383l1.7777 7.53247 1.949-7.53247h1.9885l1.9226 7.53247zm3.5119 9.48147h-1.5803v-9.48147h1.5803v3.34487c.4916-.6058 1.1544-.9087 1.9884-.9087.8253 0 1.453.2546 1.8832.7638.3863.4478.5794 1.0579.5794 1.8305v4.451h-1.5802v-4.4115c0-.9394-.4346-1.4091-1.3038-1.4091-.4828 0-.8691.1668-1.1588.5004-.2722.3073-.4082.698-.4082 1.1721zm6.9801-4.9119h-1.6461c.1142-.7111.4697-1.2554 1.0667-1.6329.5355-.3337 1.2071-.5005 2.0148-.5005.9745 0 1.7207.2503 2.2387.7507.4477.4301.6716.9876.6716 1.6724v4.6222h-1.2642l-.1975-.8428c-.5356.6936-1.295 1.0404-2.2782 1.0404-.7814 0-1.3871-.2107-1.8173-.6321-.3775-.3688-.5663-.8385-.5663-1.4091 0-.6409.2327-1.1413.698-1.5012.4214-.3336 1.0754-.5751 1.9621-.7243l1.8832-.3161v-.3292c0-.4126-.1361-.7199-.4083-.9218-.237-.1844-.5618-.2765-.9745-.2765-.8164 0-1.2773.3336-1.3827 1.0008zm2.7655 1.5671-1.4881.2633c-.5092.0966-.8735.2327-1.093.4083-.2195.1668-.3292.4038-.3292.7111 0 .6409.3906.9613 1.172.9613.5092 0 .9393-.1668 1.2905-.5004.2985-.2897.4478-.6277.4478-1.014zm6.0645 2.186v1.1983c-.3688.1054-.7199.1581-1.0535.1581-.676 0-1.1896-.202-1.5408-.6058-.2985-.3424-.4477-.8033-.4477-1.3827v-3.8453h-1.0272v-1.2115h1.0272l.1053-1.64612h1.4749v1.64612h1.4486v1.2115h-1.4486v3.8979c0 .4566.2327.6848.698.6848.2019 0 .4565-.0351.7638-.1053zm2.5395-8.32267v1.46177c0 .8252-.2546 1.4529-.7638 1.8831-.3512.2985-.7857.4785-1.3037.5399v-.8033c.6145-.1317.9218-.5794.9218-1.3432h-.698v-1.73827zm2.3338 7.53247c.1229.6585.619.9877 1.4881.9877.4828 0 .8472-.0922 1.093-.2765.2019-.1581.3029-.3644.3029-.619 0-.3248-.1756-.5662-.5268-.7243-.2019-.0877-.6452-.2107-1.33-.3687-.8428-.1931-1.4442-.4565-1.8041-.7901-.36-.3248-.54-.7506-.54-1.2774 0-.6672.2722-1.1808.8165-1.5407.4829-.3248 1.1457-.4873 1.9885-.4873.8691 0 1.5671.2064 2.0938.619.4565.3511.7419.8252.856 1.4222h-1.6066c-.1317-.5882-.5882-.8823-1.3695-.8823-.7902 0-1.1852.2414-1.1852.7243 0 .2458.1009.4302.3028.5531.202.1229.6102.2589 1.2247.4082.9482.2195 1.6066.4653 1.9753.7374.4653.3424.698.8253.698 1.4486 0 .7111-.2897 1.2686-.8691 1.6724-.5268.36-1.2379.54-2.1334.54-.9393 0-1.69-.2239-2.2518-.6717-.4741-.3775-.7507-.8691-.8297-1.4749zm13.8361-7.53247 4.1482 7.32177v-7.32177h1.4749v9.48147h-1.9358l-4.2403-7.4535v7.4535h-1.4881v-9.48147zm11.4928 7.50617h1.6592c-.1843.7023-.5662 1.2466-1.1457 1.6329-.5531.36-1.2334.54-2.0411.54-1.115 0-1.9841-.3512-2.6074-1.0535-.5707-.6409-.856-1.4969-.856-2.568 0-1.229.3556-2.1684 1.0667-2.8181.597-.5355 1.3739-.8033 2.3308-.8033 1.115 0 1.9578.3644 2.5284 1.0931.5356.6759.8033 1.6417.8033 2.8971h-5.1226c.0614.7374.2897 1.2773.6848 1.6197.316.281.7286.4214 1.2378.4214.36 0 .6716-.0878.935-.2633.2634-.1756.439-.4083.5268-.698zm.1185-2.1597c-.0351-.6408-.2283-1.1105-.5795-1.409-.2897-.2546-.6672-.3819-1.1325-.3819-.5092 0-.9174.1668-1.2247.5004-.2809.2985-.4609.7287-.5399 1.2905zm10.8232-2.7127h1.5408l-1.949 6.8477h-1.8963l-1.4354-5.2543-1.4617 5.2543h-1.9095l-1.9358-6.8477h1.6329l1.3169 5.3597 1.4617-5.3597h1.8963l1.3959 5.3597z" fill="#fff"/></mask><rect fill="#000" height="28" rx="14" width="96" x=".769531"/><g mask="url(#b)"><path d="m0 0h67.6568v74.6862h-67.6568z" fill="url(#a)" transform="matrix(.951896 .306422 -.913268 .40736 44.6591 -13.573)"/></g></svg>